solid OpenSCAD_Model
  facet normal -1 0 0
    outer loop
      vertex -36 36 -5
      vertex -36 26 5
      vertex -36 36 9.5
    endloop
  endfacet
  facet normal -1 0 0
    outer loop
      vertex -36 36 -5
      vertex -36 -26 5
      vertex -36 26 5
    endloop
  endfacet
  facet normal -1 0 0
    outer loop
      vertex -36 -36 -5
      vertex -36 -26 5
      vertex -36 36 -5
    endloop
  endfacet
  facet normal -1 0 0
    outer loop
      vertex -36 -36 9.5
      vertex -36 -26 5
      vertex -36 -36 -5
    endloop
  endfacet
  facet normal -1 0 0
    outer loop
      vertex -36 -26 5
      vertex -36 -36 9.5
      vertex -36 -26 9.5
    endloop
  endfacet
  facet normal -1 -0 0
    outer loop
      vertex -36 36 9.5
      vertex -36 26 5
      vertex -36 26 9.5
    endloop
  endfacet
  facet normal 0 0 1
    outer loop
      vertex 25 36 5
      vertex -25 36 5
      vertex 25 34 5
    endloop
  endfacet
  facet normal -0 0 1
    outer loop
      vertex 25 34 5
      vertex 34 26 5
      vertex 34 34 5
    endloop
  endfacet
  facet normal 0 0 1
    outer loop
      vertex 34 26 5
      vertex 25 34 5
      vertex 34 -26 5
    endloop
  endfacet
  facet normal 0 0 1
    outer loop
      vertex 34 -26 5
      vertex 26 -34 5
      vertex 34 -34 5
    endloop
  endfacet
  facet normal 0 0 1
    outer loop
      vertex 34 -26 5
      vertex 25 34 5
      vertex 26 -34 5
    endloop
  endfacet
  facet normal 0 0 1
    outer loop
      vertex -26 -34 5
      vertex 26 -34 5
      vertex 25 34 5
    endloop
  endfacet
  facet normal 0 0 1
    outer loop
      vertex -25 34 5
      vertex 25 34 5
      vertex -25 36 5
    endloop
  endfacet
  facet normal 0 0 1
    outer loop
      vertex -26 -34 5
      vertex 25 34 5
      vertex -25 34 5
    endloop
  endfacet
  facet normal 0 0 1
    outer loop
      vertex 26 -34 5
      vertex -26 -34 5
      vertex 26 -36 5
    endloop
  endfacet
  facet normal 0 0 1
    outer loop
      vertex 26 -36 5
      vertex -26 -34 5
      vertex -26 -36 5
    endloop
  endfacet
  facet normal -0 0 1
    outer loop
      vertex 34 26 5
      vertex 36 -26 5
      vertex 36 26 5
    endloop
  endfacet
  facet normal 0 0 1
    outer loop
      vertex 36 -26 5
      vertex 34 26 5
      vertex 34 -26 5
    endloop
  endfacet
  facet normal -0 0 1
    outer loop
      vertex -36 26 5
      vertex -34 -26 5
      vertex -34 26 5
    endloop
  endfacet
  facet normal 0 0 1
    outer loop
      vertex -34 -26 5
      vertex -36 26 5
      vertex -36 -26 5
    endloop
  endfacet
  facet normal 0 0 1
    outer loop
      vertex -34 26 5
      vertex -25 34 5
      vertex -34 34 5
    endloop
  endfacet
  facet normal 0 0 1
    outer loop
      vertex -34 -26 5
      vertex -25 34 5
      vertex -34 26 5
    endloop
  endfacet
  facet normal 0 0 1
    outer loop
      vertex -25 34 5
      vertex -34 -26 5
      vertex -26 -34 5
    endloop
  endfacet
  facet normal 0 0 1
    outer loop
      vertex -26 -34 5
      vertex -34 -26 5
      vertex -34 -34 5
    endloop
  endfacet
  facet normal 1 0 0
    outer loop
      vertex 36 -26 9.5
      vertex 36 -36 9.5
      vertex 36 -26 5
    endloop
  endfacet
  facet normal 1 0 0
    outer loop
      vertex 36 26 5
      vertex 36 36 9.5
      vertex 36 26 9.5
    endloop
  endfacet
  facet normal 1 0 0
    outer loop
      vertex 36 36 9.5
      vertex 36 26 5
      vertex 36 36 -5
    endloop
  endfacet
  facet normal 1 -0 0
    outer loop
      vertex 36 -26 5
      vertex 36 36 -5
      vertex 36 26 5
    endloop
  endfacet
  facet normal 1 0 0
    outer loop
      vertex 36 -26 5
      vertex 36 -36 -5
      vertex 36 36 -5
    endloop
  endfacet
  facet normal 1 0 0
    outer loop
      vertex 36 -36 -5
      vertex 36 -26 5
      vertex 36 -36 9.5
    endloop
  endfacet
  facet normal 0 0 -1
    outer loop
      vertex -36 -36 -5
      vertex 36 36 -5
      vertex 36 -36 -5
    endloop
  endfacet
  facet normal -0 0 -1
    outer loop
      vertex 36 36 -5
      vertex -36 -36 -5
      vertex -36 36 -5
    endloop
  endfacet
  facet normal 0 -1 0
    outer loop
      vertex -36 -36 9.5
      vertex -26 -36 5
      vertex -26 -36 9.5
    endloop
  endfacet
  facet normal 0 -1 -0
    outer loop
      vertex -26 -36 5
      vertex -36 -36 -5
      vertex 26 -36 5
    endloop
  endfacet
  facet normal 0 -1 0
    outer loop
      vertex -36 -36 -5
      vertex -26 -36 5
      vertex -36 -36 9.5
    endloop
  endfacet
  facet normal 0 -1 0
    outer loop
      vertex 26 -36 5
      vertex 36 -36 9.5
      vertex 26 -36 9.5
    endloop
  endfacet
  facet normal 0 -1 0
    outer loop
      vertex 26 -36 5
      vertex 36 -36 -5
      vertex 36 -36 9.5
    endloop
  endfacet
  facet normal 0 -1 0
    outer loop
      vertex 36 -36 -5
      vertex 26 -36 5
      vertex -36 -36 -5
    endloop
  endfacet
  facet normal 0 1 0
    outer loop
      vertex 36 36 9.5
      vertex 25 36 5
      vertex 25 36 9.5
    endloop
  endfacet
  facet normal 0 1 0
    outer loop
      vertex 25 36 5
      vertex 36 36 -5
      vertex -25 36 5
    endloop
  endfacet
  facet normal 0 1 -0
    outer loop
      vertex 36 36 -5
      vertex 25 36 5
      vertex 36 36 9.5
    endloop
  endfacet
  facet normal 0 1 -0
    outer loop
      vertex -25 36 5
      vertex -36 36 9.5
      vertex -25 36 9.5
    endloop
  endfacet
  facet normal 0 1 0
    outer loop
      vertex -25 36 5
      vertex -36 36 -5
      vertex -36 36 9.5
    endloop
  endfacet
  facet normal 0 1 0
    outer loop
      vertex -36 36 -5
      vertex -25 36 5
      vertex 36 36 -5
    endloop
  endfacet
  facet normal -1 0 0
    outer loop
      vertex 34 26 5
      vertex 34 34 9.5
      vertex 34 34 5
    endloop
  endfacet
  facet normal -1 -0 0
    outer loop
      vertex 34 34 9.5
      vertex 34 26 5
      vertex 34 26 9.5
    endloop
  endfacet
  facet normal 0 0 1
    outer loop
      vertex 36 36 9.5
      vertex 34 34 9.5
      vertex 36 26 9.5
    endloop
  endfacet
  facet normal -0 0 1
    outer loop
      vertex 25 36 9.5
      vertex 34 34 9.5
      vertex 36 36 9.5
    endloop
  endfacet
  facet normal 0 0 1
    outer loop
      vertex 34 34 9.5
      vertex 25 36 9.5
      vertex 25 34 9.5
    endloop
  endfacet
  facet normal 0 0 1
    outer loop
      vertex 36 26 9.5
      vertex 34 34 9.5
      vertex 34 26 9.5
    endloop
  endfacet
  facet normal 0 -1 0
    outer loop
      vertex 34 26 5
      vertex 36 26 9.5
      vertex 34 26 9.5
    endloop
  endfacet
  facet normal 0 -1 -0
    outer loop
      vertex 36 26 9.5
      vertex 34 26 5
      vertex 36 26 5
    endloop
  endfacet
  facet normal -1 0 0
    outer loop
      vertex 25 34 5
      vertex 25 36 9.5
      vertex 25 36 5
    endloop
  endfacet
  facet normal -1 -0 0
    outer loop
      vertex 25 36 9.5
      vertex 25 34 5
      vertex 25 34 9.5
    endloop
  endfacet
  facet normal 0 -1 0
    outer loop
      vertex 25 34 5
      vertex 34 34 9.5
      vertex 25 34 9.5
    endloop
  endfacet
  facet normal 0 -1 -0
    outer loop
      vertex 34 34 9.5
      vertex 25 34 5
      vertex 34 34 5
    endloop
  endfacet
  facet normal -1 0 0
    outer loop
      vertex 34 -34 5
      vertex 34 -26 9.5
      vertex 34 -26 5
    endloop
  endfacet
  facet normal -1 -0 0
    outer loop
      vertex 34 -26 9.5
      vertex 34 -34 5
      vertex 34 -34 9.5
    endloop
  endfacet
  facet normal 0 0 1
    outer loop
      vertex 34 -34 9.5
      vertex 36 -26 9.5
      vertex 34 -26 9.5
    endloop
  endfacet
  facet normal 0 0 1
    outer loop
      vertex 36 -26 9.5
      vertex 34 -34 9.5
      vertex 36 -36 9.5
    endloop
  endfacet
  facet normal 0 0 1
    outer loop
      vertex 26 -36 9.5
      vertex 34 -34 9.5
      vertex 26 -34 9.5
    endloop
  endfacet
  facet normal 0 0 1
    outer loop
      vertex 34 -34 9.5
      vertex 26 -36 9.5
      vertex 36 -36 9.5
    endloop
  endfacet
  facet normal 0 1 -0
    outer loop
      vertex 36 -26 5
      vertex 34 -26 9.5
      vertex 36 -26 9.5
    endloop
  endfacet
  facet normal 0 1 0
    outer loop
      vertex 34 -26 9.5
      vertex 36 -26 5
      vertex 34 -26 5
    endloop
  endfacet
  facet normal 0 1 -0
    outer loop
      vertex 34 -34 5
      vertex 26 -34 9.5
      vertex 34 -34 9.5
    endloop
  endfacet
  facet normal 0 1 0
    outer loop
      vertex 26 -34 9.5
      vertex 34 -34 5
      vertex 26 -34 5
    endloop
  endfacet
  facet normal -1 0 0
    outer loop
      vertex 26 -36 5
      vertex 26 -34 9.5
      vertex 26 -34 5
    endloop
  endfacet
  facet normal -1 -0 0
    outer loop
      vertex 26 -34 9.5
      vertex 26 -36 5
      vertex 26 -36 9.5
    endloop
  endfacet
  facet normal 0 0 1
    outer loop
      vertex -25 36 9.5
      vertex -34 34 9.5
      vertex -25 34 9.5
    endloop
  endfacet
  facet normal -0 0 1
    outer loop
      vertex -36 36 9.5
      vertex -34 34 9.5
      vertex -25 36 9.5
    endloop
  endfacet
  facet normal 0 0 1
    outer loop
      vertex -36 26 9.5
      vertex -34 34 9.5
      vertex -36 36 9.5
    endloop
  endfacet
  facet normal 0 0 1
    outer loop
      vertex -34 34 9.5
      vertex -36 26 9.5
      vertex -34 26 9.5
    endloop
  endfacet
  facet normal 1 -0 0
    outer loop
      vertex -34 26 9.5
      vertex -34 34 5
      vertex -34 34 9.5
    endloop
  endfacet
  facet normal 1 0 0
    outer loop
      vertex -34 34 5
      vertex -34 26 9.5
      vertex -34 26 5
    endloop
  endfacet
  facet normal 0 -1 0
    outer loop
      vertex -36 26 5
      vertex -34 26 9.5
      vertex -36 26 9.5
    endloop
  endfacet
  facet normal 0 -1 -0
    outer loop
      vertex -34 26 9.5
      vertex -36 26 5
      vertex -34 26 5
    endloop
  endfacet
  facet normal 0 -1 0
    outer loop
      vertex -34 34 5
      vertex -25 34 9.5
      vertex -34 34 9.5
    endloop
  endfacet
  facet normal 0 -1 -0
    outer loop
      vertex -25 34 9.5
      vertex -34 34 5
      vertex -25 34 5
    endloop
  endfacet
  facet normal 1 -0 0
    outer loop
      vertex -25 34 9.5
      vertex -25 36 5
      vertex -25 36 9.5
    endloop
  endfacet
  facet normal 1 0 0
    outer loop
      vertex -25 36 5
      vertex -25 34 9.5
      vertex -25 34 5
    endloop
  endfacet
  facet normal 0 0 1
    outer loop
      vertex -34 -26 9.5
      vertex -36 -26 9.5
      vertex -34 -34 9.5
    endloop
  endfacet
  facet normal -0 0 1
    outer loop
      vertex -34 -34 9.5
      vertex -26 -36 9.5
      vertex -26 -34 9.5
    endloop
  endfacet
  facet normal 0 0 1
    outer loop
      vertex -34 -34 9.5
      vertex -36 -36 9.5
      vertex -26 -36 9.5
    endloop
  endfacet
  facet normal 0 0 1
    outer loop
      vertex -36 -36 9.5
      vertex -34 -34 9.5
      vertex -36 -26 9.5
    endloop
  endfacet
  facet normal 1 -0 0
    outer loop
      vertex -34 -34 9.5
      vertex -34 -26 5
      vertex -34 -26 9.5
    endloop
  endfacet
  facet normal 1 0 0
    outer loop
      vertex -34 -26 5
      vertex -34 -34 9.5
      vertex -34 -34 5
    endloop
  endfacet
  facet normal 0 1 -0
    outer loop
      vertex -34 -26 5
      vertex -36 -26 9.5
      vertex -34 -26 9.5
    endloop
  endfacet
  facet normal 0 1 0
    outer loop
      vertex -36 -26 9.5
      vertex -34 -26 5
      vertex -36 -26 5
    endloop
  endfacet
  facet normal 0 1 -0
    outer loop
      vertex -26 -34 5
      vertex -34 -34 9.5
      vertex -26 -34 9.5
    endloop
  endfacet
  facet normal 0 1 0
    outer loop
      vertex -34 -34 9.5
      vertex -26 -34 5
      vertex -34 -34 5
    endloop
  endfacet
  facet normal 1 -0 0
    outer loop
      vertex -26 -36 9.5
      vertex -26 -34 5
      vertex -26 -34 9.5
    endloop
  endfacet
  facet normal 1 0 0
    outer loop
      vertex -26 -34 5
      vertex -26 -36 9.5
      vertex -26 -36 5
    endloop
  endfacet
endsolid OpenSCAD_Model
