solid OpenSCAD_Model
  facet normal -1 0 0
    outer loop
      vertex -37 -37 -2.5
      vertex -37 37 2.5
      vertex -37 37 -2.5
    endloop
  endfacet
  facet normal -1 -0 0
    outer loop
      vertex -37 37 2.5
      vertex -37 -37 -2.5
      vertex -37 -37 2.5
    endloop
  endfacet
  facet normal -0 0 1
    outer loop
      vertex -35 7.5 2.5
      vertex -32 -7.5 2.5
      vertex -32 7.5 2.5
    endloop
  endfacet
  facet normal 0 0 1
    outer loop
      vertex -32 -7.5 2.5
      vertex -35 7.5 2.5
      vertex -35 -7.5 2.5
    endloop
  endfacet
  facet normal 0 0 1
    outer loop
      vertex -32 7.5 2.5
      vertex -7.5 32 2.5
      vertex -22.5 32 2.5
    endloop
  endfacet
  facet normal 0 0 1
    outer loop
      vertex -7.5 32 2.5
      vertex -32 7.5 2.5
      vertex -7.5 -32 2.5
    endloop
  endfacet
  facet normal 0 0 1
    outer loop
      vertex 7.5 -32 2.5
      vertex 32 -7.5 2.5
      vertex 7.5 32 2.5
    endloop
  endfacet
  facet normal 0 0 1
    outer loop
      vertex 32 -7.5 2.5
      vertex 7.5 -32 2.5
      vertex 22.5 -32 2.5
    endloop
  endfacet
  facet normal -0 0 1
    outer loop
      vertex 32 7.5 2.5
      vertex 35 -7.5 2.5
      vertex 35 7.5 2.5
    endloop
  endfacet
  facet normal 0 0 1
    outer loop
      vertex 35 -7.5 2.5
      vertex 32 7.5 2.5
      vertex 32 -7.5 2.5
    endloop
  endfacet
  facet normal 0 0 1
    outer loop
      vertex 35 7.5 2.5
      vertex 37 37 2.5
      vertex 35 22.5 2.5
    endloop
  endfacet
  facet normal 0 0 1
    outer loop
      vertex 37 37 2.5
      vertex 32 22.5 2.5
      vertex 35 22.5 2.5
    endloop
  endfacet
  facet normal 0 0 1
    outer loop
      vertex 22.5 32 2.5
      vertex 32 7.5 2.5
      vertex 32 22.5 2.5
    endloop
  endfacet
  facet normal -0 0 1
    outer loop
      vertex 7.5 32 2.5
      vertex 32 7.5 2.5
      vertex 22.5 32 2.5
    endloop
  endfacet
  facet normal 0 0 1
    outer loop
      vertex 37 37 2.5
      vertex 22.5 32 2.5
      vertex 32 22.5 2.5
    endloop
  endfacet
  facet normal 0 0 1
    outer loop
      vertex 22.5 32 2.5
      vertex 37 37 2.5
      vertex 22.5 35 2.5
    endloop
  endfacet
  facet normal 0 0 1
    outer loop
      vertex 37 37 2.5
      vertex 7.5 35 2.5
      vertex 22.5 35 2.5
    endloop
  endfacet
  facet normal 0 0 1
    outer loop
      vertex -7.5 32 2.5
      vertex 7.5 32 2.5
      vertex 7.5 35 2.5
    endloop
  endfacet
  facet normal 0 0 1
    outer loop
      vertex 7.5 32 2.5
      vertex -7.5 32 2.5
      vertex 7.5 -32 2.5
    endloop
  endfacet
  facet normal 0 0 1
    outer loop
      vertex -7.5 32 2.5
      vertex 7.5 35 2.5
      vertex -7.5 35 2.5
    endloop
  endfacet
  facet normal 0 0 1
    outer loop
      vertex 37 37 2.5
      vertex -7.5 35 2.5
      vertex 7.5 35 2.5
    endloop
  endfacet
  facet normal -0 0 1
    outer loop
      vertex -37 37 2.5
      vertex -7.5 35 2.5
      vertex 37 37 2.5
    endloop
  endfacet
  facet normal 0 0 1
    outer loop
      vertex -37 37 2.5
      vertex -22.5 32 2.5
      vertex -22.5 35 2.5
    endloop
  endfacet
  facet normal -0 0 1
    outer loop
      vertex -32 -7.5 2.5
      vertex -7.5 -32 2.5
      vertex -32 7.5 2.5
    endloop
  endfacet
  facet normal 0 0 1
    outer loop
      vertex -22.5 32 2.5
      vertex -32 22.5 2.5
      vertex -32 7.5 2.5
    endloop
  endfacet
  facet normal 0 0 1
    outer loop
      vertex -22.5 32 2.5
      vertex -37 37 2.5
      vertex -32 22.5 2.5
    endloop
  endfacet
  facet normal 0 0 1
    outer loop
      vertex -37 37 2.5
      vertex -35 7.5 2.5
      vertex -35 22.5 2.5
    endloop
  endfacet
  facet normal 0 0 1
    outer loop
      vertex -35 7.5 2.5
      vertex -37 37 2.5
      vertex -35 -7.5 2.5
    endloop
  endfacet
  facet normal 0 0 1
    outer loop
      vertex -37 -37 2.5
      vertex -35 -7.5 2.5
      vertex -37 37 2.5
    endloop
  endfacet
  facet normal 0 0 1
    outer loop
      vertex -32 22.5 2.5
      vertex -37 37 2.5
      vertex -35 22.5 2.5
    endloop
  endfacet
  facet normal 0 0 1
    outer loop
      vertex -7.5 35 2.5
      vertex -37 37 2.5
      vertex -22.5 35 2.5
    endloop
  endfacet
  facet normal 0 0 1
    outer loop
      vertex 37 37 2.5
      vertex 35 7.5 2.5
      vertex 37 -37 2.5
    endloop
  endfacet
  facet normal -0 0 1
    outer loop
      vertex 35 -7.5 2.5
      vertex 37 -37 2.5
      vertex 35 7.5 2.5
    endloop
  endfacet
  facet normal -0 0 1
    outer loop
      vertex 35 -22.5 2.5
      vertex 37 -37 2.5
      vertex 35 -7.5 2.5
    endloop
  endfacet
  facet normal -0 0 1
    outer loop
      vertex 32 -22.5 2.5
      vertex 37 -37 2.5
      vertex 35 -22.5 2.5
    endloop
  endfacet
  facet normal 0 0 1
    outer loop
      vertex 32 7.5 2.5
      vertex 7.5 32 2.5
      vertex 32 -7.5 2.5
    endloop
  endfacet
  facet normal 0 0 1
    outer loop
      vertex 32 -7.5 2.5
      vertex 22.5 -32 2.5
      vertex 32 -22.5 2.5
    endloop
  endfacet
  facet normal -0 0 1
    outer loop
      vertex 22.5 -32 2.5
      vertex 37 -37 2.5
      vertex 32 -22.5 2.5
    endloop
  endfacet
  facet normal -0 0 1
    outer loop
      vertex 22.5 -35 2.5
      vertex 37 -37 2.5
      vertex 22.5 -32 2.5
    endloop
  endfacet
  facet normal -0 0 1
    outer loop
      vertex 7.5 -35 2.5
      vertex 37 -37 2.5
      vertex 22.5 -35 2.5
    endloop
  endfacet
  facet normal 0 0 1
    outer loop
      vertex -7.5 -32 2.5
      vertex 7.5 -32 2.5
      vertex -7.5 32 2.5
    endloop
  endfacet
  facet normal 0 0 1
    outer loop
      vertex 7.5 -32 2.5
      vertex -7.5 -32 2.5
      vertex 7.5 -35 2.5
    endloop
  endfacet
  facet normal 0 0 1
    outer loop
      vertex -7.5 -35 2.5
      vertex 7.5 -35 2.5
      vertex -7.5 -32 2.5
    endloop
  endfacet
  facet normal -0 0 1
    outer loop
      vertex -7.5 -35 2.5
      vertex 37 -37 2.5
      vertex 7.5 -35 2.5
    endloop
  endfacet
  facet normal 0 0 1
    outer loop
      vertex -37 -37 2.5
      vertex -7.5 -35 2.5
      vertex -22.5 -35 2.5
    endloop
  endfacet
  facet normal 0 0 1
    outer loop
      vertex -7.5 -32 2.5
      vertex -32 -7.5 2.5
      vertex -22.5 -32 2.5
    endloop
  endfacet
  facet normal -0 0 1
    outer loop
      vertex -32 -22.5 2.5
      vertex -22.5 -32 2.5
      vertex -32 -7.5 2.5
    endloop
  endfacet
  facet normal 0 0 1
    outer loop
      vertex -37 -37 2.5
      vertex -22.5 -32 2.5
      vertex -32 -22.5 2.5
    endloop
  endfacet
  facet normal 0 0 1
    outer loop
      vertex -37 -37 2.5
      vertex -32 -22.5 2.5
      vertex -35 -22.5 2.5
    endloop
  endfacet
  facet normal 0 0 1
    outer loop
      vertex -7.5 -35 2.5
      vertex -37 -37 2.5
      vertex 37 -37 2.5
    endloop
  endfacet
  facet normal 0 0 1
    outer loop
      vertex -22.5 -32 2.5
      vertex -37 -37 2.5
      vertex -22.5 -35 2.5
    endloop
  endfacet
  facet normal 0 0 1
    outer loop
      vertex -35 -7.5 2.5
      vertex -37 -37 2.5
      vertex -35 -22.5 2.5
    endloop
  endfacet
  facet normal 1 -0 0
    outer loop
      vertex 37 -37 2.5
      vertex 37 37 -2.5
      vertex 37 37 2.5
    endloop
  endfacet
  facet normal 1 0 0
    outer loop
      vertex 37 37 -2.5
      vertex 37 -37 2.5
      vertex 37 -37 -2.5
    endloop
  endfacet
  facet normal 0 1 -0
    outer loop
      vertex 37 37 -2.5
      vertex -37 37 2.5
      vertex 37 37 2.5
    endloop
  endfacet
  facet normal 0 1 0
    outer loop
      vertex -37 37 2.5
      vertex 37 37 -2.5
      vertex -37 37 -2.5
    endloop
  endfacet
  facet normal 0 0 -1
    outer loop
      vertex -35 -7.5 -2.5
      vertex -32 7.5 -2.5
      vertex -32 -7.5 -2.5
    endloop
  endfacet
  facet normal -0 0 -1
    outer loop
      vertex -32 7.5 -2.5
      vertex -35 -7.5 -2.5
      vertex -35 7.5 -2.5
    endloop
  endfacet
  facet normal 0 0 -1
    outer loop
      vertex -32 -7.5 -2.5
      vertex -7.5 -32 -2.5
      vertex -22.5 -32 -2.5
    endloop
  endfacet
  facet normal 0 0 -1
    outer loop
      vertex -7.5 -32 -2.5
      vertex -32 -7.5 -2.5
      vertex -7.5 32 -2.5
    endloop
  endfacet
  facet normal 0 0 -1
    outer loop
      vertex 7.5 32 -2.5
      vertex 32 7.5 -2.5
      vertex 7.5 -32 -2.5
    endloop
  endfacet
  facet normal 0 0 -1
    outer loop
      vertex 32 7.5 -2.5
      vertex 7.5 32 -2.5
      vertex 22.5 32 -2.5
    endloop
  endfacet
  facet normal 0 0 -1
    outer loop
      vertex 32 -7.5 -2.5
      vertex 35 7.5 -2.5
      vertex 35 -7.5 -2.5
    endloop
  endfacet
  facet normal -0 0 -1
    outer loop
      vertex 35 7.5 -2.5
      vertex 32 -7.5 -2.5
      vertex 32 7.5 -2.5
    endloop
  endfacet
  facet normal 0 0 -1
    outer loop
      vertex 35 -7.5 -2.5
      vertex 37 -37 -2.5
      vertex 35 -22.5 -2.5
    endloop
  endfacet
  facet normal 0 0 -1
    outer loop
      vertex 37 -37 -2.5
      vertex 32 -22.5 -2.5
      vertex 35 -22.5 -2.5
    endloop
  endfacet
  facet normal 0 0 -1
    outer loop
      vertex 22.5 -32 -2.5
      vertex 32 -7.5 -2.5
      vertex 32 -22.5 -2.5
    endloop
  endfacet
  facet normal 0 0 -1
    outer loop
      vertex 7.5 -32 -2.5
      vertex 32 -7.5 -2.5
      vertex 22.5 -32 -2.5
    endloop
  endfacet
  facet normal 0 0 -1
    outer loop
      vertex 37 -37 -2.5
      vertex 22.5 -32 -2.5
      vertex 32 -22.5 -2.5
    endloop
  endfacet
  facet normal 0 0 -1
    outer loop
      vertex 22.5 -32 -2.5
      vertex 37 -37 -2.5
      vertex 22.5 -35 -2.5
    endloop
  endfacet
  facet normal 0 0 -1
    outer loop
      vertex 37 -37 -2.5
      vertex 7.5 -35 -2.5
      vertex 22.5 -35 -2.5
    endloop
  endfacet
  facet normal 0 0 -1
    outer loop
      vertex -7.5 -32 -2.5
      vertex 7.5 -32 -2.5
      vertex 7.5 -35 -2.5
    endloop
  endfacet
  facet normal 0 0 -1
    outer loop
      vertex 7.5 -32 -2.5
      vertex -7.5 -32 -2.5
      vertex 7.5 32 -2.5
    endloop
  endfacet
  facet normal 0 0 -1
    outer loop
      vertex -7.5 -32 -2.5
      vertex 7.5 -35 -2.5
      vertex -7.5 -35 -2.5
    endloop
  endfacet
  facet normal 0 0 -1
    outer loop
      vertex 37 -37 -2.5
      vertex -7.5 -35 -2.5
      vertex 7.5 -35 -2.5
    endloop
  endfacet
  facet normal 0 0 -1
    outer loop
      vertex -37 -37 -2.5
      vertex -7.5 -35 -2.5
      vertex 37 -37 -2.5
    endloop
  endfacet
  facet normal 0 0 -1
    outer loop
      vertex -37 -37 -2.5
      vertex -22.5 -32 -2.5
      vertex -22.5 -35 -2.5
    endloop
  endfacet
  facet normal 0 0 -1
    outer loop
      vertex -32 7.5 -2.5
      vertex -7.5 32 -2.5
      vertex -32 -7.5 -2.5
    endloop
  endfacet
  facet normal 0 0 -1
    outer loop
      vertex -22.5 -32 -2.5
      vertex -32 -22.5 -2.5
      vertex -32 -7.5 -2.5
    endloop
  endfacet
  facet normal -0 0 -1
    outer loop
      vertex -22.5 -32 -2.5
      vertex -37 -37 -2.5
      vertex -32 -22.5 -2.5
    endloop
  endfacet
  facet normal 0 0 -1
    outer loop
      vertex -37 -37 -2.5
      vertex -35 -7.5 -2.5
      vertex -35 -22.5 -2.5
    endloop
  endfacet
  facet normal -0 0 -1
    outer loop
      vertex -35 -7.5 -2.5
      vertex -37 -37 -2.5
      vertex -35 7.5 -2.5
    endloop
  endfacet
  facet normal 0 0 -1
    outer loop
      vertex -37 37 -2.5
      vertex -35 7.5 -2.5
      vertex -37 -37 -2.5
    endloop
  endfacet
  facet normal -0 0 -1
    outer loop
      vertex -32 -22.5 -2.5
      vertex -37 -37 -2.5
      vertex -35 -22.5 -2.5
    endloop
  endfacet
  facet normal -0 0 -1
    outer loop
      vertex -7.5 -35 -2.5
      vertex -37 -37 -2.5
      vertex -22.5 -35 -2.5
    endloop
  endfacet
  facet normal 0 0 -1
    outer loop
      vertex 37 -37 -2.5
      vertex 35 -7.5 -2.5
      vertex 37 37 -2.5
    endloop
  endfacet
  facet normal 0 0 -1
    outer loop
      vertex 35 7.5 -2.5
      vertex 37 37 -2.5
      vertex 35 -7.5 -2.5
    endloop
  endfacet
  facet normal 0 0 -1
    outer loop
      vertex 35 22.5 -2.5
      vertex 37 37 -2.5
      vertex 35 7.5 -2.5
    endloop
  endfacet
  facet normal 0 0 -1
    outer loop
      vertex 32 22.5 -2.5
      vertex 37 37 -2.5
      vertex 35 22.5 -2.5
    endloop
  endfacet
  facet normal -0 0 -1
    outer loop
      vertex 32 -7.5 -2.5
      vertex 7.5 -32 -2.5
      vertex 32 7.5 -2.5
    endloop
  endfacet
  facet normal 0 0 -1
    outer loop
      vertex 32 7.5 -2.5
      vertex 22.5 32 -2.5
      vertex 32 22.5 -2.5
    endloop
  endfacet
  facet normal 0 0 -1
    outer loop
      vertex 22.5 32 -2.5
      vertex 37 37 -2.5
      vertex 32 22.5 -2.5
    endloop
  endfacet
  facet normal 0 0 -1
    outer loop
      vertex 22.5 35 -2.5
      vertex 37 37 -2.5
      vertex 22.5 32 -2.5
    endloop
  endfacet
  facet normal 0 0 -1
    outer loop
      vertex 7.5 35 -2.5
      vertex 37 37 -2.5
      vertex 22.5 35 -2.5
    endloop
  endfacet
  facet normal 0 0 -1
    outer loop
      vertex -7.5 32 -2.5
      vertex 7.5 32 -2.5
      vertex -7.5 -32 -2.5
    endloop
  endfacet
  facet normal 0 0 -1
    outer loop
      vertex 7.5 32 -2.5
      vertex -7.5 32 -2.5
      vertex 7.5 35 -2.5
    endloop
  endfacet
  facet normal 0 0 -1
    outer loop
      vertex -7.5 35 -2.5
      vertex 7.5 35 -2.5
      vertex -7.5 32 -2.5
    endloop
  endfacet
  facet normal 0 0 -1
    outer loop
      vertex -7.5 35 -2.5
      vertex 37 37 -2.5
      vertex 7.5 35 -2.5
    endloop
  endfacet
  facet normal 0 0 -1
    outer loop
      vertex -37 37 -2.5
      vertex -7.5 35 -2.5
      vertex -22.5 35 -2.5
    endloop
  endfacet
  facet normal -0 0 -1
    outer loop
      vertex -7.5 32 -2.5
      vertex -32 7.5 -2.5
      vertex -22.5 32 -2.5
    endloop
  endfacet
  facet normal 0 0 -1
    outer loop
      vertex -32 22.5 -2.5
      vertex -22.5 32 -2.5
      vertex -32 7.5 -2.5
    endloop
  endfacet
  facet normal 0 0 -1
    outer loop
      vertex -37 37 -2.5
      vertex -22.5 32 -2.5
      vertex -32 22.5 -2.5
    endloop
  endfacet
  facet normal 0 0 -1
    outer loop
      vertex -37 37 -2.5
      vertex -32 22.5 -2.5
      vertex -35 22.5 -2.5
    endloop
  endfacet
  facet normal 0 0 -1
    outer loop
      vertex -7.5 35 -2.5
      vertex -37 37 -2.5
      vertex 37 37 -2.5
    endloop
  endfacet
  facet normal 0 0 -1
    outer loop
      vertex -22.5 32 -2.5
      vertex -37 37 -2.5
      vertex -22.5 35 -2.5
    endloop
  endfacet
  facet normal 0 0 -1
    outer loop
      vertex -35 7.5 -2.5
      vertex -37 37 -2.5
      vertex -35 22.5 -2.5
    endloop
  endfacet
  facet normal 0 -1 0
    outer loop
      vertex -37 -37 -2.5
      vertex 37 -37 2.5
      vertex -37 -37 2.5
    endloop
  endfacet
  facet normal 0 -1 -0
    outer loop
      vertex 37 -37 2.5
      vertex -37 -37 -2.5
      vertex 37 -37 -2.5
    endloop
  endfacet
  facet normal 1 -0 0
    outer loop
      vertex 7.5 32 2.5
      vertex 7.5 35 -2.5
      vertex 7.5 35 2.5
    endloop
  endfacet
  facet normal 1 0 0
    outer loop
      vertex 7.5 35 -2.5
      vertex 7.5 32 2.5
      vertex 7.5 32 -2.5
    endloop
  endfacet
  facet normal -1 0 0
    outer loop
      vertex 22.5 32 -2.5
      vertex 22.5 35 2.5
      vertex 22.5 35 -2.5
    endloop
  endfacet
  facet normal -1 -0 0
    outer loop
      vertex 22.5 35 2.5
      vertex 22.5 32 -2.5
      vertex 22.5 32 2.5
    endloop
  endfacet
  facet normal 0 1 -0
    outer loop
      vertex 22.5 32 -2.5
      vertex 7.5 32 2.5
      vertex 22.5 32 2.5
    endloop
  endfacet
  facet normal 0 1 0
    outer loop
      vertex 7.5 32 2.5
      vertex 22.5 32 -2.5
      vertex 7.5 32 -2.5
    endloop
  endfacet
  facet normal 0 -1 0
    outer loop
      vertex 7.5 35 -2.5
      vertex 22.5 35 2.5
      vertex 7.5 35 2.5
    endloop
  endfacet
  facet normal 0 -1 -0
    outer loop
      vertex 22.5 35 2.5
      vertex 7.5 35 -2.5
      vertex 22.5 35 -2.5
    endloop
  endfacet
  facet normal 1 -0 0
    outer loop
      vertex -22.5 32 2.5
      vertex -22.5 35 -2.5
      vertex -22.5 35 2.5
    endloop
  endfacet
  facet normal 1 0 0
    outer loop
      vertex -22.5 35 -2.5
      vertex -22.5 32 2.5
      vertex -22.5 32 -2.5
    endloop
  endfacet
  facet normal -1 0 0
    outer loop
      vertex -7.5 32 -2.5
      vertex -7.5 35 2.5
      vertex -7.5 35 -2.5
    endloop
  endfacet
  facet normal -1 -0 0
    outer loop
      vertex -7.5 35 2.5
      vertex -7.5 32 -2.5
      vertex -7.5 32 2.5
    endloop
  endfacet
  facet normal 0 -1 0
    outer loop
      vertex -22.5 35 -2.5
      vertex -7.5 35 2.5
      vertex -22.5 35 2.5
    endloop
  endfacet
  facet normal 0 -1 -0
    outer loop
      vertex -7.5 35 2.5
      vertex -22.5 35 -2.5
      vertex -7.5 35 -2.5
    endloop
  endfacet
  facet normal 0 1 -0
    outer loop
      vertex -7.5 32 -2.5
      vertex -22.5 32 2.5
      vertex -7.5 32 2.5
    endloop
  endfacet
  facet normal 0 1 0
    outer loop
      vertex -22.5 32 2.5
      vertex -7.5 32 -2.5
      vertex -22.5 32 -2.5
    endloop
  endfacet
  facet normal 1 -0 0
    outer loop
      vertex 7.5 -35 2.5
      vertex 7.5 -32 -2.5
      vertex 7.5 -32 2.5
    endloop
  endfacet
  facet normal 1 0 0
    outer loop
      vertex 7.5 -32 -2.5
      vertex 7.5 -35 2.5
      vertex 7.5 -35 -2.5
    endloop
  endfacet
  facet normal -1 0 0
    outer loop
      vertex 22.5 -35 -2.5
      vertex 22.5 -32 2.5
      vertex 22.5 -32 -2.5
    endloop
  endfacet
  facet normal -1 -0 0
    outer loop
      vertex 22.5 -32 2.5
      vertex 22.5 -35 -2.5
      vertex 22.5 -35 2.5
    endloop
  endfacet
  facet normal 0 1 -0
    outer loop
      vertex 22.5 -35 -2.5
      vertex 7.5 -35 2.5
      vertex 22.5 -35 2.5
    endloop
  endfacet
  facet normal 0 1 0
    outer loop
      vertex 7.5 -35 2.5
      vertex 22.5 -35 -2.5
      vertex 7.5 -35 -2.5
    endloop
  endfacet
  facet normal 0 -1 0
    outer loop
      vertex 7.5 -32 -2.5
      vertex 22.5 -32 2.5
      vertex 7.5 -32 2.5
    endloop
  endfacet
  facet normal 0 -1 -0
    outer loop
      vertex 22.5 -32 2.5
      vertex 7.5 -32 -2.5
      vertex 22.5 -32 -2.5
    endloop
  endfacet
  facet normal 1 -0 0
    outer loop
      vertex -22.5 -35 2.5
      vertex -22.5 -32 -2.5
      vertex -22.5 -32 2.5
    endloop
  endfacet
  facet normal 1 0 0
    outer loop
      vertex -22.5 -32 -2.5
      vertex -22.5 -35 2.5
      vertex -22.5 -35 -2.5
    endloop
  endfacet
  facet normal -1 0 0
    outer loop
      vertex -7.5 -35 -2.5
      vertex -7.5 -32 2.5
      vertex -7.5 -32 -2.5
    endloop
  endfacet
  facet normal -1 -0 0
    outer loop
      vertex -7.5 -32 2.5
      vertex -7.5 -35 -2.5
      vertex -7.5 -35 2.5
    endloop
  endfacet
  facet normal 0 1 -0
    outer loop
      vertex -7.5 -35 -2.5
      vertex -22.5 -35 2.5
      vertex -7.5 -35 2.5
    endloop
  endfacet
  facet normal 0 1 0
    outer loop
      vertex -22.5 -35 2.5
      vertex -7.5 -35 -2.5
      vertex -22.5 -35 -2.5
    endloop
  endfacet
  facet normal 0 -1 0
    outer loop
      vertex -22.5 -32 -2.5
      vertex -7.5 -32 2.5
      vertex -22.5 -32 2.5
    endloop
  endfacet
  facet normal 0 -1 -0
    outer loop
      vertex -7.5 -32 2.5
      vertex -22.5 -32 -2.5
      vertex -7.5 -32 -2.5
    endloop
  endfacet
  facet normal 1 -0 0
    outer loop
      vertex 32 7.5 2.5
      vertex 32 22.5 -2.5
      vertex 32 22.5 2.5
    endloop
  endfacet
  facet normal 1 0 0
    outer loop
      vertex 32 22.5 -2.5
      vertex 32 7.5 2.5
      vertex 32 7.5 -2.5
    endloop
  endfacet
  facet normal -1 0 0
    outer loop
      vertex 35 7.5 -2.5
      vertex 35 22.5 2.5
      vertex 35 22.5 -2.5
    endloop
  endfacet
  facet normal -1 -0 0
    outer loop
      vertex 35 22.5 2.5
      vertex 35 7.5 -2.5
      vertex 35 7.5 2.5
    endloop
  endfacet
  facet normal 0 1 -0
    outer loop
      vertex 35 7.5 -2.5
      vertex 32 7.5 2.5
      vertex 35 7.5 2.5
    endloop
  endfacet
  facet normal 0 1 0
    outer loop
      vertex 32 7.5 2.5
      vertex 35 7.5 -2.5
      vertex 32 7.5 -2.5
    endloop
  endfacet
  facet normal 0 -1 0
    outer loop
      vertex 32 22.5 -2.5
      vertex 35 22.5 2.5
      vertex 32 22.5 2.5
    endloop
  endfacet
  facet normal 0 -1 -0
    outer loop
      vertex 35 22.5 2.5
      vertex 32 22.5 -2.5
      vertex 35 22.5 -2.5
    endloop
  endfacet
  facet normal 1 -0 0
    outer loop
      vertex -35 7.5 2.5
      vertex -35 22.5 -2.5
      vertex -35 22.5 2.5
    endloop
  endfacet
  facet normal 1 0 0
    outer loop
      vertex -35 22.5 -2.5
      vertex -35 7.5 2.5
      vertex -35 7.5 -2.5
    endloop
  endfacet
  facet normal -1 0 0
    outer loop
      vertex -32 7.5 -2.5
      vertex -32 22.5 2.5
      vertex -32 22.5 -2.5
    endloop
  endfacet
  facet normal -1 -0 0
    outer loop
      vertex -32 22.5 2.5
      vertex -32 7.5 -2.5
      vertex -32 7.5 2.5
    endloop
  endfacet
  facet normal 0 1 -0
    outer loop
      vertex -32 7.5 -2.5
      vertex -35 7.5 2.5
      vertex -32 7.5 2.5
    endloop
  endfacet
  facet normal 0 1 0
    outer loop
      vertex -35 7.5 2.5
      vertex -32 7.5 -2.5
      vertex -35 7.5 -2.5
    endloop
  endfacet
  facet normal 0 -1 0
    outer loop
      vertex -35 22.5 -2.5
      vertex -32 22.5 2.5
      vertex -35 22.5 2.5
    endloop
  endfacet
  facet normal 0 -1 -0
    outer loop
      vertex -32 22.5 2.5
      vertex -35 22.5 -2.5
      vertex -32 22.5 -2.5
    endloop
  endfacet
  facet normal 1 -0 0
    outer loop
      vertex 32 -22.5 2.5
      vertex 32 -7.5 -2.5
      vertex 32 -7.5 2.5
    endloop
  endfacet
  facet normal 1 0 0
    outer loop
      vertex 32 -7.5 -2.5
      vertex 32 -22.5 2.5
      vertex 32 -22.5 -2.5
    endloop
  endfacet
  facet normal -1 0 0
    outer loop
      vertex 35 -22.5 -2.5
      vertex 35 -7.5 2.5
      vertex 35 -7.5 -2.5
    endloop
  endfacet
  facet normal -1 -0 0
    outer loop
      vertex 35 -7.5 2.5
      vertex 35 -22.5 -2.5
      vertex 35 -22.5 2.5
    endloop
  endfacet
  facet normal 0 1 -0
    outer loop
      vertex 35 -22.5 -2.5
      vertex 32 -22.5 2.5
      vertex 35 -22.5 2.5
    endloop
  endfacet
  facet normal 0 1 0
    outer loop
      vertex 32 -22.5 2.5
      vertex 35 -22.5 -2.5
      vertex 32 -22.5 -2.5
    endloop
  endfacet
  facet normal 0 -1 0
    outer loop
      vertex 32 -7.5 -2.5
      vertex 35 -7.5 2.5
      vertex 32 -7.5 2.5
    endloop
  endfacet
  facet normal 0 -1 -0
    outer loop
      vertex 35 -7.5 2.5
      vertex 32 -7.5 -2.5
      vertex 35 -7.5 -2.5
    endloop
  endfacet
  facet normal 1 -0 0
    outer loop
      vertex -35 -22.5 2.5
      vertex -35 -7.5 -2.5
      vertex -35 -7.5 2.5
    endloop
  endfacet
  facet normal 1 0 0
    outer loop
      vertex -35 -7.5 -2.5
      vertex -35 -22.5 2.5
      vertex -35 -22.5 -2.5
    endloop
  endfacet
  facet normal -1 0 0
    outer loop
      vertex -32 -22.5 -2.5
      vertex -32 -7.5 2.5
      vertex -32 -7.5 -2.5
    endloop
  endfacet
  facet normal -1 -0 0
    outer loop
      vertex -32 -7.5 2.5
      vertex -32 -22.5 -2.5
      vertex -32 -22.5 2.5
    endloop
  endfacet
  facet normal 0 -1 0
    outer loop
      vertex -35 -7.5 -2.5
      vertex -32 -7.5 2.5
      vertex -35 -7.5 2.5
    endloop
  endfacet
  facet normal 0 -1 -0
    outer loop
      vertex -32 -7.5 2.5
      vertex -35 -7.5 -2.5
      vertex -32 -7.5 -2.5
    endloop
  endfacet
  facet normal 0 1 -0
    outer loop
      vertex -32 -22.5 -2.5
      vertex -35 -22.5 2.5
      vertex -32 -22.5 2.5
    endloop
  endfacet
  facet normal 0 1 0
    outer loop
      vertex -35 -22.5 2.5
      vertex -32 -22.5 -2.5
      vertex -35 -22.5 -2.5
    endloop
  endfacet
endsolid OpenSCAD_Model
