solid OpenSCAD_Model
  facet normal -1 0 0
    outer loop
      vertex -33.5 -33.5 -2.5
      vertex -33.5 -18.5 2.5
      vertex -33.5 -18.5 -2.5
    endloop
  endfacet
  facet normal -1 -0 0
    outer loop
      vertex -33.5 -18.5 2.5
      vertex -33.5 -33.5 -2.5
      vertex -33.5 -33.5 2.5
    endloop
  endfacet
  facet normal -1 0 0
    outer loop
      vertex -33.5 18.5 -2.5
      vertex -33.5 33.5 2.5
      vertex -33.5 33.5 -2.5
    endloop
  endfacet
  facet normal -1 -0 0
    outer loop
      vertex -33.5 33.5 2.5
      vertex -33.5 18.5 -2.5
      vertex -33.5 18.5 2.5
    endloop
  endfacet
  facet normal 0 0 1
    outer loop
      vertex 33.5 33.5 2.5
      vertex 29.5 18.5 2.5
      vertex 33.5 18.5 2.5
    endloop
  endfacet
  facet normal 0 0 1
    outer loop
      vertex 33.5 33.5 2.5
      vertex 18.5 29.5 2.5
      vertex 29.5 18.5 2.5
    endloop
  endfacet
  facet normal 0 0 1
    outer loop
      vertex 18.5 29.5 2.5
      vertex 33.5 33.5 2.5
      vertex 18.5 33.5 2.5
    endloop
  endfacet
  facet normal -0 0 1
    outer loop
      vertex 29.5 -18.5 2.5
      vertex 33.5 -33.5 2.5
      vertex 33.5 -18.5 2.5
    endloop
  endfacet
  facet normal 0 0 1
    outer loop
      vertex 29.5 18.5 2.5
      vertex 18.5 29.5 2.5
      vertex 29.5 -18.5 2.5
    endloop
  endfacet
  facet normal 0 0 1
    outer loop
      vertex 18.5 -29.5 2.5
      vertex 29.5 -18.5 2.5
      vertex 18.5 29.5 2.5
    endloop
  endfacet
  facet normal -0 0 1
    outer loop
      vertex 18.5 -29.5 2.5
      vertex 33.5 -33.5 2.5
      vertex 29.5 -18.5 2.5
    endloop
  endfacet
  facet normal 0 0 1
    outer loop
      vertex 33.5 -33.5 2.5
      vertex 18.5 -29.5 2.5
      vertex 18.5 -33.5 2.5
    endloop
  endfacet
  facet normal -0 0 1
    outer loop
      vertex -33.5 33.5 2.5
      vertex -18.5 29.5 2.5
      vertex -18.5 33.5 2.5
    endloop
  endfacet
  facet normal 0 0 1
    outer loop
      vertex -18.5 29.5 2.5
      vertex -29.5 18.5 2.5
      vertex -18.5 -29.5 2.5
    endloop
  endfacet
  facet normal -0 0 1
    outer loop
      vertex -29.5 -18.5 2.5
      vertex -18.5 -29.5 2.5
      vertex -29.5 18.5 2.5
    endloop
  endfacet
  facet normal 0 0 1
    outer loop
      vertex -18.5 29.5 2.5
      vertex -33.5 33.5 2.5
      vertex -29.5 18.5 2.5
    endloop
  endfacet
  facet normal 0 0 1
    outer loop
      vertex -29.5 18.5 2.5
      vertex -33.5 33.5 2.5
      vertex -33.5 18.5 2.5
    endloop
  endfacet
  facet normal -0 0 1
    outer loop
      vertex -18.5 29.5 2.5
      vertex 18.5 -29.5 2.5
      vertex 18.5 29.5 2.5
    endloop
  endfacet
  facet normal 0 0 1
    outer loop
      vertex 18.5 -29.5 2.5
      vertex -18.5 29.5 2.5
      vertex -18.5 -29.5 2.5
    endloop
  endfacet
  facet normal 0 0 1
    outer loop
      vertex -33.5 -33.5 2.5
      vertex -18.5 -29.5 2.5
      vertex -29.5 -18.5 2.5
    endloop
  endfacet
  facet normal 0 0 1
    outer loop
      vertex -33.5 -33.5 2.5
      vertex -29.5 -18.5 2.5
      vertex -33.5 -18.5 2.5
    endloop
  endfacet
  facet normal 0 0 1
    outer loop
      vertex -18.5 -29.5 2.5
      vertex -33.5 -33.5 2.5
      vertex -18.5 -33.5 2.5
    endloop
  endfacet
  facet normal 1 -0 0
    outer loop
      vertex 33.5 -33.5 2.5
      vertex 33.5 -18.5 -2.5
      vertex 33.5 -18.5 2.5
    endloop
  endfacet
  facet normal 1 0 0
    outer loop
      vertex 33.5 -18.5 -2.5
      vertex 33.5 -33.5 2.5
      vertex 33.5 -33.5 -2.5
    endloop
  endfacet
  facet normal 1 -0 0
    outer loop
      vertex 33.5 18.5 2.5
      vertex 33.5 33.5 -2.5
      vertex 33.5 33.5 2.5
    endloop
  endfacet
  facet normal 1 0 0
    outer loop
      vertex 33.5 33.5 -2.5
      vertex 33.5 18.5 2.5
      vertex 33.5 18.5 -2.5
    endloop
  endfacet
  facet normal 0 0 -1
    outer loop
      vertex 33.5 -33.5 -2.5
      vertex 29.5 -18.5 -2.5
      vertex 33.5 -18.5 -2.5
    endloop
  endfacet
  facet normal 0 0 -1
    outer loop
      vertex 33.5 -33.5 -2.5
      vertex 18.5 -29.5 -2.5
      vertex 29.5 -18.5 -2.5
    endloop
  endfacet
  facet normal 0 0 -1
    outer loop
      vertex 18.5 -29.5 -2.5
      vertex 33.5 -33.5 -2.5
      vertex 18.5 -33.5 -2.5
    endloop
  endfacet
  facet normal 0 0 -1
    outer loop
      vertex 29.5 18.5 -2.5
      vertex 33.5 33.5 -2.5
      vertex 33.5 18.5 -2.5
    endloop
  endfacet
  facet normal -0 0 -1
    outer loop
      vertex 29.5 -18.5 -2.5
      vertex 18.5 -29.5 -2.5
      vertex 29.5 18.5 -2.5
    endloop
  endfacet
  facet normal 0 0 -1
    outer loop
      vertex 18.5 29.5 -2.5
      vertex 29.5 18.5 -2.5
      vertex 18.5 -29.5 -2.5
    endloop
  endfacet
  facet normal 0 0 -1
    outer loop
      vertex 18.5 29.5 -2.5
      vertex 33.5 33.5 -2.5
      vertex 29.5 18.5 -2.5
    endloop
  endfacet
  facet normal -0 0 -1
    outer loop
      vertex 33.5 33.5 -2.5
      vertex 18.5 29.5 -2.5
      vertex 18.5 33.5 -2.5
    endloop
  endfacet
  facet normal 0 0 -1
    outer loop
      vertex -33.5 -33.5 -2.5
      vertex -18.5 -29.5 -2.5
      vertex -18.5 -33.5 -2.5
    endloop
  endfacet
  facet normal 0 0 -1
    outer loop
      vertex -18.5 -29.5 -2.5
      vertex -29.5 -18.5 -2.5
      vertex -18.5 29.5 -2.5
    endloop
  endfacet
  facet normal 0 0 -1
    outer loop
      vertex -29.5 18.5 -2.5
      vertex -18.5 29.5 -2.5
      vertex -29.5 -18.5 -2.5
    endloop
  endfacet
  facet normal -0 0 -1
    outer loop
      vertex -18.5 -29.5 -2.5
      vertex -33.5 -33.5 -2.5
      vertex -29.5 -18.5 -2.5
    endloop
  endfacet
  facet normal -0 0 -1
    outer loop
      vertex -29.5 -18.5 -2.5
      vertex -33.5 -33.5 -2.5
      vertex -33.5 -18.5 -2.5
    endloop
  endfacet
  facet normal 0 0 -1
    outer loop
      vertex -18.5 -29.5 -2.5
      vertex 18.5 29.5 -2.5
      vertex 18.5 -29.5 -2.5
    endloop
  endfacet
  facet normal -0 0 -1
    outer loop
      vertex 18.5 29.5 -2.5
      vertex -18.5 -29.5 -2.5
      vertex -18.5 29.5 -2.5
    endloop
  endfacet
  facet normal 0 0 -1
    outer loop
      vertex -33.5 33.5 -2.5
      vertex -18.5 29.5 -2.5
      vertex -29.5 18.5 -2.5
    endloop
  endfacet
  facet normal 0 0 -1
    outer loop
      vertex -33.5 33.5 -2.5
      vertex -29.5 18.5 -2.5
      vertex -33.5 18.5 -2.5
    endloop
  endfacet
  facet normal 0 0 -1
    outer loop
      vertex -18.5 29.5 -2.5
      vertex -33.5 33.5 -2.5
      vertex -18.5 33.5 -2.5
    endloop
  endfacet
  facet normal 0 -1 0
    outer loop
      vertex -33.5 -33.5 -2.5
      vertex -18.5 -33.5 2.5
      vertex -33.5 -33.5 2.5
    endloop
  endfacet
  facet normal 0 -1 -0
    outer loop
      vertex -18.5 -33.5 2.5
      vertex -33.5 -33.5 -2.5
      vertex -18.5 -33.5 -2.5
    endloop
  endfacet
  facet normal 0 -1 0
    outer loop
      vertex 18.5 -33.5 -2.5
      vertex 33.5 -33.5 2.5
      vertex 18.5 -33.5 2.5
    endloop
  endfacet
  facet normal 0 -1 -0
    outer loop
      vertex 33.5 -33.5 2.5
      vertex 18.5 -33.5 -2.5
      vertex 33.5 -33.5 -2.5
    endloop
  endfacet
  facet normal 0 1 -0
    outer loop
      vertex 33.5 33.5 -2.5
      vertex 18.5 33.5 2.5
      vertex 33.5 33.5 2.5
    endloop
  endfacet
  facet normal 0 1 0
    outer loop
      vertex 18.5 33.5 2.5
      vertex 33.5 33.5 -2.5
      vertex 18.5 33.5 -2.5
    endloop
  endfacet
  facet normal 0 1 -0
    outer loop
      vertex -18.5 33.5 -2.5
      vertex -33.5 33.5 2.5
      vertex -18.5 33.5 2.5
    endloop
  endfacet
  facet normal 0 1 0
    outer loop
      vertex -33.5 33.5 2.5
      vertex -18.5 33.5 -2.5
      vertex -33.5 33.5 -2.5
    endloop
  endfacet
  facet normal 1 -0 0
    outer loop
      vertex -18.5 29.5 2.5
      vertex -18.5 33.5 -2.5
      vertex -18.5 33.5 2.5
    endloop
  endfacet
  facet normal 1 0 0
    outer loop
      vertex -18.5 33.5 -2.5
      vertex -18.5 29.5 2.5
      vertex -18.5 29.5 -2.5
    endloop
  endfacet
  facet normal -1 0 0
    outer loop
      vertex 18.5 29.5 -2.5
      vertex 18.5 33.5 2.5
      vertex 18.5 33.5 -2.5
    endloop
  endfacet
  facet normal -1 -0 0
    outer loop
      vertex 18.5 33.5 2.5
      vertex 18.5 29.5 -2.5
      vertex 18.5 29.5 2.5
    endloop
  endfacet
  facet normal 0 1 -0
    outer loop
      vertex 18.5 29.5 -2.5
      vertex -18.5 29.5 2.5
      vertex 18.5 29.5 2.5
    endloop
  endfacet
  facet normal 0 1 0
    outer loop
      vertex -18.5 29.5 2.5
      vertex 18.5 29.5 -2.5
      vertex -18.5 29.5 -2.5
    endloop
  endfacet
  facet normal 1 -0 0
    outer loop
      vertex -18.5 -33.5 2.5
      vertex -18.5 -29.5 -2.5
      vertex -18.5 -29.5 2.5
    endloop
  endfacet
  facet normal 1 0 0
    outer loop
      vertex -18.5 -29.5 -2.5
      vertex -18.5 -33.5 2.5
      vertex -18.5 -33.5 -2.5
    endloop
  endfacet
  facet normal -1 0 0
    outer loop
      vertex 18.5 -33.5 -2.5
      vertex 18.5 -29.5 2.5
      vertex 18.5 -29.5 -2.5
    endloop
  endfacet
  facet normal -1 -0 0
    outer loop
      vertex 18.5 -29.5 2.5
      vertex 18.5 -33.5 -2.5
      vertex 18.5 -33.5 2.5
    endloop
  endfacet
  facet normal 0 -1 0
    outer loop
      vertex -18.5 -29.5 -2.5
      vertex 18.5 -29.5 2.5
      vertex -18.5 -29.5 2.5
    endloop
  endfacet
  facet normal 0 -1 -0
    outer loop
      vertex 18.5 -29.5 2.5
      vertex -18.5 -29.5 -2.5
      vertex 18.5 -29.5 -2.5
    endloop
  endfacet
  facet normal 1 -0 0
    outer loop
      vertex 29.5 -18.5 2.5
      vertex 29.5 18.5 -2.5
      vertex 29.5 18.5 2.5
    endloop
  endfacet
  facet normal 1 0 0
    outer loop
      vertex 29.5 18.5 -2.5
      vertex 29.5 -18.5 2.5
      vertex 29.5 -18.5 -2.5
    endloop
  endfacet
  facet normal 0 -1 0
    outer loop
      vertex 29.5 18.5 -2.5
      vertex 33.5 18.5 2.5
      vertex 29.5 18.5 2.5
    endloop
  endfacet
  facet normal 0 -1 -0
    outer loop
      vertex 33.5 18.5 2.5
      vertex 29.5 18.5 -2.5
      vertex 33.5 18.5 -2.5
    endloop
  endfacet
  facet normal 0 1 -0
    outer loop
      vertex 33.5 -18.5 -2.5
      vertex 29.5 -18.5 2.5
      vertex 33.5 -18.5 2.5
    endloop
  endfacet
  facet normal 0 1 0
    outer loop
      vertex 29.5 -18.5 2.5
      vertex 33.5 -18.5 -2.5
      vertex 29.5 -18.5 -2.5
    endloop
  endfacet
  facet normal -1 0 0
    outer loop
      vertex -29.5 -18.5 -2.5
      vertex -29.5 18.5 2.5
      vertex -29.5 18.5 -2.5
    endloop
  endfacet
  facet normal -1 -0 0
    outer loop
      vertex -29.5 18.5 2.5
      vertex -29.5 -18.5 -2.5
      vertex -29.5 -18.5 2.5
    endloop
  endfacet
  facet normal 0 -1 0
    outer loop
      vertex -33.5 18.5 -2.5
      vertex -29.5 18.5 2.5
      vertex -33.5 18.5 2.5
    endloop
  endfacet
  facet normal 0 -1 -0
    outer loop
      vertex -29.5 18.5 2.5
      vertex -33.5 18.5 -2.5
      vertex -29.5 18.5 -2.5
    endloop
  endfacet
  facet normal 0 1 -0
    outer loop
      vertex -29.5 -18.5 -2.5
      vertex -33.5 -18.5 2.5
      vertex -29.5 -18.5 2.5
    endloop
  endfacet
  facet normal 0 1 0
    outer loop
      vertex -33.5 -18.5 2.5
      vertex -29.5 -18.5 -2.5
      vertex -33.5 -18.5 -2.5
    endloop
  endfacet
endsolid OpenSCAD_Model
