solid OpenSCAD_Model
  facet normal -1 0 0
    outer loop
      vertex -37 -37 -2.5
      vertex -37 -19.5 2.5
      vertex -37 -19.5 -2.5
    endloop
  endfacet
  facet normal -1 -0 0
    outer loop
      vertex -37 -19.5 2.5
      vertex -37 -37 -2.5
      vertex -37 -37 2.5
    endloop
  endfacet
  facet normal -1 0 0
    outer loop
      vertex -37 19.5 -2.5
      vertex -37 37 2.5
      vertex -37 37 -2.5
    endloop
  endfacet
  facet normal -1 -0 0
    outer loop
      vertex -37 37 2.5
      vertex -37 19.5 -2.5
      vertex -37 19.5 2.5
    endloop
  endfacet
  facet normal 0 0 1
    outer loop
      vertex 37 37 2.5
      vertex 33 19.5 2.5
      vertex 37 19.5 2.5
    endloop
  endfacet
  facet normal 0 0 1
    outer loop
      vertex 37 37 2.5
      vertex 19.5 33 2.5
      vertex 33 19.5 2.5
    endloop
  endfacet
  facet normal 0 0 1
    outer loop
      vertex 19.5 33 2.5
      vertex 37 37 2.5
      vertex 19.5 37 2.5
    endloop
  endfacet
  facet normal -0 0 1
    outer loop
      vertex 33 -19.5 2.5
      vertex 37 -37 2.5
      vertex 37 -19.5 2.5
    endloop
  endfacet
  facet normal 0 0 1
    outer loop
      vertex 33 19.5 2.5
      vertex 19.5 33 2.5
      vertex 33 -19.5 2.5
    endloop
  endfacet
  facet normal 0 0 1
    outer loop
      vertex 19.5 -33 2.5
      vertex 33 -19.5 2.5
      vertex 19.5 33 2.5
    endloop
  endfacet
  facet normal 0 0 1
    outer loop
      vertex 33 -19.5 2.5
      vertex 19.5 -33 2.5
      vertex 37 -37 2.5
    endloop
  endfacet
  facet normal 0 0 1
    outer loop
      vertex 37 -37 2.5
      vertex 19.5 -33 2.5
      vertex 19.5 -37 2.5
    endloop
  endfacet
  facet normal -0 0 1
    outer loop
      vertex -37 37 2.5
      vertex -19.5 33 2.5
      vertex -19.5 37 2.5
    endloop
  endfacet
  facet normal 0 0 1
    outer loop
      vertex -19.5 33 2.5
      vertex -33 19.5 2.5
      vertex -19.5 -33 2.5
    endloop
  endfacet
  facet normal -0 0 1
    outer loop
      vertex -33 -19.5 2.5
      vertex -19.5 -33 2.5
      vertex -33 19.5 2.5
    endloop
  endfacet
  facet normal 0 0 1
    outer loop
      vertex -19.5 33 2.5
      vertex -37 37 2.5
      vertex -33 19.5 2.5
    endloop
  endfacet
  facet normal 0 0 1
    outer loop
      vertex -33 19.5 2.5
      vertex -37 37 2.5
      vertex -37 19.5 2.5
    endloop
  endfacet
  facet normal -0 0 1
    outer loop
      vertex -19.5 33 2.5
      vertex 19.5 -33 2.5
      vertex 19.5 33 2.5
    endloop
  endfacet
  facet normal 0 0 1
    outer loop
      vertex 19.5 -33 2.5
      vertex -19.5 33 2.5
      vertex -19.5 -33 2.5
    endloop
  endfacet
  facet normal 0 0 1
    outer loop
      vertex -37 -37 2.5
      vertex -19.5 -33 2.5
      vertex -33 -19.5 2.5
    endloop
  endfacet
  facet normal 0 0 1
    outer loop
      vertex -37 -37 2.5
      vertex -33 -19.5 2.5
      vertex -37 -19.5 2.5
    endloop
  endfacet
  facet normal 0 0 1
    outer loop
      vertex -19.5 -33 2.5
      vertex -37 -37 2.5
      vertex -19.5 -37 2.5
    endloop
  endfacet
  facet normal 1 -0 0
    outer loop
      vertex 37 -37 2.5
      vertex 37 -19.5 -2.5
      vertex 37 -19.5 2.5
    endloop
  endfacet
  facet normal 1 0 0
    outer loop
      vertex 37 -19.5 -2.5
      vertex 37 -37 2.5
      vertex 37 -37 -2.5
    endloop
  endfacet
  facet normal 1 -0 0
    outer loop
      vertex 37 19.5 2.5
      vertex 37 37 -2.5
      vertex 37 37 2.5
    endloop
  endfacet
  facet normal 1 0 0
    outer loop
      vertex 37 37 -2.5
      vertex 37 19.5 2.5
      vertex 37 19.5 -2.5
    endloop
  endfacet
  facet normal 0 0 -1
    outer loop
      vertex 37 -37 -2.5
      vertex 33 -19.5 -2.5
      vertex 37 -19.5 -2.5
    endloop
  endfacet
  facet normal 0 0 -1
    outer loop
      vertex 37 -37 -2.5
      vertex 19.5 -33 -2.5
      vertex 33 -19.5 -2.5
    endloop
  endfacet
  facet normal 0 0 -1
    outer loop
      vertex 19.5 -33 -2.5
      vertex 37 -37 -2.5
      vertex 19.5 -37 -2.5
    endloop
  endfacet
  facet normal 0 0 -1
    outer loop
      vertex 33 19.5 -2.5
      vertex 37 37 -2.5
      vertex 37 19.5 -2.5
    endloop
  endfacet
  facet normal -0 0 -1
    outer loop
      vertex 33 -19.5 -2.5
      vertex 19.5 -33 -2.5
      vertex 33 19.5 -2.5
    endloop
  endfacet
  facet normal 0 0 -1
    outer loop
      vertex 19.5 33 -2.5
      vertex 33 19.5 -2.5
      vertex 19.5 -33 -2.5
    endloop
  endfacet
  facet normal 0 0 -1
    outer loop
      vertex 33 19.5 -2.5
      vertex 19.5 33 -2.5
      vertex 37 37 -2.5
    endloop
  endfacet
  facet normal -0 0 -1
    outer loop
      vertex 37 37 -2.5
      vertex 19.5 33 -2.5
      vertex 19.5 37 -2.5
    endloop
  endfacet
  facet normal 0 0 -1
    outer loop
      vertex -37 -37 -2.5
      vertex -19.5 -33 -2.5
      vertex -19.5 -37 -2.5
    endloop
  endfacet
  facet normal 0 0 -1
    outer loop
      vertex -19.5 -33 -2.5
      vertex -33 -19.5 -2.5
      vertex -19.5 33 -2.5
    endloop
  endfacet
  facet normal 0 0 -1
    outer loop
      vertex -33 19.5 -2.5
      vertex -19.5 33 -2.5
      vertex -33 -19.5 -2.5
    endloop
  endfacet
  facet normal -0 0 -1
    outer loop
      vertex -19.5 -33 -2.5
      vertex -37 -37 -2.5
      vertex -33 -19.5 -2.5
    endloop
  endfacet
  facet normal -0 0 -1
    outer loop
      vertex -33 -19.5 -2.5
      vertex -37 -37 -2.5
      vertex -37 -19.5 -2.5
    endloop
  endfacet
  facet normal 0 0 -1
    outer loop
      vertex -19.5 -33 -2.5
      vertex 19.5 33 -2.5
      vertex 19.5 -33 -2.5
    endloop
  endfacet
  facet normal -0 0 -1
    outer loop
      vertex 19.5 33 -2.5
      vertex -19.5 -33 -2.5
      vertex -19.5 33 -2.5
    endloop
  endfacet
  facet normal 0 0 -1
    outer loop
      vertex -37 37 -2.5
      vertex -19.5 33 -2.5
      vertex -33 19.5 -2.5
    endloop
  endfacet
  facet normal 0 0 -1
    outer loop
      vertex -37 37 -2.5
      vertex -33 19.5 -2.5
      vertex -37 19.5 -2.5
    endloop
  endfacet
  facet normal 0 0 -1
    outer loop
      vertex -19.5 33 -2.5
      vertex -37 37 -2.5
      vertex -19.5 37 -2.5
    endloop
  endfacet
  facet normal 0 -1 0
    outer loop
      vertex -37 -37 -2.5
      vertex -19.5 -37 2.5
      vertex -37 -37 2.5
    endloop
  endfacet
  facet normal 0 -1 -0
    outer loop
      vertex -19.5 -37 2.5
      vertex -37 -37 -2.5
      vertex -19.5 -37 -2.5
    endloop
  endfacet
  facet normal 0 -1 0
    outer loop
      vertex 19.5 -37 -2.5
      vertex 37 -37 2.5
      vertex 19.5 -37 2.5
    endloop
  endfacet
  facet normal 0 -1 -0
    outer loop
      vertex 37 -37 2.5
      vertex 19.5 -37 -2.5
      vertex 37 -37 -2.5
    endloop
  endfacet
  facet normal 0 1 -0
    outer loop
      vertex 37 37 -2.5
      vertex 19.5 37 2.5
      vertex 37 37 2.5
    endloop
  endfacet
  facet normal 0 1 0
    outer loop
      vertex 19.5 37 2.5
      vertex 37 37 -2.5
      vertex 19.5 37 -2.5
    endloop
  endfacet
  facet normal 0 1 -0
    outer loop
      vertex -19.5 37 -2.5
      vertex -37 37 2.5
      vertex -19.5 37 2.5
    endloop
  endfacet
  facet normal 0 1 0
    outer loop
      vertex -37 37 2.5
      vertex -19.5 37 -2.5
      vertex -37 37 -2.5
    endloop
  endfacet
  facet normal 1 -0 0
    outer loop
      vertex -19.5 33 2.5
      vertex -19.5 37 -2.5
      vertex -19.5 37 2.5
    endloop
  endfacet
  facet normal 1 0 0
    outer loop
      vertex -19.5 37 -2.5
      vertex -19.5 33 2.5
      vertex -19.5 33 -2.5
    endloop
  endfacet
  facet normal -1 0 0
    outer loop
      vertex 19.5 33 -2.5
      vertex 19.5 37 2.5
      vertex 19.5 37 -2.5
    endloop
  endfacet
  facet normal -1 -0 0
    outer loop
      vertex 19.5 37 2.5
      vertex 19.5 33 -2.5
      vertex 19.5 33 2.5
    endloop
  endfacet
  facet normal 0 1 -0
    outer loop
      vertex 19.5 33 -2.5
      vertex -19.5 33 2.5
      vertex 19.5 33 2.5
    endloop
  endfacet
  facet normal 0 1 0
    outer loop
      vertex -19.5 33 2.5
      vertex 19.5 33 -2.5
      vertex -19.5 33 -2.5
    endloop
  endfacet
  facet normal 1 -0 0
    outer loop
      vertex -19.5 -37 2.5
      vertex -19.5 -33 -2.5
      vertex -19.5 -33 2.5
    endloop
  endfacet
  facet normal 1 0 0
    outer loop
      vertex -19.5 -33 -2.5
      vertex -19.5 -37 2.5
      vertex -19.5 -37 -2.5
    endloop
  endfacet
  facet normal -1 0 0
    outer loop
      vertex 19.5 -37 -2.5
      vertex 19.5 -33 2.5
      vertex 19.5 -33 -2.5
    endloop
  endfacet
  facet normal -1 -0 0
    outer loop
      vertex 19.5 -33 2.5
      vertex 19.5 -37 -2.5
      vertex 19.5 -37 2.5
    endloop
  endfacet
  facet normal 0 -1 0
    outer loop
      vertex -19.5 -33 -2.5
      vertex 19.5 -33 2.5
      vertex -19.5 -33 2.5
    endloop
  endfacet
  facet normal 0 -1 -0
    outer loop
      vertex 19.5 -33 2.5
      vertex -19.5 -33 -2.5
      vertex 19.5 -33 -2.5
    endloop
  endfacet
  facet normal 1 -0 0
    outer loop
      vertex 33 -19.5 2.5
      vertex 33 19.5 -2.5
      vertex 33 19.5 2.5
    endloop
  endfacet
  facet normal 1 0 0
    outer loop
      vertex 33 19.5 -2.5
      vertex 33 -19.5 2.5
      vertex 33 -19.5 -2.5
    endloop
  endfacet
  facet normal 0 -1 0
    outer loop
      vertex 33 19.5 -2.5
      vertex 37 19.5 2.5
      vertex 33 19.5 2.5
    endloop
  endfacet
  facet normal 0 -1 -0
    outer loop
      vertex 37 19.5 2.5
      vertex 33 19.5 -2.5
      vertex 37 19.5 -2.5
    endloop
  endfacet
  facet normal 0 1 -0
    outer loop
      vertex 37 -19.5 -2.5
      vertex 33 -19.5 2.5
      vertex 37 -19.5 2.5
    endloop
  endfacet
  facet normal 0 1 0
    outer loop
      vertex 33 -19.5 2.5
      vertex 37 -19.5 -2.5
      vertex 33 -19.5 -2.5
    endloop
  endfacet
  facet normal -1 0 0
    outer loop
      vertex -33 -19.5 -2.5
      vertex -33 19.5 2.5
      vertex -33 19.5 -2.5
    endloop
  endfacet
  facet normal -1 -0 0
    outer loop
      vertex -33 19.5 2.5
      vertex -33 -19.5 -2.5
      vertex -33 -19.5 2.5
    endloop
  endfacet
  facet normal 0 -1 0
    outer loop
      vertex -37 19.5 -2.5
      vertex -33 19.5 2.5
      vertex -37 19.5 2.5
    endloop
  endfacet
  facet normal 0 -1 -0
    outer loop
      vertex -33 19.5 2.5
      vertex -37 19.5 -2.5
      vertex -33 19.5 -2.5
    endloop
  endfacet
  facet normal 0 1 -0
    outer loop
      vertex -33 -19.5 -2.5
      vertex -37 -19.5 2.5
      vertex -33 -19.5 2.5
    endloop
  endfacet
  facet normal 0 1 0
    outer loop
      vertex -37 -19.5 2.5
      vertex -33 -19.5 -2.5
      vertex -37 -19.5 -2.5
    endloop
  endfacet
endsolid OpenSCAD_Model
