solid OpenSCAD_Model
  facet normal -1 0 0
    outer loop
      vertex -36 36 -2.5
      vertex -36 26 2.5
      vertex -36 36 7.5
    endloop
  endfacet
  facet normal -1 0 0
    outer loop
      vertex -36 36 -2.5
      vertex -36 -26 2.5
      vertex -36 26 2.5
    endloop
  endfacet
  facet normal -1 0 0
    outer loop
      vertex -36 -36 -2.5
      vertex -36 -26 2.5
      vertex -36 36 -2.5
    endloop
  endfacet
  facet normal -1 0 0
    outer loop
      vertex -36 -36 7.5
      vertex -36 -26 2.5
      vertex -36 -36 -2.5
    endloop
  endfacet
  facet normal -1 0 0
    outer loop
      vertex -36 -26 2.5
      vertex -36 -36 7.5
      vertex -36 -26 7.5
    endloop
  endfacet
  facet normal -1 -0 0
    outer loop
      vertex -36 36 7.5
      vertex -36 26 2.5
      vertex -36 26 7.5
    endloop
  endfacet
  facet normal 0 0 1
    outer loop
      vertex -36 -26 2.5
      vertex -33.5 23.8077 2.5
      vertex -36 26 2.5
    endloop
  endfacet
  facet normal 0 0 1
    outer loop
      vertex -33.5 23.8077 2.5
      vertex -36 -26 2.5
      vertex -34 -26 2.5
    endloop
  endfacet
  facet normal 0 0 1
    outer loop
      vertex 25 36 2.5
      vertex 15 33.5 2.5
      vertex 25 34 2.5
    endloop
  endfacet
  facet normal 0 0 1
    outer loop
      vertex 15 33.5 2.5
      vertex -15 33.5 2.5
      vertex 15 28.5 2.5
    endloop
  endfacet
  facet normal 0 0 1
    outer loop
      vertex 25 36 2.5
      vertex -15 33.5 2.5
      vertex 15 33.5 2.5
    endloop
  endfacet
  facet normal -0 0 1
    outer loop
      vertex -25 36 2.5
      vertex -15 33.5 2.5
      vertex 25 36 2.5
    endloop
  endfacet
  facet normal -0 0 1
    outer loop
      vertex -25 34 2.5
      vertex -15 33.5 2.5
      vertex -25 36 2.5
    endloop
  endfacet
  facet normal 0 0 1
    outer loop
      vertex -25 34 2.5
      vertex -33.5 33.5 2.5
      vertex -15 33.5 2.5
    endloop
  endfacet
  facet normal 0 0 1
    outer loop
      vertex -34 34 2.5
      vertex -33.5 28.5 2.5
      vertex -33.5 33.5 2.5
    endloop
  endfacet
  facet normal 0 0 1
    outer loop
      vertex -33.5 28.5 2.5
      vertex -34 26 2.5
      vertex -33.5 23.8077 2.5
    endloop
  endfacet
  facet normal -0 0 1
    outer loop
      vertex -36 26 2.5
      vertex -33.5 23.8077 2.5
      vertex -34 26 2.5
    endloop
  endfacet
  facet normal 0 0 1
    outer loop
      vertex -33.5 28.5 2.5
      vertex -34 34 2.5
      vertex -34 26 2.5
    endloop
  endfacet
  facet normal -0 0 1
    outer loop
      vertex -34 34 2.5
      vertex -33.5 33.5 2.5
      vertex -25 34 2.5
    endloop
  endfacet
  facet normal -0 0 1
    outer loop
      vertex 33.5 28.5 2.5
      vertex 34 26 2.5
      vertex 34 34 2.5
    endloop
  endfacet
  facet normal 0 0 1
    outer loop
      vertex 34 26 2.5
      vertex 33.5 23.8077 2.5
      vertex 34 -26 2.5
    endloop
  endfacet
  facet normal 0 0 1
    outer loop
      vertex 33.5 28.5 2.5
      vertex 34 34 2.5
      vertex 33.5 33.5 2.5
    endloop
  endfacet
  facet normal -0 0 1
    outer loop
      vertex 25 34 2.5
      vertex 33.5 33.5 2.5
      vertex 34 34 2.5
    endloop
  endfacet
  facet normal 0 0 1
    outer loop
      vertex 33.5 33.5 2.5
      vertex 25 34 2.5
      vertex 15 33.5 2.5
    endloop
  endfacet
  facet normal -0 0 1
    outer loop
      vertex 34 26 2.5
      vertex 36 -26 2.5
      vertex 36 26 2.5
    endloop
  endfacet
  facet normal 0 0 1
    outer loop
      vertex 36 -26 2.5
      vertex 34 26 2.5
      vertex 34 -26 2.5
    endloop
  endfacet
  facet normal 0 0 1
    outer loop
      vertex 34 26 2.5
      vertex 33.5 28.5 2.5
      vertex 33.5 23.8077 2.5
    endloop
  endfacet
  facet normal 0 0 1
    outer loop
      vertex 33.5 -28.5 2.5
      vertex 34 -26 2.5
      vertex 33.5 23.8077 2.5
    endloop
  endfacet
  facet normal 0 0 1
    outer loop
      vertex 34 -26 2.5
      vertex 33.5 -28.5 2.5
      vertex 34 -34 2.5
    endloop
  endfacet
  facet normal -0 0 1
    outer loop
      vertex 33.5 -33.5 2.5
      vertex 34 -34 2.5
      vertex 33.5 -28.5 2.5
    endloop
  endfacet
  facet normal -0 0 1
    outer loop
      vertex 28.5 -33.5 2.5
      vertex 34 -34 2.5
      vertex 33.5 -33.5 2.5
    endloop
  endfacet
  facet normal 0 0 1
    outer loop
      vertex 28.5 -33.5 2.5
      vertex 26 -34 2.5
      vertex 34 -34 2.5
    endloop
  endfacet
  facet normal 0 0 1
    outer loop
      vertex 26 -34 2.5
      vertex -26 -34 2.5
      vertex 26 -36 2.5
    endloop
  endfacet
  facet normal 0 0 1
    outer loop
      vertex 28.5 -33.5 2.5
      vertex -26 -34 2.5
      vertex 26 -34 2.5
    endloop
  endfacet
  facet normal -0 0 1
    outer loop
      vertex -33.5 -33.5 2.5
      vertex -26 -34 2.5
      vertex 28.5 -33.5 2.5
    endloop
  endfacet
  facet normal 0 0 1
    outer loop
      vertex -33.5 23.8077 2.5
      vertex -34 -26 2.5
      vertex -33.5 -28.5 2.5
    endloop
  endfacet
  facet normal 0 0 1
    outer loop
      vertex -34 -34 2.5
      vertex -33.5 -28.5 2.5
      vertex -34 -26 2.5
    endloop
  endfacet
  facet normal 0 0 1
    outer loop
      vertex -33.5 -33.5 2.5
      vertex -34 -34 2.5
      vertex -26 -34 2.5
    endloop
  endfacet
  facet normal 0 0 1
    outer loop
      vertex -33.5 -28.5 2.5
      vertex -34 -34 2.5
      vertex -33.5 -33.5 2.5
    endloop
  endfacet
  facet normal -0 0 1
    outer loop
      vertex 15 28.5 2.5
      vertex 28.5 23.8077 2.5
      vertex 28.5 28.5 2.5
    endloop
  endfacet
  facet normal 0 0 1
    outer loop
      vertex 28.5 23.8077 2.5
      vertex 15 28.5 2.5
      vertex 28.5 -28.5 2.5
    endloop
  endfacet
  facet normal 0 0 1
    outer loop
      vertex -15 28.5 2.5
      vertex 15 28.5 2.5
      vertex -15 33.5 2.5
    endloop
  endfacet
  facet normal 0 0 1
    outer loop
      vertex 15 28.5 2.5
      vertex -15 28.5 2.5
      vertex 28.5 -28.5 2.5
    endloop
  endfacet
  facet normal 0 0 1
    outer loop
      vertex -28.5 23.8077 2.5
      vertex -15 28.5 2.5
      vertex -28.5 28.5 2.5
    endloop
  endfacet
  facet normal 0 0 1
    outer loop
      vertex -28.5 -28.5 2.5
      vertex -15 28.5 2.5
      vertex -28.5 23.8077 2.5
    endloop
  endfacet
  facet normal 0 0 1
    outer loop
      vertex -15 28.5 2.5
      vertex -28.5 -28.5 2.5
      vertex 28.5 -28.5 2.5
    endloop
  endfacet
  facet normal 0 0 1
    outer loop
      vertex 26 -36 2.5
      vertex -26 -34 2.5
      vertex -26 -36 2.5
    endloop
  endfacet
  facet normal 1 0 0
    outer loop
      vertex 36 -26 7.5
      vertex 36 -36 7.5
      vertex 36 -26 2.5
    endloop
  endfacet
  facet normal 1 0 0
    outer loop
      vertex 36 26 2.5
      vertex 36 36 7.5
      vertex 36 26 7.5
    endloop
  endfacet
  facet normal 1 0 0
    outer loop
      vertex 36 36 7.5
      vertex 36 26 2.5
      vertex 36 36 -2.5
    endloop
  endfacet
  facet normal 1 -0 0
    outer loop
      vertex 36 -26 2.5
      vertex 36 36 -2.5
      vertex 36 26 2.5
    endloop
  endfacet
  facet normal 1 0 0
    outer loop
      vertex 36 -26 2.5
      vertex 36 -36 -2.5
      vertex 36 36 -2.5
    endloop
  endfacet
  facet normal 1 0 0
    outer loop
      vertex 36 -36 -2.5
      vertex 36 -26 2.5
      vertex 36 -36 7.5
    endloop
  endfacet
  facet normal 0 0 -1
    outer loop
      vertex -36 -36 -2.5
      vertex 36 36 -2.5
      vertex 36 -36 -2.5
    endloop
  endfacet
  facet normal -0 0 -1
    outer loop
      vertex 36 36 -2.5
      vertex -36 -36 -2.5
      vertex -36 36 -2.5
    endloop
  endfacet
  facet normal 0 -1 0
    outer loop
      vertex -36 -36 7.5
      vertex -26 -36 2.5
      vertex -26 -36 7.5
    endloop
  endfacet
  facet normal 0 -1 -0
    outer loop
      vertex -26 -36 2.5
      vertex -36 -36 -2.5
      vertex 26 -36 2.5
    endloop
  endfacet
  facet normal 0 -1 0
    outer loop
      vertex -36 -36 -2.5
      vertex -26 -36 2.5
      vertex -36 -36 7.5
    endloop
  endfacet
  facet normal 0 -1 0
    outer loop
      vertex 26 -36 2.5
      vertex 36 -36 7.5
      vertex 26 -36 7.5
    endloop
  endfacet
  facet normal 0 -1 0
    outer loop
      vertex 26 -36 2.5
      vertex 36 -36 -2.5
      vertex 36 -36 7.5
    endloop
  endfacet
  facet normal 0 -1 0
    outer loop
      vertex 36 -36 -2.5
      vertex 26 -36 2.5
      vertex -36 -36 -2.5
    endloop
  endfacet
  facet normal 0 1 0
    outer loop
      vertex 36 36 7.5
      vertex 25 36 2.5
      vertex 25 36 7.5
    endloop
  endfacet
  facet normal 0 1 0
    outer loop
      vertex 25 36 2.5
      vertex 36 36 -2.5
      vertex -25 36 2.5
    endloop
  endfacet
  facet normal 0 1 -0
    outer loop
      vertex 36 36 -2.5
      vertex 25 36 2.5
      vertex 36 36 7.5
    endloop
  endfacet
  facet normal 0 1 -0
    outer loop
      vertex -25 36 2.5
      vertex -36 36 7.5
      vertex -25 36 7.5
    endloop
  endfacet
  facet normal 0 1 0
    outer loop
      vertex -25 36 2.5
      vertex -36 36 -2.5
      vertex -36 36 7.5
    endloop
  endfacet
  facet normal 0 1 0
    outer loop
      vertex -36 36 -2.5
      vertex -25 36 2.5
      vertex 36 36 -2.5
    endloop
  endfacet
  facet normal -1 0 0
    outer loop
      vertex 34 26 2.5
      vertex 34 34 7.5
      vertex 34 34 2.5
    endloop
  endfacet
  facet normal -1 -0 0
    outer loop
      vertex 34 34 7.5
      vertex 34 26 2.5
      vertex 34 26 7.5
    endloop
  endfacet
  facet normal 0 0 1
    outer loop
      vertex 36 36 7.5
      vertex 34 34 7.5
      vertex 36 26 7.5
    endloop
  endfacet
  facet normal -0 0 1
    outer loop
      vertex 25 36 7.5
      vertex 34 34 7.5
      vertex 36 36 7.5
    endloop
  endfacet
  facet normal 0 0 1
    outer loop
      vertex 34 34 7.5
      vertex 25 36 7.5
      vertex 25 34 7.5
    endloop
  endfacet
  facet normal 0 0 1
    outer loop
      vertex 36 26 7.5
      vertex 34 34 7.5
      vertex 34 26 7.5
    endloop
  endfacet
  facet normal 0 -1 0
    outer loop
      vertex 34 26 2.5
      vertex 36 26 7.5
      vertex 34 26 7.5
    endloop
  endfacet
  facet normal 0 -1 -0
    outer loop
      vertex 36 26 7.5
      vertex 34 26 2.5
      vertex 36 26 2.5
    endloop
  endfacet
  facet normal -1 0 0
    outer loop
      vertex 25 34 2.5
      vertex 25 36 7.5
      vertex 25 36 2.5
    endloop
  endfacet
  facet normal -1 -0 0
    outer loop
      vertex 25 36 7.5
      vertex 25 34 2.5
      vertex 25 34 7.5
    endloop
  endfacet
  facet normal 0 -1 0
    outer loop
      vertex 25 34 2.5
      vertex 34 34 7.5
      vertex 25 34 7.5
    endloop
  endfacet
  facet normal 0 -1 -0
    outer loop
      vertex 34 34 7.5
      vertex 25 34 2.5
      vertex 34 34 2.5
    endloop
  endfacet
  facet normal -1 0 0
    outer loop
      vertex 34 -34 2.5
      vertex 34 -26 7.5
      vertex 34 -26 2.5
    endloop
  endfacet
  facet normal -1 -0 0
    outer loop
      vertex 34 -26 7.5
      vertex 34 -34 2.5
      vertex 34 -34 7.5
    endloop
  endfacet
  facet normal 0 0 1
    outer loop
      vertex 34 -34 7.5
      vertex 36 -26 7.5
      vertex 34 -26 7.5
    endloop
  endfacet
  facet normal 0 0 1
    outer loop
      vertex 36 -26 7.5
      vertex 34 -34 7.5
      vertex 36 -36 7.5
    endloop
  endfacet
  facet normal 0 0 1
    outer loop
      vertex 26 -36 7.5
      vertex 34 -34 7.5
      vertex 26 -34 7.5
    endloop
  endfacet
  facet normal 0 0 1
    outer loop
      vertex 34 -34 7.5
      vertex 26 -36 7.5
      vertex 36 -36 7.5
    endloop
  endfacet
  facet normal 0 1 -0
    outer loop
      vertex 36 -26 2.5
      vertex 34 -26 7.5
      vertex 36 -26 7.5
    endloop
  endfacet
  facet normal 0 1 0
    outer loop
      vertex 34 -26 7.5
      vertex 36 -26 2.5
      vertex 34 -26 2.5
    endloop
  endfacet
  facet normal 0 1 -0
    outer loop
      vertex 34 -34 2.5
      vertex 26 -34 7.5
      vertex 34 -34 7.5
    endloop
  endfacet
  facet normal 0 1 0
    outer loop
      vertex 26 -34 7.5
      vertex 34 -34 2.5
      vertex 26 -34 2.5
    endloop
  endfacet
  facet normal -1 0 0
    outer loop
      vertex 26 -36 2.5
      vertex 26 -34 7.5
      vertex 26 -34 2.5
    endloop
  endfacet
  facet normal -1 -0 0
    outer loop
      vertex 26 -34 7.5
      vertex 26 -36 2.5
      vertex 26 -36 7.5
    endloop
  endfacet
  facet normal 0 0 1
    outer loop
      vertex -25 36 7.5
      vertex -34 34 7.5
      vertex -25 34 7.5
    endloop
  endfacet
  facet normal -0 0 1
    outer loop
      vertex -36 36 7.5
      vertex -34 34 7.5
      vertex -25 36 7.5
    endloop
  endfacet
  facet normal 0 0 1
    outer loop
      vertex -36 26 7.5
      vertex -34 34 7.5
      vertex -36 36 7.5
    endloop
  endfacet
  facet normal 0 0 1
    outer loop
      vertex -34 34 7.5
      vertex -36 26 7.5
      vertex -34 26 7.5
    endloop
  endfacet
  facet normal 1 -0 0
    outer loop
      vertex -34 26 7.5
      vertex -34 34 2.5
      vertex -34 34 7.5
    endloop
  endfacet
  facet normal 1 0 0
    outer loop
      vertex -34 34 2.5
      vertex -34 26 7.5
      vertex -34 26 2.5
    endloop
  endfacet
  facet normal 0 -1 0
    outer loop
      vertex -36 26 2.5
      vertex -34 26 7.5
      vertex -36 26 7.5
    endloop
  endfacet
  facet normal 0 -1 -0
    outer loop
      vertex -34 26 7.5
      vertex -36 26 2.5
      vertex -34 26 2.5
    endloop
  endfacet
  facet normal 0 -1 0
    outer loop
      vertex -34 34 2.5
      vertex -25 34 7.5
      vertex -34 34 7.5
    endloop
  endfacet
  facet normal 0 -1 -0
    outer loop
      vertex -25 34 7.5
      vertex -34 34 2.5
      vertex -25 34 2.5
    endloop
  endfacet
  facet normal 1 -0 0
    outer loop
      vertex -25 34 7.5
      vertex -25 36 2.5
      vertex -25 36 7.5
    endloop
  endfacet
  facet normal 1 0 0
    outer loop
      vertex -25 36 2.5
      vertex -25 34 7.5
      vertex -25 34 2.5
    endloop
  endfacet
  facet normal 0 0 1
    outer loop
      vertex -34 -26 7.5
      vertex -36 -26 7.5
      vertex -34 -34 7.5
    endloop
  endfacet
  facet normal -0 0 1
    outer loop
      vertex -34 -34 7.5
      vertex -26 -36 7.5
      vertex -26 -34 7.5
    endloop
  endfacet
  facet normal 0 0 1
    outer loop
      vertex -34 -34 7.5
      vertex -36 -36 7.5
      vertex -26 -36 7.5
    endloop
  endfacet
  facet normal 0 0 1
    outer loop
      vertex -36 -36 7.5
      vertex -34 -34 7.5
      vertex -36 -26 7.5
    endloop
  endfacet
  facet normal 1 -0 0
    outer loop
      vertex -34 -34 7.5
      vertex -34 -26 2.5
      vertex -34 -26 7.5
    endloop
  endfacet
  facet normal 1 0 0
    outer loop
      vertex -34 -26 2.5
      vertex -34 -34 7.5
      vertex -34 -34 2.5
    endloop
  endfacet
  facet normal 0 1 -0
    outer loop
      vertex -34 -26 2.5
      vertex -36 -26 7.5
      vertex -34 -26 7.5
    endloop
  endfacet
  facet normal 0 1 0
    outer loop
      vertex -36 -26 7.5
      vertex -34 -26 2.5
      vertex -36 -26 2.5
    endloop
  endfacet
  facet normal 0 1 -0
    outer loop
      vertex -26 -34 2.5
      vertex -34 -34 7.5
      vertex -26 -34 7.5
    endloop
  endfacet
  facet normal 0 1 0
    outer loop
      vertex -34 -34 7.5
      vertex -26 -34 2.5
      vertex -34 -34 2.5
    endloop
  endfacet
  facet normal 1 -0 0
    outer loop
      vertex -26 -36 7.5
      vertex -26 -34 2.5
      vertex -26 -34 7.5
    endloop
  endfacet
  facet normal 1 0 0
    outer loop
      vertex -26 -34 2.5
      vertex -26 -36 7.5
      vertex -26 -36 2.5
    endloop
  endfacet
  facet normal -1 0 0
    outer loop
      vertex -33.5 -28.5 2.5
      vertex -33.5 -33.5 2.5
      vertex -33.5 -28.5 9.81818
    endloop
  endfacet
  facet normal -1 -0 0
    outer loop
      vertex -33.5 -22.5 24
      vertex -33.5 -28.5 9.81818
      vertex -33.5 -22.5 44
    endloop
  endfacet
  facet normal -1 0 0
    outer loop
      vertex -33.5 22.5 44
      vertex -33.5 17.5 65.5
      vertex -33.5 18.5 65.5
    endloop
  endfacet
  facet normal -1 0 0
    outer loop
      vertex -33.5 17.5 65.5
      vertex -33.5 -17.5 65.5
      vertex -33.5 17.5 70
    endloop
  endfacet
  facet normal -1 0 0
    outer loop
      vertex -33.5 22.5 44
      vertex -33.5 -17.5 65.5
      vertex -33.5 17.5 65.5
    endloop
  endfacet
  facet normal -1 0 0
    outer loop
      vertex -33.5 -22.5 44
      vertex -33.5 -17.5 65.5
      vertex -33.5 22.5 44
    endloop
  endfacet
  facet normal -1 -0 0
    outer loop
      vertex -33.5 -17.5 65.5
      vertex -33.5 -22.5 44
      vertex -33.5 -18.5 65.5
    endloop
  endfacet
  facet normal -1 0 0
    outer loop
      vertex -33.5 -33.5 64.5
      vertex -33.5 -18.5 65.5
      vertex -33.5 -22.5 44
    endloop
  endfacet
  facet normal -1 0 0
    outer loop
      vertex -33.5 -33.5 64.5
      vertex -33.5 -22.5 44
      vertex -33.5 -28.5 9.81818
    endloop
  endfacet
  facet normal -1 0 0
    outer loop
      vertex -33.5 -33.5 64.5
      vertex -33.5 -28.5 9.81818
      vertex -33.5 -33.5 2.5
    endloop
  endfacet
  facet normal -1 0 0
    outer loop
      vertex -33.5 -33.5 69.5
      vertex -33.5 -18.5 65.5
      vertex -33.5 -33.5 64.5
    endloop
  endfacet
  facet normal -1 0 0
    outer loop
      vertex -33.5 -18.5 65.5
      vertex -33.5 -33.5 69.5
      vertex -33.5 -18.5 69.5
    endloop
  endfacet
  facet normal -1 0 0
    outer loop
      vertex -33.5 28.5 46.6364
      vertex -33.5 33.5 2.5
      vertex -33.5 28.5 2.5
    endloop
  endfacet
  facet normal -1 0 0
    outer loop
      vertex -33.5 33.5 2.5
      vertex -33.5 28.5 46.6364
      vertex -33.5 33.5 69.5
    endloop
  endfacet
  facet normal -1 0 0
    outer loop
      vertex -33.5 22.5 44
      vertex -33.5 28.5 46.6364
      vertex -33.5 22.5 24
    endloop
  endfacet
  facet normal -1 0 0
    outer loop
      vertex -33.5 18.5 65.5
      vertex -33.5 28.5 46.6364
      vertex -33.5 22.5 44
    endloop
  endfacet
  facet normal -1 0 0
    outer loop
      vertex -33.5 28.5 46.6364
      vertex -33.5 18.5 65.5
      vertex -33.5 33.5 69.5
    endloop
  endfacet
  facet normal -1 -0 0
    outer loop
      vertex -33.5 33.5 69.5
      vertex -33.5 18.5 65.5
      vertex -33.5 18.5 69.5
    endloop
  endfacet
  facet normal -1 -0 0
    outer loop
      vertex -33.5 17.5 70
      vertex -33.5 -17.5 65.5
      vertex -33.5 -17.5 70
    endloop
  endfacet
  facet normal 0 -1 0
    outer loop
      vertex -17.5 -33.5 65.5
      vertex 17.5 -33.5 70
      vertex -17.5 -33.5 70
    endloop
  endfacet
  facet normal 0 -1 -0
    outer loop
      vertex 17.5 -33.5 70
      vertex -17.5 -33.5 65.5
      vertex 17.5 -33.5 65.5
    endloop
  endfacet
  facet normal 0 -1 0
    outer loop
      vertex -33.5 -33.5 2.5
      vertex -18.5 -33.5 64.5
      vertex -33.5 -33.5 64.5
    endloop
  endfacet
  facet normal 0 -1 0
    outer loop
      vertex 28.5 -33.5 2.5
      vertex -18.5 -33.5 64.5
      vertex -33.5 -33.5 2.5
    endloop
  endfacet
  facet normal 0 -1 0
    outer loop
      vertex -18.5 -33.5 64.5
      vertex 28.5 -33.5 2.5
      vertex 18.5 -33.5 64.5
    endloop
  endfacet
  facet normal 0 -1 0
    outer loop
      vertex 18.5 -33.5 64.5
      vertex 28.5 -33.5 2.5
      vertex 28.5 -33.5 64.5
    endloop
  endfacet
  facet normal 0 -1 0
    outer loop
      vertex -18.5 -33.5 64.5
      vertex -17.5 -33.5 65.5
      vertex -18.5 -33.5 65.5
    endloop
  endfacet
  facet normal 0 -1 -0
    outer loop
      vertex -17.5 -33.5 65.5
      vertex -18.5 -33.5 64.5
      vertex 17.5 -33.5 65.5
    endloop
  endfacet
  facet normal 0 -1 0
    outer loop
      vertex 18.5 -33.5 64.5
      vertex 17.5 -33.5 65.5
      vertex -18.5 -33.5 64.5
    endloop
  endfacet
  facet normal 0 -1 0
    outer loop
      vertex 17.5 -33.5 65.5
      vertex 18.5 -33.5 64.5
      vertex 18.5 -33.5 65.5
    endloop
  endfacet
  facet normal 1 0 0
    outer loop
      vertex 33.5 -18.5 69.5
      vertex 33.5 -28.5 64.5
      vertex 33.5 -18.5 64.5
    endloop
  endfacet
  facet normal 1 -0 0
    outer loop
      vertex 33.5 -33.5 69.5
      vertex 33.5 -28.5 64.5
      vertex 33.5 -18.5 69.5
    endloop
  endfacet
  facet normal 1 0 0
    outer loop
      vertex 33.5 -33.5 64.5
      vertex 33.5 -28.5 64.5
      vertex 33.5 -33.5 69.5
    endloop
  endfacet
  facet normal 1 0 0
    outer loop
      vertex 33.5 -28.5 64.5
      vertex 33.5 -33.5 64.5
      vertex 33.5 -28.5 2.5
    endloop
  endfacet
  facet normal 1 0 0
    outer loop
      vertex 33.5 -28.5 2.5
      vertex 33.5 -33.5 64.5
      vertex 33.5 -33.5 2.5
    endloop
  endfacet
  facet normal -0 0 1
    outer loop
      vertex -17.5 -28.5 70
      vertex 17.5 -33.5 70
      vertex 17.5 -28.5 70
    endloop
  endfacet
  facet normal 0 0 1
    outer loop
      vertex 17.5 -33.5 70
      vertex -17.5 -28.5 70
      vertex -17.5 -33.5 70
    endloop
  endfacet
  facet normal 0 0 0
    outer loop
      vertex 33.5 -28.5 64.5
      vertex 33.5 -28.5 2.5
      vertex 33.5 -28.5 9.81818
    endloop
  endfacet
  facet normal 0 1 -0
    outer loop
      vertex 28.5 -28.5 9.81818
      vertex -28.5 -28.5 64.5
      vertex 28.5 -28.5 64.5
    endloop
  endfacet
  facet normal 0 1 0
    outer loop
      vertex 28.5 -28.5 9.81818
      vertex -28.5 -28.5 9.81818
      vertex -28.5 -28.5 64.5
    endloop
  endfacet
  facet normal 0 1 -0
    outer loop
      vertex 28.5 -28.5 2.5
      vertex -28.5 -28.5 9.81818
      vertex 28.5 -28.5 9.81818
    endloop
  endfacet
  facet normal 0 1 0
    outer loop
      vertex -28.5 -28.5 9.81818
      vertex 28.5 -28.5 2.5
      vertex -28.5 -28.5 2.5
    endloop
  endfacet
  facet normal 0 1 -0
    outer loop
      vertex 17.5 -28.5 69.5
      vertex -17.5 -28.5 70
      vertex 17.5 -28.5 70
    endloop
  endfacet
  facet normal 0 1 0
    outer loop
      vertex -17.5 -28.5 70
      vertex 17.5 -28.5 69.5
      vertex -17.5 -28.5 69.5
    endloop
  endfacet
  facet normal -1 0 0
    outer loop
      vertex -17.5 -29.5 65.5
      vertex -17.5 -33.5 65.5
      vertex -17.5 -29.5 69.5
    endloop
  endfacet
  facet normal -1 0 0
    outer loop
      vertex -17.5 -29.5 69.5
      vertex -17.5 -28.5 70
      vertex -17.5 -28.5 69.5
    endloop
  endfacet
  facet normal -1 0 0
    outer loop
      vertex -17.5 -29.5 69.5
      vertex -17.5 -33.5 70
      vertex -17.5 -28.5 70
    endloop
  endfacet
  facet normal -1 0 0
    outer loop
      vertex -17.5 -33.5 70
      vertex -17.5 -29.5 69.5
      vertex -17.5 -33.5 65.5
    endloop
  endfacet
  facet normal -0 0 1
    outer loop
      vertex -18.5 -29.5 65.5
      vertex -17.5 -33.5 65.5
      vertex -17.5 -29.5 65.5
    endloop
  endfacet
  facet normal 0 0 1
    outer loop
      vertex -17.5 -33.5 65.5
      vertex -18.5 -29.5 65.5
      vertex -18.5 -33.5 65.5
    endloop
  endfacet
  facet normal 1 0 0
    outer loop
      vertex 17.5 -28.5 70
      vertex 17.5 -29.5 69.5
      vertex 17.5 -28.5 69.5
    endloop
  endfacet
  facet normal 1 -0 0
    outer loop
      vertex 17.5 -33.5 70
      vertex 17.5 -29.5 69.5
      vertex 17.5 -28.5 70
    endloop
  endfacet
  facet normal 1 0 0
    outer loop
      vertex 17.5 -33.5 65.5
      vertex 17.5 -29.5 69.5
      vertex 17.5 -33.5 70
    endloop
  endfacet
  facet normal 1 0 0
    outer loop
      vertex 17.5 -29.5 69.5
      vertex 17.5 -33.5 65.5
      vertex 17.5 -29.5 65.5
    endloop
  endfacet
  facet normal -0 0 1
    outer loop
      vertex 29.5 -17.5 65.5
      vertex 33.5 -18.5 65.5
      vertex 33.5 -17.5 65.5
    endloop
  endfacet
  facet normal 0 0 1
    outer loop
      vertex 33.5 -18.5 65.5
      vertex 29.5 -17.5 65.5
      vertex 29.5 -18.5 65.5
    endloop
  endfacet
  facet normal -0 0 1
    outer loop
      vertex 17.5 -29.5 65.5
      vertex 18.5 -33.5 65.5
      vertex 18.5 -29.5 65.5
    endloop
  endfacet
  facet normal 0 0 1
    outer loop
      vertex 18.5 -33.5 65.5
      vertex 17.5 -29.5 65.5
      vertex 17.5 -33.5 65.5
    endloop
  endfacet
  facet normal 0 -1 0
    outer loop
      vertex -17.5 28.5 69.5
      vertex 17.5 28.5 70
      vertex -17.5 28.5 70
    endloop
  endfacet
  facet normal 0 -1 -0
    outer loop
      vertex 17.5 28.5 70
      vertex -17.5 28.5 69.5
      vertex 17.5 28.5 69.5
    endloop
  endfacet
  facet normal 0 -1 0
    outer loop
      vertex -28.5 28.5 9.81818
      vertex -15 28.5 44
      vertex -28.5 28.5 46.6364
    endloop
  endfacet
  facet normal 0 -1 0
    outer loop
      vertex -15 28.5 2.5
      vertex -28.5 28.5 9.81818
      vertex -28.5 28.5 2.5
    endloop
  endfacet
  facet normal 0 -1 0
    outer loop
      vertex -28.5 28.5 9.81818
      vertex -15 28.5 2.5
      vertex -15 28.5 44
    endloop
  endfacet
  facet normal 0 -1 0
    outer loop
      vertex 15 28.5 44
      vertex 28.5 28.5 64.5
      vertex -28.5 28.5 64.5
    endloop
  endfacet
  facet normal 0 -1 -0
    outer loop
      vertex 28.5 28.5 64.5
      vertex 15 28.5 44
      vertex 28.5 28.5 55.7273
    endloop
  endfacet
  facet normal 0 -1 0
    outer loop
      vertex -15 28.5 44
      vertex -28.5 28.5 64.5
      vertex -28.5 28.5 46.6364
    endloop
  endfacet
  facet normal 0 -1 0
    outer loop
      vertex 15 28.5 44
      vertex -28.5 28.5 64.5
      vertex -15 28.5 44
    endloop
  endfacet
  facet normal 0 -1 -0
    outer loop
      vertex 28.5 28.5 55.7273
      vertex 15 28.5 44
      vertex 28.5 28.5 46.6364
    endloop
  endfacet
  facet normal 0 -1 0
    outer loop
      vertex 15 28.5 44
      vertex 28.5 28.5 9.81818
      vertex 28.5 28.5 46.6364
    endloop
  endfacet
  facet normal 0 -1 0
    outer loop
      vertex 15 28.5 2.5
      vertex 28.5 28.5 9.81818
      vertex 15 28.5 44
    endloop
  endfacet
  facet normal 0 -1 -0
    outer loop
      vertex 28.5 28.5 9.81818
      vertex 15 28.5 2.5
      vertex 28.5 28.5 2.5
    endloop
  endfacet
  facet normal 0 0 0
    outer loop
      vertex 33.5 28.5 55.7273
      vertex 33.5 28.5 46.6364
      vertex 33.5 28.5 9.81818
    endloop
  endfacet
  facet normal 0 0 0
    outer loop
      vertex 33.5 28.5 55.7273
      vertex 33.5 28.5 9.81818
      vertex 33.5 28.5 64.5
    endloop
  endfacet
  facet normal 0 0 0
    outer loop
      vertex -33.5 28.5 2.5
      vertex -33.5 28.5 9.81818
      vertex -33.5 28.5 46.6364
    endloop
  endfacet
  facet normal 1 0 0
    outer loop
      vertex 33.5 28.5 9.81818
      vertex 33.5 33.5 69.5
      vertex 33.5 28.5 64.5
    endloop
  endfacet
  facet normal 1 -0 0
    outer loop
      vertex 33.5 18.5 69.5
      vertex 33.5 28.5 64.5
      vertex 33.5 33.5 69.5
    endloop
  endfacet
  facet normal 1 0 0
    outer loop
      vertex 33.5 28.5 64.5
      vertex 33.5 18.5 69.5
      vertex 33.5 18.5 64.5
    endloop
  endfacet
  facet normal 1 0 0
    outer loop
      vertex 33.5 33.5 69.5
      vertex 33.5 28.5 9.81818
      vertex 33.5 33.5 2.5
    endloop
  endfacet
  facet normal 1 0 0
    outer loop
      vertex 33.5 33.5 2.5
      vertex 33.5 28.5 9.81818
      vertex 33.5 28.5 2.5
    endloop
  endfacet
  facet normal -0 0 1
    outer loop
      vertex -17.5 33.5 70
      vertex 17.5 28.5 70
      vertex 17.5 33.5 70
    endloop
  endfacet
  facet normal 0 0 1
    outer loop
      vertex 17.5 28.5 70
      vertex -17.5 33.5 70
      vertex -17.5 28.5 70
    endloop
  endfacet
  facet normal 0 1 0
    outer loop
      vertex 33.5 33.5 69.5
      vertex 18.5 33.5 65.5
      vertex 18.5 33.5 69.5
    endloop
  endfacet
  facet normal 0 1 0
    outer loop
      vertex 15 33.5 44
      vertex 17.5 33.5 65.5
      vertex 18.5 33.5 65.5
    endloop
  endfacet
  facet normal 0 1 0
    outer loop
      vertex 17.5 33.5 65.5
      vertex 15 33.5 44
      vertex -17.5 33.5 65.5
    endloop
  endfacet
  facet normal 0 1 -0
    outer loop
      vertex -15 33.5 44
      vertex -17.5 33.5 65.5
      vertex 15 33.5 44
    endloop
  endfacet
  facet normal 0 1 0
    outer loop
      vertex 33.5 33.5 69.5
      vertex 15 33.5 44
      vertex 18.5 33.5 65.5
    endloop
  endfacet
  facet normal 0 1 -0
    outer loop
      vertex 33.5 33.5 2.5
      vertex 15 33.5 44
      vertex 33.5 33.5 69.5
    endloop
  endfacet
  facet normal 0 1 0
    outer loop
      vertex 15 33.5 44
      vertex 33.5 33.5 2.5
      vertex 15 33.5 2.5
    endloop
  endfacet
  facet normal 0 1 -0
    outer loop
      vertex 17.5 33.5 65.5
      vertex -17.5 33.5 70
      vertex 17.5 33.5 70
    endloop
  endfacet
  facet normal 0 1 0
    outer loop
      vertex -17.5 33.5 70
      vertex 17.5 33.5 65.5
      vertex -17.5 33.5 65.5
    endloop
  endfacet
  facet normal 0 1 -0
    outer loop
      vertex -18.5 33.5 65.5
      vertex -33.5 33.5 69.5
      vertex -18.5 33.5 69.5
    endloop
  endfacet
  facet normal 0 1 0
    outer loop
      vertex -17.5 33.5 65.5
      vertex -15 33.5 44
      vertex -18.5 33.5 65.5
    endloop
  endfacet
  facet normal 0 1 0
    outer loop
      vertex -18.5 33.5 65.5
      vertex -15 33.5 44
      vertex -33.5 33.5 69.5
    endloop
  endfacet
  facet normal 0 1 0
    outer loop
      vertex -33.5 33.5 2.5
      vertex -15 33.5 44
      vertex -15 33.5 2.5
    endloop
  endfacet
  facet normal 0 1 0
    outer loop
      vertex -15 33.5 44
      vertex -33.5 33.5 2.5
      vertex -33.5 33.5 69.5
    endloop
  endfacet
  facet normal 1 -0 0
    outer loop
      vertex -15 28.5 44
      vertex -15 33.5 2.5
      vertex -15 33.5 44
    endloop
  endfacet
  facet normal 1 0 0
    outer loop
      vertex -15 33.5 2.5
      vertex -15 28.5 44
      vertex -15 28.5 2.5
    endloop
  endfacet
  facet normal -1 0 0
    outer loop
      vertex 15 28.5 2.5
      vertex 15 33.5 44
      vertex 15 33.5 2.5
    endloop
  endfacet
  facet normal -1 -0 0
    outer loop
      vertex 15 33.5 44
      vertex 15 28.5 2.5
      vertex 15 28.5 44
    endloop
  endfacet
  facet normal 0 0 -1
    outer loop
      vertex -15 28.5 44
      vertex 15 33.5 44
      vertex 15 28.5 44
    endloop
  endfacet
  facet normal -0 0 -1
    outer loop
      vertex 15 33.5 44
      vertex -15 28.5 44
      vertex -15 33.5 44
    endloop
  endfacet
  facet normal -1 0 0
    outer loop
      vertex -17.5 29.5 69.5
      vertex -17.5 33.5 65.5
      vertex -17.5 29.5 65.5
    endloop
  endfacet
  facet normal -1 0 0
    outer loop
      vertex -17.5 33.5 65.5
      vertex -17.5 29.5 69.5
      vertex -17.5 33.5 70
    endloop
  endfacet
  facet normal -1 0 0
    outer loop
      vertex -17.5 28.5 70
      vertex -17.5 29.5 69.5
      vertex -17.5 28.5 69.5
    endloop
  endfacet
  facet normal -1 0 0
    outer loop
      vertex -17.5 29.5 69.5
      vertex -17.5 28.5 70
      vertex -17.5 33.5 70
    endloop
  endfacet
  facet normal -0 0 1
    outer loop
      vertex -18.5 33.5 65.5
      vertex -17.5 29.5 65.5
      vertex -17.5 33.5 65.5
    endloop
  endfacet
  facet normal 0 0 1
    outer loop
      vertex -17.5 29.5 65.5
      vertex -18.5 33.5 65.5
      vertex -18.5 29.5 65.5
    endloop
  endfacet
  facet normal 1 0 0
    outer loop
      vertex 17.5 33.5 70
      vertex 17.5 29.5 69.5
      vertex 17.5 33.5 65.5
    endloop
  endfacet
  facet normal 1 -0 0
    outer loop
      vertex 17.5 28.5 70
      vertex 17.5 29.5 69.5
      vertex 17.5 33.5 70
    endloop
  endfacet
  facet normal 1 0 0
    outer loop
      vertex 17.5 29.5 69.5
      vertex 17.5 28.5 70
      vertex 17.5 28.5 69.5
    endloop
  endfacet
  facet normal 1 0 0
    outer loop
      vertex 17.5 33.5 65.5
      vertex 17.5 29.5 69.5
      vertex 17.5 29.5 65.5
    endloop
  endfacet
  facet normal -0 0 1
    outer loop
      vertex 17.5 33.5 65.5
      vertex 18.5 29.5 65.5
      vertex 18.5 33.5 65.5
    endloop
  endfacet
  facet normal 0 0 1
    outer loop
      vertex 18.5 29.5 65.5
      vertex 17.5 33.5 65.5
      vertex 17.5 29.5 65.5
    endloop
  endfacet
  facet normal 0 -1 0
    outer loop
      vertex 28.5 -33.5 64.5
      vertex 18.5 -33.5 69.5
      vertex 18.5 -33.5 64.5
    endloop
  endfacet
  facet normal 0 -1 0
    outer loop
      vertex 18.5 -33.5 69.5
      vertex 28.5 -33.5 64.5
      vertex 33.5 -33.5 69.5
    endloop
  endfacet
  facet normal 0 -1 0
    outer loop
      vertex 28.5 -33.5 64.5
      vertex 33.5 -33.5 64.5
      vertex 33.5 -33.5 69.5
    endloop
  endfacet
  facet normal 0 -1 0
    outer loop
      vertex 28.5 -33.5 2.5
      vertex 33.5 -33.5 64.5
      vertex 28.5 -33.5 64.5
    endloop
  endfacet
  facet normal 0 -1 -0
    outer loop
      vertex 33.5 -33.5 64.5
      vertex 28.5 -33.5 2.5
      vertex 33.5 -33.5 2.5
    endloop
  endfacet
  facet normal 1 0 0
    outer loop
      vertex 33.5 22.5 44
      vertex 33.5 28.5 46.6364
      vertex 33.5 28.5 55.7273
    endloop
  endfacet
  facet normal 1 0 0
    outer loop
      vertex 33.5 28.5 46.6364
      vertex 33.5 22.5 44
      vertex 33.5 22.5 24
    endloop
  endfacet
  facet normal 1 -0 0
    outer loop
      vertex 33.5 22.5 24
      vertex 33.5 28.5 9.81818
      vertex 33.5 28.5 46.6364
    endloop
  endfacet
  facet normal 1 0 0
    outer loop
      vertex 33.5 28.5 9.81818
      vertex 33.5 23.8077 2.5
      vertex 33.5 28.5 2.5
    endloop
  endfacet
  facet normal 1 0 0
    outer loop
      vertex 33.5 22.5 24
      vertex 33.5 23.8077 2.5
      vertex 33.5 28.5 9.81818
    endloop
  endfacet
  facet normal 1 0 0
    outer loop
      vertex 33.5 23.8077 2.5
      vertex 33.5 22.5 24
      vertex 33.5 -22.5 24
    endloop
  endfacet
  facet normal 1 -0 0
    outer loop
      vertex 33.5 -28.5 9.81818
      vertex 33.5 23.8077 2.5
      vertex 33.5 -22.5 24
    endloop
  endfacet
  facet normal 1 0 0
    outer loop
      vertex 33.5 23.8077 2.5
      vertex 33.5 -28.5 9.81818
      vertex 33.5 -28.5 2.5
    endloop
  endfacet
  facet normal 1 0 0
    outer loop
      vertex 33.5 17.5 70
      vertex 33.5 -17.5 70
      vertex 33.5 17.5 65.5
    endloop
  endfacet
  facet normal 1 0 0
    outer loop
      vertex 33.5 18.5 65.5
      vertex 33.5 17.5 65.5
      vertex 33.5 18.5 64.5
    endloop
  endfacet
  facet normal 1 -0 0
    outer loop
      vertex 33.5 18.5 64.5
      vertex 33.5 28.5 55.7273
      vertex 33.5 28.5 64.5
    endloop
  endfacet
  facet normal 1 0 0
    outer loop
      vertex 33.5 28.5 55.7273
      vertex 33.5 18.5 64.5
      vertex 33.5 22.5 44
    endloop
  endfacet
  facet normal 1 0 0
    outer loop
      vertex 33.5 17.5 65.5
      vertex 33.5 22.5 44
      vertex 33.5 18.5 64.5
    endloop
  endfacet
  facet normal 1 0 0
    outer loop
      vertex 33.5 -17.5 65.5
      vertex 33.5 17.5 65.5
      vertex 33.5 -17.5 70
    endloop
  endfacet
  facet normal 1 0 0
    outer loop
      vertex 33.5 17.5 65.5
      vertex 33.5 -17.5 65.5
      vertex 33.5 22.5 44
    endloop
  endfacet
  facet normal 1 0 0
    outer loop
      vertex 33.5 -18.5 64.5
      vertex 33.5 -17.5 65.5
      vertex 33.5 -18.5 65.5
    endloop
  endfacet
  facet normal 1 0 0
    outer loop
      vertex 33.5 -22.5 44
      vertex 33.5 -17.5 65.5
      vertex 33.5 -18.5 64.5
    endloop
  endfacet
  facet normal 1 0 0
    outer loop
      vertex 33.5 -17.5 65.5
      vertex 33.5 -22.5 44
      vertex 33.5 22.5 44
    endloop
  endfacet
  facet normal 1 -0 0
    outer loop
      vertex 33.5 -28.5 64.5
      vertex 33.5 -22.5 44
      vertex 33.5 -18.5 64.5
    endloop
  endfacet
  facet normal 1 0 0
    outer loop
      vertex 33.5 -28.5 9.81818
      vertex 33.5 -22.5 44
      vertex 33.5 -28.5 64.5
    endloop
  endfacet
  facet normal 1 0 0
    outer loop
      vertex 33.5 -22.5 44
      vertex 33.5 -28.5 9.81818
      vertex 33.5 -22.5 24
    endloop
  endfacet
  facet normal -1 0 0
    outer loop
      vertex 28.5 28.5 9.81818
      vertex 28.5 22.5 24
      vertex 28.5 28.5 46.6364
    endloop
  endfacet
  facet normal -1 0 0
    outer loop
      vertex 28.5 23.8077 2.5
      vertex 28.5 28.5 9.81818
      vertex 28.5 28.5 2.5
    endloop
  endfacet
  facet normal -1 0 0
    outer loop
      vertex 28.5 23.8077 2.5
      vertex 28.5 22.5 24
      vertex 28.5 28.5 9.81818
    endloop
  endfacet
  facet normal -1 -0 -0
    outer loop
      vertex 28.5 22.5 24
      vertex 28.5 23.8077 2.5
      vertex 28.5 -22.5 24
    endloop
  endfacet
  facet normal -1 -0 0
    outer loop
      vertex 28.5 -22.5 24
      vertex 28.5 -28.5 9.81818
      vertex 28.5 -22.5 44
    endloop
  endfacet
  facet normal -1 0 0
    outer loop
      vertex 28.5 22.5 44
      vertex 28.5 28.5 64.5
      vertex 28.5 28.5 55.7273
    endloop
  endfacet
  facet normal -1 0 0
    outer loop
      vertex 28.5 -22.5 44
      vertex 28.5 28.5 64.5
      vertex 28.5 22.5 44
    endloop
  endfacet
  facet normal -1 0 0
    outer loop
      vertex 28.5 -22.5 44
      vertex 28.5 -28.5 64.5
      vertex 28.5 28.5 64.5
    endloop
  endfacet
  facet normal -1 0 0
    outer loop
      vertex 28.5 -28.5 64.5
      vertex 28.5 -22.5 44
      vertex 28.5 -28.5 9.81818
    endloop
  endfacet
  facet normal -1 0 0
    outer loop
      vertex 28.5 -17.5 69.5
      vertex 28.5 17.5 70
      vertex 28.5 17.5 69.5
    endloop
  endfacet
  facet normal -1 -0 0
    outer loop
      vertex 28.5 17.5 70
      vertex 28.5 -17.5 69.5
      vertex 28.5 -17.5 70
    endloop
  endfacet
  facet normal -1 0 0
    outer loop
      vertex 28.5 -28.5 9.81818
      vertex 28.5 23.8077 2.5
      vertex 28.5 -28.5 2.5
    endloop
  endfacet
  facet normal -1 0 0
    outer loop
      vertex 28.5 23.8077 2.5
      vertex 28.5 -28.5 9.81818
      vertex 28.5 -22.5 24
    endloop
  endfacet
  facet normal -1 0 0
    outer loop
      vertex 28.5 22.5 44
      vertex 28.5 28.5 46.6364
      vertex 28.5 22.5 24
    endloop
  endfacet
  facet normal -1 -0 0
    outer loop
      vertex 28.5 28.5 46.6364
      vertex 28.5 22.5 44
      vertex 28.5 28.5 55.7273
    endloop
  endfacet
  facet normal -0 0 1
    outer loop
      vertex 28.5 17.5 70
      vertex 33.5 -17.5 70
      vertex 33.5 17.5 70
    endloop
  endfacet
  facet normal 0 0 1
    outer loop
      vertex 33.5 -17.5 70
      vertex 28.5 17.5 70
      vertex 28.5 -17.5 70
    endloop
  endfacet
  facet normal 0 1 -0
    outer loop
      vertex 33.5 -22.5 24
      vertex 28.5 -22.5 44
      vertex 33.5 -22.5 44
    endloop
  endfacet
  facet normal 0 1 0
    outer loop
      vertex 28.5 -22.5 44
      vertex 33.5 -22.5 24
      vertex 28.5 -22.5 24
    endloop
  endfacet
  facet normal 0 -1 0
    outer loop
      vertex 28.5 22.5 24
      vertex 33.5 22.5 44
      vertex 28.5 22.5 44
    endloop
  endfacet
  facet normal 0 -1 -0
    outer loop
      vertex 33.5 22.5 44
      vertex 28.5 22.5 24
      vertex 33.5 22.5 24
    endloop
  endfacet
  facet normal -0 0 1
    outer loop
      vertex 28.5 22.5 24
      vertex 33.5 -22.5 24
      vertex 33.5 22.5 24
    endloop
  endfacet
  facet normal 0 0 1
    outer loop
      vertex 33.5 -22.5 24
      vertex 28.5 22.5 24
      vertex 28.5 -22.5 24
    endloop
  endfacet
  facet normal 0 0 -1
    outer loop
      vertex 28.5 -22.5 44
      vertex 33.5 22.5 44
      vertex 33.5 -22.5 44
    endloop
  endfacet
  facet normal -0 0 -1
    outer loop
      vertex 33.5 22.5 44
      vertex 28.5 -22.5 44
      vertex 28.5 22.5 44
    endloop
  endfacet
  facet normal 0 -1 0
    outer loop
      vertex 29.5 -17.5 69.5
      vertex 28.5 -17.5 70
      vertex 28.5 -17.5 69.5
    endloop
  endfacet
  facet normal 0 -1 0
    outer loop
      vertex 28.5 -17.5 70
      vertex 29.5 -17.5 69.5
      vertex 33.5 -17.5 70
    endloop
  endfacet
  facet normal 0 -1 0
    outer loop
      vertex 33.5 -17.5 65.5
      vertex 29.5 -17.5 69.5
      vertex 29.5 -17.5 65.5
    endloop
  endfacet
  facet normal 0 -1 0
    outer loop
      vertex 29.5 -17.5 69.5
      vertex 33.5 -17.5 65.5
      vertex 33.5 -17.5 70
    endloop
  endfacet
  facet normal 0 1 0
    outer loop
      vertex 33.5 17.5 70
      vertex 29.5 17.5 69.5
      vertex 28.5 17.5 70
    endloop
  endfacet
  facet normal 0 1 -0
    outer loop
      vertex 33.5 17.5 65.5
      vertex 29.5 17.5 69.5
      vertex 33.5 17.5 70
    endloop
  endfacet
  facet normal 0 1 0
    outer loop
      vertex 29.5 17.5 69.5
      vertex 33.5 17.5 65.5
      vertex 29.5 17.5 65.5
    endloop
  endfacet
  facet normal 0 1 0
    outer loop
      vertex 28.5 17.5 70
      vertex 29.5 17.5 69.5
      vertex 28.5 17.5 69.5
    endloop
  endfacet
  facet normal -0 0 1
    outer loop
      vertex 29.5 18.5 65.5
      vertex 33.5 17.5 65.5
      vertex 33.5 18.5 65.5
    endloop
  endfacet
  facet normal 0 0 1
    outer loop
      vertex 33.5 17.5 65.5
      vertex 29.5 18.5 65.5
      vertex 29.5 17.5 65.5
    endloop
  endfacet
  facet normal 1 0 -0
    outer loop
      vertex -28.5 28.5 9.81818
      vertex -28.5 28.5 46.6364
      vertex -28.5 22.5 24
    endloop
  endfacet
  facet normal 1 0 0
    outer loop
      vertex -28.5 28.5 9.81818
      vertex -28.5 23.8077 2.5
      vertex -28.5 28.5 2.5
    endloop
  endfacet
  facet normal 1 0 0
    outer loop
      vertex -28.5 22.5 24
      vertex -28.5 23.8077 2.5
      vertex -28.5 28.5 9.81818
    endloop
  endfacet
  facet normal 1 0 0
    outer loop
      vertex -28.5 23.8077 2.5
      vertex -28.5 22.5 24
      vertex -28.5 -22.5 24
    endloop
  endfacet
  facet normal 1 -0 0
    outer loop
      vertex -28.5 -28.5 9.81818
      vertex -28.5 23.8077 2.5
      vertex -28.5 -22.5 24
    endloop
  endfacet
  facet normal 1 0 0
    outer loop
      vertex -28.5 23.8077 2.5
      vertex -28.5 -28.5 9.81818
      vertex -28.5 -28.5 2.5
    endloop
  endfacet
  facet normal 1 -0 0
    outer loop
      vertex -28.5 -17.5 70
      vertex -28.5 17.5 69.5
      vertex -28.5 17.5 70
    endloop
  endfacet
  facet normal 1 0 0
    outer loop
      vertex -28.5 17.5 69.5
      vertex -28.5 -17.5 70
      vertex -28.5 -17.5 69.5
    endloop
  endfacet
  facet normal 1 0 0
    outer loop
      vertex -28.5 28.5 64.5
      vertex -28.5 22.5 44
      vertex -28.5 28.5 46.6364
    endloop
  endfacet
  facet normal 1 0 0
    outer loop
      vertex -28.5 28.5 64.5
      vertex -28.5 -22.5 44
      vertex -28.5 22.5 44
    endloop
  endfacet
  facet normal 1 -0 0
    outer loop
      vertex -28.5 -28.5 64.5
      vertex -28.5 -22.5 44
      vertex -28.5 28.5 64.5
    endloop
  endfacet
  facet normal 1 0 0
    outer loop
      vertex -28.5 -28.5 9.81818
      vertex -28.5 -22.5 44
      vertex -28.5 -28.5 64.5
    endloop
  endfacet
  facet normal 1 0 0
    outer loop
      vertex -28.5 -22.5 44
      vertex -28.5 -28.5 9.81818
      vertex -28.5 -22.5 24
    endloop
  endfacet
  facet normal 1 0 0
    outer loop
      vertex -28.5 28.5 46.6364
      vertex -28.5 22.5 44
      vertex -28.5 22.5 24
    endloop
  endfacet
  facet normal -1 0 -0
    outer loop
      vertex -33.5 28.5 46.6364
      vertex -33.5 28.5 9.81818
      vertex -33.5 22.5 24
    endloop
  endfacet
  facet normal -1 0 0
    outer loop
      vertex -33.5 23.8077 2.5
      vertex -33.5 28.5 9.81818
      vertex -33.5 28.5 2.5
    endloop
  endfacet
  facet normal -1 0 0
    outer loop
      vertex -33.5 23.8077 2.5
      vertex -33.5 22.5 24
      vertex -33.5 28.5 9.81818
    endloop
  endfacet
  facet normal -1 -0 -0
    outer loop
      vertex -33.5 22.5 24
      vertex -33.5 23.8077 2.5
      vertex -33.5 -22.5 24
    endloop
  endfacet
  facet normal -1 0 0
    outer loop
      vertex -33.5 -28.5 9.81818
      vertex -33.5 23.8077 2.5
      vertex -33.5 -28.5 2.5
    endloop
  endfacet
  facet normal -1 0 0
    outer loop
      vertex -33.5 23.8077 2.5
      vertex -33.5 -28.5 9.81818
      vertex -33.5 -22.5 24
    endloop
  endfacet
  facet normal -0 0 1
    outer loop
      vertex -33.5 17.5 70
      vertex -28.5 -17.5 70
      vertex -28.5 17.5 70
    endloop
  endfacet
  facet normal 0 0 1
    outer loop
      vertex -28.5 -17.5 70
      vertex -33.5 17.5 70
      vertex -33.5 -17.5 70
    endloop
  endfacet
  facet normal 0 1 -0
    outer loop
      vertex -28.5 -22.5 24
      vertex -33.5 -22.5 44
      vertex -28.5 -22.5 44
    endloop
  endfacet
  facet normal 0 1 0
    outer loop
      vertex -33.5 -22.5 44
      vertex -28.5 -22.5 24
      vertex -33.5 -22.5 24
    endloop
  endfacet
  facet normal 0 -1 0
    outer loop
      vertex -33.5 22.5 24
      vertex -28.5 22.5 44
      vertex -33.5 22.5 44
    endloop
  endfacet
  facet normal 0 -1 -0
    outer loop
      vertex -28.5 22.5 44
      vertex -33.5 22.5 24
      vertex -28.5 22.5 24
    endloop
  endfacet
  facet normal -0 0 1
    outer loop
      vertex -33.5 22.5 24
      vertex -28.5 -22.5 24
      vertex -28.5 22.5 24
    endloop
  endfacet
  facet normal 0 0 1
    outer loop
      vertex -28.5 -22.5 24
      vertex -33.5 22.5 24
      vertex -33.5 -22.5 24
    endloop
  endfacet
  facet normal 0 0 -1
    outer loop
      vertex -33.5 -22.5 44
      vertex -28.5 22.5 44
      vertex -28.5 -22.5 44
    endloop
  endfacet
  facet normal -0 0 -1
    outer loop
      vertex -28.5 22.5 44
      vertex -33.5 -22.5 44
      vertex -33.5 22.5 44
    endloop
  endfacet
  facet normal 0 -1 0
    outer loop
      vertex -33.5 -17.5 70
      vertex -29.5 -17.5 69.5
      vertex -28.5 -17.5 70
    endloop
  endfacet
  facet normal 0 -1 0
    outer loop
      vertex -33.5 -17.5 65.5
      vertex -29.5 -17.5 69.5
      vertex -33.5 -17.5 70
    endloop
  endfacet
  facet normal 0 -1 -0
    outer loop
      vertex -29.5 -17.5 69.5
      vertex -33.5 -17.5 65.5
      vertex -29.5 -17.5 65.5
    endloop
  endfacet
  facet normal 0 -1 -0
    outer loop
      vertex -28.5 -17.5 70
      vertex -29.5 -17.5 69.5
      vertex -28.5 -17.5 69.5
    endloop
  endfacet
  facet normal -0 0 1
    outer loop
      vertex -33.5 -17.5 65.5
      vertex -29.5 -18.5 65.5
      vertex -29.5 -17.5 65.5
    endloop
  endfacet
  facet normal 0 0 1
    outer loop
      vertex -29.5 -18.5 65.5
      vertex -33.5 -17.5 65.5
      vertex -33.5 -18.5 65.5
    endloop
  endfacet
  facet normal 0 1 0
    outer loop
      vertex -29.5 17.5 69.5
      vertex -28.5 17.5 70
      vertex -28.5 17.5 69.5
    endloop
  endfacet
  facet normal 0 1 0
    outer loop
      vertex -28.5 17.5 70
      vertex -29.5 17.5 69.5
      vertex -33.5 17.5 70
    endloop
  endfacet
  facet normal 0 1 0
    outer loop
      vertex -33.5 17.5 65.5
      vertex -29.5 17.5 69.5
      vertex -29.5 17.5 65.5
    endloop
  endfacet
  facet normal 0 1 0
    outer loop
      vertex -29.5 17.5 69.5
      vertex -33.5 17.5 65.5
      vertex -33.5 17.5 70
    endloop
  endfacet
  facet normal -0 0 1
    outer loop
      vertex -33.5 18.5 65.5
      vertex -29.5 17.5 65.5
      vertex -29.5 18.5 65.5
    endloop
  endfacet
  facet normal 0 0 1
    outer loop
      vertex -29.5 17.5 65.5
      vertex -33.5 18.5 65.5
      vertex -33.5 17.5 65.5
    endloop
  endfacet
  facet normal 0 0 1
    outer loop
      vertex 33.5 33.5 69.5
      vertex 29.5 18.5 69.5
      vertex 33.5 18.5 69.5
    endloop
  endfacet
  facet normal 0 0 1
    outer loop
      vertex 29.5 18.5 69.5
      vertex 28.5 17.5 69.5
      vertex 29.5 17.5 69.5
    endloop
  endfacet
  facet normal -0 0 1
    outer loop
      vertex 18.5 29.5 69.5
      vertex 29.5 18.5 69.5
      vertex 33.5 33.5 69.5
    endloop
  endfacet
  facet normal 0 0 1
    outer loop
      vertex 29.5 18.5 69.5
      vertex 18.5 29.5 69.5
      vertex 28.5 17.5 69.5
    endloop
  endfacet
  facet normal 0 0 1
    outer loop
      vertex 18.5 29.5 69.5
      vertex 33.5 33.5 69.5
      vertex 18.5 33.5 69.5
    endloop
  endfacet
  facet normal 0 0 1
    outer loop
      vertex 29.5 -17.5 69.5
      vertex 28.5 -17.5 69.5
      vertex 29.5 -18.5 69.5
    endloop
  endfacet
  facet normal -0 0 1
    outer loop
      vertex 29.5 -18.5 69.5
      vertex 33.5 -33.5 69.5
      vertex 33.5 -18.5 69.5
    endloop
  endfacet
  facet normal 0 0 1
    outer loop
      vertex 18.5 -29.5 69.5
      vertex 29.5 -18.5 69.5
      vertex 28.5 -17.5 69.5
    endloop
  endfacet
  facet normal -0 0 1
    outer loop
      vertex 17.5 28.5 69.5
      vertex 28.5 17.5 69.5
      vertex 18.5 29.5 69.5
    endloop
  endfacet
  facet normal 0 0 1
    outer loop
      vertex 28.5 17.5 69.5
      vertex 17.5 28.5 69.5
      vertex 28.5 -17.5 69.5
    endloop
  endfacet
  facet normal 0 0 1
    outer loop
      vertex 29.5 -18.5 69.5
      vertex 18.5 -29.5 69.5
      vertex 33.5 -33.5 69.5
    endloop
  endfacet
  facet normal 0 0 1
    outer loop
      vertex 33.5 -33.5 69.5
      vertex 18.5 -29.5 69.5
      vertex 18.5 -33.5 69.5
    endloop
  endfacet
  facet normal -0 0 1
    outer loop
      vertex -33.5 33.5 69.5
      vertex -18.5 29.5 69.5
      vertex -18.5 33.5 69.5
    endloop
  endfacet
  facet normal 0 0 1
    outer loop
      vertex -18.5 29.5 69.5
      vertex -28.5 17.5 69.5
      vertex -18.5 -29.5 69.5
    endloop
  endfacet
  facet normal -0 0 1
    outer loop
      vertex -28.5 -17.5 69.5
      vertex -18.5 -29.5 69.5
      vertex -28.5 17.5 69.5
    endloop
  endfacet
  facet normal 0 0 1
    outer loop
      vertex -18.5 29.5 69.5
      vertex -29.5 18.5 69.5
      vertex -28.5 17.5 69.5
    endloop
  endfacet
  facet normal 0 0 1
    outer loop
      vertex -18.5 29.5 69.5
      vertex -33.5 33.5 69.5
      vertex -29.5 18.5 69.5
    endloop
  endfacet
  facet normal 0 0 1
    outer loop
      vertex -29.5 18.5 69.5
      vertex -33.5 33.5 69.5
      vertex -33.5 18.5 69.5
    endloop
  endfacet
  facet normal -0 0 1
    outer loop
      vertex -18.5 29.5 69.5
      vertex -17.5 28.5 69.5
      vertex -17.5 29.5 69.5
    endloop
  endfacet
  facet normal 0 0 1
    outer loop
      vertex -17.5 28.5 69.5
      vertex -18.5 29.5 69.5
      vertex -17.5 -28.5 69.5
    endloop
  endfacet
  facet normal 0 0 1
    outer loop
      vertex -18.5 -29.5 69.5
      vertex -17.5 -28.5 69.5
      vertex -18.5 29.5 69.5
    endloop
  endfacet
  facet normal 0 0 1
    outer loop
      vertex -17.5 -28.5 69.5
      vertex -18.5 -29.5 69.5
      vertex -17.5 -29.5 69.5
    endloop
  endfacet
  facet normal -0 0 1
    outer loop
      vertex -17.5 28.5 69.5
      vertex 17.5 -28.5 69.5
      vertex 17.5 28.5 69.5
    endloop
  endfacet
  facet normal 0 0 1
    outer loop
      vertex 17.5 -28.5 69.5
      vertex -17.5 28.5 69.5
      vertex -17.5 -28.5 69.5
    endloop
  endfacet
  facet normal 0 0 1
    outer loop
      vertex 17.5 28.5 69.5
      vertex 18.5 29.5 69.5
      vertex 17.5 29.5 69.5
    endloop
  endfacet
  facet normal 0 0 1
    outer loop
      vertex 17.5 -28.5 69.5
      vertex 28.5 -17.5 69.5
      vertex 17.5 28.5 69.5
    endloop
  endfacet
  facet normal 0 0 1
    outer loop
      vertex 28.5 -17.5 69.5
      vertex 17.5 -28.5 69.5
      vertex 18.5 -29.5 69.5
    endloop
  endfacet
  facet normal 0 0 1
    outer loop
      vertex 18.5 -29.5 69.5
      vertex 17.5 -28.5 69.5
      vertex 17.5 -29.5 69.5
    endloop
  endfacet
  facet normal -0 0 1
    outer loop
      vertex -29.5 -18.5 69.5
      vertex -18.5 -29.5 69.5
      vertex -28.5 -17.5 69.5
    endloop
  endfacet
  facet normal 0 0 1
    outer loop
      vertex -29.5 -18.5 69.5
      vertex -28.5 -17.5 69.5
      vertex -29.5 -17.5 69.5
    endloop
  endfacet
  facet normal 0 0 1
    outer loop
      vertex -33.5 -33.5 69.5
      vertex -18.5 -29.5 69.5
      vertex -29.5 -18.5 69.5
    endloop
  endfacet
  facet normal 0 0 1
    outer loop
      vertex -33.5 -33.5 69.5
      vertex -29.5 -18.5 69.5
      vertex -33.5 -18.5 69.5
    endloop
  endfacet
  facet normal 0 0 1
    outer loop
      vertex -18.5 -29.5 69.5
      vertex -33.5 -33.5 69.5
      vertex -18.5 -33.5 69.5
    endloop
  endfacet
  facet normal 0 0 1
    outer loop
      vertex -28.5 17.5 69.5
      vertex -29.5 18.5 69.5
      vertex -29.5 17.5 69.5
    endloop
  endfacet
  facet normal 0 0 -1
    outer loop
      vertex -28.5 -28.5 64.5
      vertex 28.5 28.5 64.5
      vertex 28.5 -28.5 64.5
    endloop
  endfacet
  facet normal -0 0 -1
    outer loop
      vertex 28.5 28.5 64.5
      vertex -28.5 -28.5 64.5
      vertex -28.5 28.5 64.5
    endloop
  endfacet
  facet normal 0 -1 0
    outer loop
      vertex -33.5 -33.5 64.5
      vertex -18.5 -33.5 69.5
      vertex -33.5 -33.5 69.5
    endloop
  endfacet
  facet normal 0 -1 -0
    outer loop
      vertex -18.5 -33.5 69.5
      vertex -33.5 -33.5 64.5
      vertex -18.5 -33.5 64.5
    endloop
  endfacet
  facet normal 1 -0 0
    outer loop
      vertex -18.5 29.5 69.5
      vertex -18.5 33.5 65.5
      vertex -18.5 33.5 69.5
    endloop
  endfacet
  facet normal 1 0 0
    outer loop
      vertex -18.5 33.5 65.5
      vertex -18.5 29.5 69.5
      vertex -18.5 29.5 65.5
    endloop
  endfacet
  facet normal -1 0 0
    outer loop
      vertex 18.5 29.5 65.5
      vertex 18.5 33.5 69.5
      vertex 18.5 33.5 65.5
    endloop
  endfacet
  facet normal -1 -0 0
    outer loop
      vertex 18.5 33.5 69.5
      vertex 18.5 29.5 65.5
      vertex 18.5 29.5 69.5
    endloop
  endfacet
  facet normal 0 1 -0
    outer loop
      vertex 18.5 29.5 65.5
      vertex 17.5 29.5 69.5
      vertex 18.5 29.5 69.5
    endloop
  endfacet
  facet normal 0 1 0
    outer loop
      vertex 17.5 29.5 69.5
      vertex 18.5 29.5 65.5
      vertex 17.5 29.5 65.5
    endloop
  endfacet
  facet normal 0 1 -0
    outer loop
      vertex -17.5 29.5 65.5
      vertex -18.5 29.5 69.5
      vertex -17.5 29.5 69.5
    endloop
  endfacet
  facet normal 0 1 0
    outer loop
      vertex -18.5 29.5 69.5
      vertex -17.5 29.5 65.5
      vertex -18.5 29.5 65.5
    endloop
  endfacet
  facet normal 1 -0 0
    outer loop
      vertex -18.5 -33.5 69.5
      vertex -18.5 -29.5 65.5
      vertex -18.5 -29.5 69.5
    endloop
  endfacet
  facet normal 1 0 0
    outer loop
      vertex -18.5 -29.5 65.5
      vertex -18.5 -33.5 69.5
      vertex -18.5 -33.5 65.5
    endloop
  endfacet
  facet normal 0 0 0
    outer loop
      vertex -18.5 -33.5 69.5
      vertex -18.5 -33.5 64.5
      vertex -18.5 -33.5 65.5
    endloop
  endfacet
  facet normal -1 0 0
    outer loop
      vertex 18.5 -33.5 65.5
      vertex 18.5 -29.5 69.5
      vertex 18.5 -29.5 65.5
    endloop
  endfacet
  facet normal -1 -0 0
    outer loop
      vertex 18.5 -29.5 69.5
      vertex 18.5 -33.5 65.5
      vertex 18.5 -33.5 69.5
    endloop
  endfacet
  facet normal 0 0 0
    outer loop
      vertex 18.5 -33.5 65.5
      vertex 18.5 -33.5 64.5
      vertex 18.5 -33.5 69.5
    endloop
  endfacet
  facet normal 0 -1 0
    outer loop
      vertex 17.5 -29.5 65.5
      vertex 18.5 -29.5 69.5
      vertex 17.5 -29.5 69.5
    endloop
  endfacet
  facet normal 0 -1 -0
    outer loop
      vertex 18.5 -29.5 69.5
      vertex 17.5 -29.5 65.5
      vertex 18.5 -29.5 65.5
    endloop
  endfacet
  facet normal 0 -1 0
    outer loop
      vertex -18.5 -29.5 65.5
      vertex -17.5 -29.5 69.5
      vertex -18.5 -29.5 69.5
    endloop
  endfacet
  facet normal 0 -1 -0
    outer loop
      vertex -17.5 -29.5 69.5
      vertex -18.5 -29.5 65.5
      vertex -17.5 -29.5 65.5
    endloop
  endfacet
  facet normal 1 -0 0
    outer loop
      vertex 29.5 17.5 69.5
      vertex 29.5 18.5 65.5
      vertex 29.5 18.5 69.5
    endloop
  endfacet
  facet normal 1 0 0
    outer loop
      vertex 29.5 18.5 65.5
      vertex 29.5 17.5 69.5
      vertex 29.5 17.5 65.5
    endloop
  endfacet
  facet normal 1 -0 0
    outer loop
      vertex 29.5 -18.5 69.5
      vertex 29.5 -17.5 65.5
      vertex 29.5 -17.5 69.5
    endloop
  endfacet
  facet normal 1 0 0
    outer loop
      vertex 29.5 -17.5 65.5
      vertex 29.5 -18.5 69.5
      vertex 29.5 -18.5 65.5
    endloop
  endfacet
  facet normal 0 -1 0
    outer loop
      vertex 29.5 18.5 65.5
      vertex 33.5 18.5 69.5
      vertex 29.5 18.5 69.5
    endloop
  endfacet
  facet normal 0 -1 -0
    outer loop
      vertex 33.5 18.5 69.5
      vertex 29.5 18.5 65.5
      vertex 33.5 18.5 65.5
    endloop
  endfacet
  facet normal 0 0 0
    outer loop
      vertex 33.5 18.5 69.5
      vertex 33.5 18.5 65.5
      vertex 33.5 18.5 64.5
    endloop
  endfacet
  facet normal 0 1 -0
    outer loop
      vertex 33.5 -18.5 65.5
      vertex 29.5 -18.5 69.5
      vertex 33.5 -18.5 69.5
    endloop
  endfacet
  facet normal 0 1 0
    outer loop
      vertex 29.5 -18.5 69.5
      vertex 33.5 -18.5 65.5
      vertex 29.5 -18.5 65.5
    endloop
  endfacet
  facet normal 0 0 0
    outer loop
      vertex 33.5 -18.5 65.5
      vertex 33.5 -18.5 69.5
      vertex 33.5 -18.5 64.5
    endloop
  endfacet
  facet normal -1 0 0
    outer loop
      vertex -29.5 17.5 65.5
      vertex -29.5 18.5 69.5
      vertex -29.5 18.5 65.5
    endloop
  endfacet
  facet normal -1 -0 0
    outer loop
      vertex -29.5 18.5 69.5
      vertex -29.5 17.5 65.5
      vertex -29.5 17.5 69.5
    endloop
  endfacet
  facet normal -1 0 0
    outer loop
      vertex -29.5 -18.5 65.5
      vertex -29.5 -17.5 69.5
      vertex -29.5 -17.5 65.5
    endloop
  endfacet
  facet normal -1 -0 0
    outer loop
      vertex -29.5 -17.5 69.5
      vertex -29.5 -18.5 65.5
      vertex -29.5 -18.5 69.5
    endloop
  endfacet
  facet normal 0 -1 0
    outer loop
      vertex -33.5 18.5 65.5
      vertex -29.5 18.5 69.5
      vertex -33.5 18.5 69.5
    endloop
  endfacet
  facet normal 0 -1 -0
    outer loop
      vertex -29.5 18.5 69.5
      vertex -33.5 18.5 65.5
      vertex -29.5 18.5 65.5
    endloop
  endfacet
  facet normal 0 1 -0
    outer loop
      vertex -29.5 -18.5 65.5
      vertex -33.5 -18.5 69.5
      vertex -29.5 -18.5 69.5
    endloop
  endfacet
  facet normal 0 1 0
    outer loop
      vertex -33.5 -18.5 69.5
      vertex -29.5 -18.5 65.5
      vertex -33.5 -18.5 65.5
    endloop
  endfacet
endsolid OpenSCAD_Model
