solid OpenSCAD_Model
  facet normal -1 0 0
    outer loop
      vertex -37 32 39.5
      vertex -37 37 76.5
      vertex -37 37 -2.5
    endloop
  endfacet
  facet normal -1 0 0
    outer loop
      vertex -37 32 39.5
      vertex -37 37 -2.5
      vertex -37 32 2.5
    endloop
  endfacet
  facet normal -1 0 0
    outer loop
      vertex -37 -37 -2.5
      vertex -37 32 2.5
      vertex -37 37 -2.5
    endloop
  endfacet
  facet normal -1 -0 0
    outer loop
      vertex -37 32 2.5
      vertex -37 -37 -2.5
      vertex -37 -37 2.5
    endloop
  endfacet
  facet normal -1 0 0
    outer loop
      vertex -37 19.5 81.5
      vertex -37 37 76.5
      vertex -37 32 39.5
    endloop
  endfacet
  facet normal -1 0 0
    outer loop
      vertex -37 37 76.5
      vertex -37 19.5 81.5
      vertex -37 37 81.5
    endloop
  endfacet
  facet normal -1 0 0
    outer loop
      vertex -37 32 39.5
      vertex -37 -19.5 81.5
      vertex -37 19.5 81.5
    endloop
  endfacet
  facet normal -1 0 0
    outer loop
      vertex -37 -32 39.5
      vertex -37 -19.5 81.5
      vertex -37 32 39.5
    endloop
  endfacet
  facet normal -1 0 0
    outer loop
      vertex -37 -32 76.5
      vertex -37 -19.5 81.5
      vertex -37 -32 39.5
    endloop
  endfacet
  facet normal -1 0 0
    outer loop
      vertex -37 -37 81.5
      vertex -37 -32 76.5
      vertex -37 -37 76.5
    endloop
  endfacet
  facet normal -1 0 0
    outer loop
      vertex -37 -32 76.5
      vertex -37 -37 81.5
      vertex -37 -19.5 81.5
    endloop
  endfacet
  facet normal -1 0 0
    outer loop
      vertex -37 -37 39.5
      vertex -37 -32 39.5
      vertex -37 -37 2.5
    endloop
  endfacet
  facet normal -1 0 0
    outer loop
      vertex -37 -32 39.5
      vertex -37 -37 39.5
      vertex -37 -32 76.5
    endloop
  endfacet
  facet normal -1 -0 0
    outer loop
      vertex -37 -32 76.5
      vertex -37 -37 39.5
      vertex -37 -37 76.5
    endloop
  endfacet
  facet normal 0 0 1
    outer loop
      vertex 15 37 2.5
      vertex 7.5 35 2.5
      vertex 15 35 2.5
    endloop
  endfacet
  facet normal 0 0 1
    outer loop
      vertex 7.5 35 2.5
      vertex -7.5 35 2.5
      vertex 7.5 32 2.5
    endloop
  endfacet
  facet normal 0 0 1
    outer loop
      vertex 15 37 2.5
      vertex -7.5 35 2.5
      vertex 7.5 35 2.5
    endloop
  endfacet
  facet normal -0 0 1
    outer loop
      vertex -15 37 2.5
      vertex -7.5 35 2.5
      vertex 15 37 2.5
    endloop
  endfacet
  facet normal 0 0 1
    outer loop
      vertex -7.5 35 2.5
      vertex -15 37 2.5
      vertex -15 35 2.5
    endloop
  endfacet
  facet normal -0 0 1
    outer loop
      vertex 15 32 2.5
      vertex 32 -7.5 2.5
      vertex 32 32 2.5
    endloop
  endfacet
  facet normal -0 0 1
    outer loop
      vertex 7.5 32 2.5
      vertex 32 -7.5 2.5
      vertex 15 32 2.5
    endloop
  endfacet
  facet normal 0 0 1
    outer loop
      vertex -7.5 -32 2.5
      vertex 32 -7.5 2.5
      vertex 7.5 32 2.5
    endloop
  endfacet
  facet normal 0 0 1
    outer loop
      vertex 32 -7.5 2.5
      vertex -7.5 -32 2.5
      vertex 32 -22.5 2.5
    endloop
  endfacet
  facet normal 0 0 1
    outer loop
      vertex -7.5 32 2.5
      vertex 7.5 32 2.5
      vertex -7.5 35 2.5
    endloop
  endfacet
  facet normal 0 0 1
    outer loop
      vertex -7.5 -32 2.5
      vertex 7.5 32 2.5
      vertex -7.5 32 2.5
    endloop
  endfacet
  facet normal 0 0 1
    outer loop
      vertex 32 -22.5 2.5
      vertex -7.5 -32 2.5
      vertex 32 -32 2.5
    endloop
  endfacet
  facet normal 0 0 1
    outer loop
      vertex -32 7.5 2.5
      vertex -7.5 32 2.5
      vertex -15 32 2.5
    endloop
  endfacet
  facet normal 0 0 1
    outer loop
      vertex -7.5 32 2.5
      vertex -32 7.5 2.5
      vertex -7.5 -32 2.5
    endloop
  endfacet
  facet normal 0 0 1
    outer loop
      vertex -32 22.5 2.5
      vertex -15 32 2.5
      vertex -32 32 2.5
    endloop
  endfacet
  facet normal 0 0 1
    outer loop
      vertex -32 7.5 2.5
      vertex -15 32 2.5
      vertex -32 22.5 2.5
    endloop
  endfacet
  facet normal 0 0 1
    outer loop
      vertex -7.5 -32 2.5
      vertex -32 7.5 2.5
      vertex -22.5 -32 2.5
    endloop
  endfacet
  facet normal 0 0 1
    outer loop
      vertex -22.5 -32 2.5
      vertex -32 7.5 2.5
      vertex -32 -32 2.5
    endloop
  endfacet
  facet normal 0 0 0
    outer loop
      vertex 37 -32 2.5
      vertex 37 -37 2.5
      vertex 37 37 2.5
    endloop
  endfacet
  facet normal 1 -0 0
    outer loop
      vertex 37 -37 2.5
      vertex 37 37 -2.5
      vertex 37 37 2.5
    endloop
  endfacet
  facet normal 1 0 0
    outer loop
      vertex 37 37 -2.5
      vertex 37 -37 2.5
      vertex 37 -37 -2.5
    endloop
  endfacet
  facet normal 1 -0 0
    outer loop
      vertex 37 19.5 81.5
      vertex 37 37 76.5
      vertex 37 37 81.5
    endloop
  endfacet
  facet normal 1 0 0
    outer loop
      vertex 37 37 76.5
      vertex 37 22.5 49.5
      vertex 37 37 39.5
    endloop
  endfacet
  facet normal 1 0 0
    outer loop
      vertex 37 22.5 29.5
      vertex 37 37 39.5
      vertex 37 22.5 49.5
    endloop
  endfacet
  facet normal 1 0 0
    outer loop
      vertex 37 37 76.5
      vertex 37 19.5 81.5
      vertex 37 22.5 49.5
    endloop
  endfacet
  facet normal 1 -0 0
    outer loop
      vertex 37 -19.5 81.5
      vertex 37 22.5 49.5
      vertex 37 19.5 81.5
    endloop
  endfacet
  facet normal 1 0 0
    outer loop
      vertex 37 -19.5 81.5
      vertex 37 -22.5 49.5
      vertex 37 22.5 49.5
    endloop
  endfacet
  facet normal 1 0 0
    outer loop
      vertex 37 -22.5 49.5
      vertex 37 -32 39.5
      vertex 37 -22.5 29.5
    endloop
  endfacet
  facet normal 1 -0 0
    outer loop
      vertex 37 -37 76.5
      vertex 37 -22.5 49.5
      vertex 37 -19.5 81.5
    endloop
  endfacet
  facet normal 1 0 0
    outer loop
      vertex 37 -37 76.5
      vertex 37 -19.5 81.5
      vertex 37 -37 81.5
    endloop
  endfacet
  facet normal 1 0 0
    outer loop
      vertex 37 -37 39.5
      vertex 37 -22.5 49.5
      vertex 37 -37 76.5
    endloop
  endfacet
  facet normal 1 0 0
    outer loop
      vertex 37 -22.5 49.5
      vertex 37 -37 39.5
      vertex 37 -32 39.5
    endloop
  endfacet
  facet normal 1 0 0
    outer loop
      vertex 37 37 39.5
      vertex 37 22.5 29.5
      vertex 37 37 2.5
    endloop
  endfacet
  facet normal 0 1 -0
    outer loop
      vertex 37 37 -2.5
      vertex 32 37 2.5
      vertex 37 37 2.5
    endloop
  endfacet
  facet normal 0 1 0
    outer loop
      vertex 32 37 2.5
      vertex 37 37 -2.5
      vertex 15 37 2.5
    endloop
  endfacet
  facet normal 0 1 0
    outer loop
      vertex 15 37 2.5
      vertex 37 37 -2.5
      vertex -15 37 2.5
    endloop
  endfacet
  facet normal 0 1 -0
    outer loop
      vertex 37 37 76.5
      vertex 19.5 37 81.5
      vertex 37 37 81.5
    endloop
  endfacet
  facet normal 0 1 0
    outer loop
      vertex 15 37 49.5
      vertex 19.5 37 81.5
      vertex 37 37 76.5
    endloop
  endfacet
  facet normal 0 1 0
    outer loop
      vertex 19.5 37 81.5
      vertex 15 37 49.5
      vertex -19.5 37 81.5
    endloop
  endfacet
  facet normal 0 1 -0
    outer loop
      vertex -15 37 49.5
      vertex -19.5 37 81.5
      vertex 15 37 49.5
    endloop
  endfacet
  facet normal -0 1 0
    outer loop
      vertex -37 37 76.5
      vertex -19.5 37 81.5
      vertex -15 37 49.5
    endloop
  endfacet
  facet normal 0 1 0
    outer loop
      vertex 32 37 39.5
      vertex 37 37 76.5
      vertex 37 37 39.5
    endloop
  endfacet
  facet normal 0 1 0
    outer loop
      vertex 37 37 76.5
      vertex 32 37 39.5
      vertex 15 37 49.5
    endloop
  endfacet
  facet normal 0 1 0
    outer loop
      vertex 15 37 2.5
      vertex 32 37 39.5
      vertex 32 37 2.5
    endloop
  endfacet
  facet normal 0 1 0
    outer loop
      vertex 32 37 39.5
      vertex 15 37 2.5
      vertex 15 37 49.5
    endloop
  endfacet
  facet normal 0 1 0
    outer loop
      vertex -19.5 37 81.5
      vertex -37 37 76.5
      vertex -37 37 81.5
    endloop
  endfacet
  facet normal 0 1 0
    outer loop
      vertex -37 37 -2.5
      vertex -15 37 49.5
      vertex -15 37 2.5
    endloop
  endfacet
  facet normal 0 1 0
    outer loop
      vertex -15 37 49.5
      vertex -37 37 -2.5
      vertex -37 37 76.5
    endloop
  endfacet
  facet normal 0 1 0
    outer loop
      vertex -37 37 -2.5
      vertex -15 37 2.5
      vertex 37 37 -2.5
    endloop
  endfacet
  facet normal 0 0 -1
    outer loop
      vertex -37 -37 -2.5
      vertex 37 37 -2.5
      vertex 37 -37 -2.5
    endloop
  endfacet
  facet normal -0 0 -1
    outer loop
      vertex 37 37 -2.5
      vertex -37 -37 -2.5
      vertex -37 37 -2.5
    endloop
  endfacet
  facet normal 0 -1 0
    outer loop
      vertex -37 -37 -2.5
      vertex -32 -37 2.5
      vertex -37 -37 2.5
    endloop
  endfacet
  facet normal 0 -1 0
    outer loop
      vertex 37 -37 -2.5
      vertex -32 -37 2.5
      vertex -37 -37 -2.5
    endloop
  endfacet
  facet normal 0 -1 0
    outer loop
      vertex -32 -37 2.5
      vertex 37 -37 -2.5
      vertex 37 -37 2.5
    endloop
  endfacet
  facet normal 0 -1 0
    outer loop
      vertex -37 -37 76.5
      vertex -19.5 -37 81.5
      vertex -37 -37 81.5
    endloop
  endfacet
  facet normal 0 -1 0
    outer loop
      vertex -32 -37 39.5
      vertex -19.5 -37 81.5
      vertex -37 -37 76.5
    endloop
  endfacet
  facet normal 0 -1 -0
    outer loop
      vertex -19.5 -37 81.5
      vertex -32 -37 39.5
      vertex 19.5 -37 81.5
    endloop
  endfacet
  facet normal 0 -1 0
    outer loop
      vertex 19.5 -37 81.5
      vertex 37 -37 76.5
      vertex 37 -37 81.5
    endloop
  endfacet
  facet normal 0 -1 0
    outer loop
      vertex -32 -37 39.5
      vertex -37 -37 76.5
      vertex -37 -37 39.5
    endloop
  endfacet
  facet normal 0 -1 0
    outer loop
      vertex 37 -37 39.5
      vertex 19.5 -37 81.5
      vertex -32 -37 39.5
    endloop
  endfacet
  facet normal 0 -1 0
    outer loop
      vertex 19.5 -37 81.5
      vertex 37 -37 39.5
      vertex 37 -37 76.5
    endloop
  endfacet
  facet normal 0 -1 0
    outer loop
      vertex -32 -37 2.5
      vertex 37 -37 39.5
      vertex -32 -37 39.5
    endloop
  endfacet
  facet normal 0 -1 -0
    outer loop
      vertex 37 -37 39.5
      vertex -32 -37 2.5
      vertex 37 -37 2.5
    endloop
  endfacet
  facet normal 0 -1 0
    outer loop
      vertex 15 32 2.5
      vertex 32 32 39.5
      vertex 15 32 49.5
    endloop
  endfacet
  facet normal 0 -1 -0
    outer loop
      vertex 32 32 39.5
      vertex 15 32 2.5
      vertex 32 32 2.5
    endloop
  endfacet
  facet normal 0 -1 0
    outer loop
      vertex -15 32 49.5
      vertex -20 32 76.5
      vertex -32 32 76.5
    endloop
  endfacet
  facet normal 0 -1 0
    outer loop
      vertex -20 32 76.5
      vertex -15 32 49.5
      vertex 20 32 76.5
    endloop
  endfacet
  facet normal 0 -1 0
    outer loop
      vertex 20 32 76.5
      vertex -15 32 49.5
      vertex 15 32 49.5
    endloop
  endfacet
  facet normal 0 -1 0
    outer loop
      vertex -32 32 39.5
      vertex -15 32 49.5
      vertex -32 32 76.5
    endloop
  endfacet
  facet normal 0 -1 0
    outer loop
      vertex -15 32 2.5
      vertex -32 32 39.5
      vertex -32 32 2.5
    endloop
  endfacet
  facet normal 0 -1 0
    outer loop
      vertex -32 32 39.5
      vertex -15 32 2.5
      vertex -15 32 49.5
    endloop
  endfacet
  facet normal 0 -1 -0
    outer loop
      vertex 20 32 76.5
      vertex 15 32 49.5
      vertex 37 32 76.5
    endloop
  endfacet
  facet normal 0 -1 0
    outer loop
      vertex 32 32 39.5
      vertex 37 32 76.5
      vertex 15 32 49.5
    endloop
  endfacet
  facet normal 0 -1 -0
    outer loop
      vertex 37 32 76.5
      vertex 32 32 39.5
      vertex 37 32 39.5
    endloop
  endfacet
  facet normal -1 0 0
    outer loop
      vertex 22.5 -35 -2.5
      vertex 22.5 -32 2.5
      vertex 22.5 -32 -2.5
    endloop
  endfacet
  facet normal -1 -0 0
    outer loop
      vertex 22.5 -32 2.5
      vertex 22.5 -35 -2.5
      vertex 22.5 -35 2.5
    endloop
  endfacet
  facet normal 0 1 0
    outer loop
      vertex -7.5 -32 2.5
      vertex 32 -32 39.5
      vertex 32 -32 2.5
    endloop
  endfacet
  facet normal 0 1 0
    outer loop
      vertex 32 -32 39.5
      vertex -7.5 -32 2.5
      vertex -32 -32 39.5
    endloop
  endfacet
  facet normal 0 1 -0
    outer loop
      vertex 32 -32 39.5
      vertex 20 -32 76.5
      vertex 32 -32 76.5
    endloop
  endfacet
  facet normal 0 1 0
    outer loop
      vertex 20 -32 76.5
      vertex 32 -32 39.5
      vertex -20 -32 76.5
    endloop
  endfacet
  facet normal 0 1 0
    outer loop
      vertex -20 -32 76.5
      vertex 32 -32 39.5
      vertex -32 -32 39.5
    endloop
  endfacet
  facet normal 0 1 0
    outer loop
      vertex -20 -32 76.5
      vertex -32 -32 39.5
      vertex -37 -32 76.5
    endloop
  endfacet
  facet normal 0 1 0
    outer loop
      vertex -37 -32 76.5
      vertex -32 -32 39.5
      vertex -37 -32 39.5
    endloop
  endfacet
  facet normal -1 0 0
    outer loop
      vertex 32 22.5 29.5
      vertex 32 32 39.5
      vertex 32 32 2.5
    endloop
  endfacet
  facet normal -1 0 0
    outer loop
      vertex 32 22.5 49.5
      vertex 32 32 39.5
      vertex 32 22.5 29.5
    endloop
  endfacet
  facet normal -1 0 0
    outer loop
      vertex 32 -7.5 2.5
      vertex 32 22.5 29.5
      vertex 32 32 2.5
    endloop
  endfacet
  facet normal -1 -0 0
    outer loop
      vertex 32 22.5 29.5
      vertex 32 -7.5 2.5
      vertex 32 -22.5 29.5
    endloop
  endfacet
  facet normal -1 0 0
    outer loop
      vertex 32 32 39.5
      vertex 32 22.5 49.5
      vertex 32 32 76.5
    endloop
  endfacet
  facet normal -1 0 0
    outer loop
      vertex 32 22.5 49.5
      vertex 32 20 76.5
      vertex 32 32 76.5
    endloop
  endfacet
  facet normal -1 0 0
    outer loop
      vertex 32 22.5 49.5
      vertex 32 -20 76.5
      vertex 32 20 76.5
    endloop
  endfacet
  facet normal -1 0 0
    outer loop
      vertex 32 -22.5 49.5
      vertex 32 -20 76.5
      vertex 32 22.5 49.5
    endloop
  endfacet
  facet normal -1 0 0
    outer loop
      vertex 32 -37 39.5
      vertex 32 -22.5 49.5
      vertex 32 -32 39.5
    endloop
  endfacet
  facet normal -1 -0 0
    outer loop
      vertex 32 -22.5 49.5
      vertex 32 -37 39.5
      vertex 32 -37 76.5
    endloop
  endfacet
  facet normal -1 0 0
    outer loop
      vertex 32 -22.5 49.5
      vertex 32 -37 76.5
      vertex 32 -20 76.5
    endloop
  endfacet
  facet normal -1 0 0
    outer loop
      vertex 32 -22.5 29.5
      vertex 32 -32 39.5
      vertex 32 -22.5 49.5
    endloop
  endfacet
  facet normal 0 -1 0
    outer loop
      vertex 32 22.5 -2.5
      vertex 35 22.5 2.5
      vertex 32 22.5 2.5
    endloop
  endfacet
  facet normal 0 -1 -0
    outer loop
      vertex 35 22.5 2.5
      vertex 32 22.5 -2.5
      vertex 35 22.5 -2.5
    endloop
  endfacet
  facet normal 1 -0 0
    outer loop
      vertex -35 7.5 2.5
      vertex -35 22.5 -2.5
      vertex -35 22.5 2.5
    endloop
  endfacet
  facet normal 1 0 0
    outer loop
      vertex -35 22.5 -2.5
      vertex -35 7.5 2.5
      vertex -35 7.5 -2.5
    endloop
  endfacet
  facet normal 1 -0 0
    outer loop
      vertex -32 20 76.5
      vertex -32 32 39.5
      vertex -32 32 76.5
    endloop
  endfacet
  facet normal 1 0 0
    outer loop
      vertex -32 -32 39.5
      vertex -32 32 39.5
      vertex -32 20 76.5
    endloop
  endfacet
  facet normal 1 0 0
    outer loop
      vertex -32 -32 39.5
      vertex -32 20 76.5
      vertex -32 -20 76.5
    endloop
  endfacet
  facet normal 1 0 0
    outer loop
      vertex -32 -32 39.5
      vertex -32 -20 76.5
      vertex -32 -32 76.5
    endloop
  endfacet
  facet normal 1 0 0
    outer loop
      vertex -32 32 39.5
      vertex -32 -32 39.5
      vertex -32 7.5 2.5
    endloop
  endfacet
  facet normal 1 0 0
    outer loop
      vertex -32 7.5 2.5
      vertex -32 -32 39.5
      vertex -32 -32 2.5
    endloop
  endfacet
  facet normal -1 0 0
    outer loop
      vertex 35 -22.5 -2.5
      vertex 35 -7.5 2.5
      vertex 35 -7.5 -2.5
    endloop
  endfacet
  facet normal -1 -0 0
    outer loop
      vertex 35 -7.5 2.5
      vertex 35 -22.5 -2.5
      vertex 35 -22.5 2.5
    endloop
  endfacet
  facet normal 0 1 -0
    outer loop
      vertex -32 -22.5 -2.5
      vertex -35 -22.5 2.5
      vertex -32 -22.5 2.5
    endloop
  endfacet
  facet normal 0 1 0
    outer loop
      vertex -35 -22.5 2.5
      vertex -32 -22.5 -2.5
      vertex -35 -22.5 -2.5
    endloop
  endfacet
  facet normal 1 -0 0
    outer loop
      vertex 32 -37 76.5
      vertex 32 -32 39.5
      vertex 32 -32 76.5
    endloop
  endfacet
  facet normal 1 0 0
    outer loop
      vertex 32 -32 39.5
      vertex 32 -37 76.5
      vertex 32 -37 39.5
    endloop
  endfacet
  facet normal 0 1 0
    outer loop
      vertex -22.5 -32 2.5
      vertex -32 -32 2.5
      vertex -32 -32 39.5
    endloop
  endfacet
  facet normal 0 1 0
    outer loop
      vertex -7.5 -32 2.5
      vertex -22.5 -32 2.5
      vertex -32 -32 39.5
    endloop
  endfacet
  facet normal -0 0 1
    outer loop
      vertex -37 -32 76.5
      vertex -20 -37 76.5
      vertex -20 -32 76.5
    endloop
  endfacet
  facet normal 0 0 1
    outer loop
      vertex -20 -37 76.5
      vertex -37 -32 76.5
      vertex -37 -37 76.5
    endloop
  endfacet
  facet normal -0 0 1
    outer loop
      vertex 20 -32 76.5
      vertex 32 -37 76.5
      vertex 32 -32 76.5
    endloop
  endfacet
  facet normal 0 0 1
    outer loop
      vertex 32 -37 76.5
      vertex 20 -32 76.5
      vertex 20 -37 76.5
    endloop
  endfacet
  facet normal -0 0 1
    outer loop
      vertex -19.5 -33 81.5
      vertex 19.5 -37 81.5
      vertex 19.5 -33 81.5
    endloop
  endfacet
  facet normal 0 0 1
    outer loop
      vertex 19.5 -37 81.5
      vertex -19.5 -33 81.5
      vertex -19.5 -37 81.5
    endloop
  endfacet
  facet normal 1 -0 0
    outer loop
      vertex 22.5 -35 2.5
      vertex 22.5 -32 -2.5
      vertex 22.5 -32 2.5
    endloop
  endfacet
  facet normal 1 0 0
    outer loop
      vertex 22.5 -32 -2.5
      vertex 22.5 -35 2.5
      vertex 22.5 -35 -2.5
    endloop
  endfacet
  facet normal 1 -0 0
    outer loop
      vertex 37 -37 39.5
      vertex 37 -32 2.5
      vertex 37 -32 39.5
    endloop
  endfacet
  facet normal 1 0 0
    outer loop
      vertex 37 -32 2.5
      vertex 37 -37 39.5
      vertex 37 -37 2.5
    endloop
  endfacet
  facet normal -0 0 1
    outer loop
      vertex 7.5 35 2.5
      vertex 15 32 2.5
      vertex 15 35 2.5
    endloop
  endfacet
  facet normal 0 0 1
    outer loop
      vertex 15 32 2.5
      vertex 7.5 35 2.5
      vertex 7.5 32 2.5
    endloop
  endfacet
  facet normal -0 0 1
    outer loop
      vertex -15 35 2.5
      vertex -7.5 32 2.5
      vertex -7.5 35 2.5
    endloop
  endfacet
  facet normal 0 0 1
    outer loop
      vertex -7.5 32 2.5
      vertex -15 35 2.5
      vertex -15 32 2.5
    endloop
  endfacet
  facet normal -0 0 1
    outer loop
      vertex 20 37 76.5
      vertex 37 32 76.5
      vertex 37 37 76.5
    endloop
  endfacet
  facet normal 0 0 1
    outer loop
      vertex 37 32 76.5
      vertex 20 37 76.5
      vertex 20 32 76.5
    endloop
  endfacet
  facet normal -0 0 1
    outer loop
      vertex -32 37 76.5
      vertex -20 32 76.5
      vertex -20 37 76.5
    endloop
  endfacet
  facet normal 0 0 1
    outer loop
      vertex -20 32 76.5
      vertex -32 37 76.5
      vertex -32 32 76.5
    endloop
  endfacet
  facet normal 1 0 0
    outer loop
      vertex -15 37 49.5
      vertex -15 35 2.5
      vertex -15 37 2.5
    endloop
  endfacet
  facet normal 1 -0 0
    outer loop
      vertex -15 32 49.5
      vertex -15 35 2.5
      vertex -15 37 49.5
    endloop
  endfacet
  facet normal 1 0 0
    outer loop
      vertex -15 32 2.5
      vertex -15 35 2.5
      vertex -15 32 49.5
    endloop
  endfacet
  facet normal -1 0 0
    outer loop
      vertex 15 35 2.5
      vertex 15 37 49.5
      vertex 15 37 2.5
    endloop
  endfacet
  facet normal -1 0 0
    outer loop
      vertex 15 32 49.5
      vertex 15 35 2.5
      vertex 15 32 2.5
    endloop
  endfacet
  facet normal -1 0 0
    outer loop
      vertex 15 35 2.5
      vertex 15 32 49.5
      vertex 15 37 49.5
    endloop
  endfacet
  facet normal 0 0 -1
    outer loop
      vertex -15 32 49.5
      vertex 15 37 49.5
      vertex 15 32 49.5
    endloop
  endfacet
  facet normal -0 0 -1
    outer loop
      vertex 15 37 49.5
      vertex -15 32 49.5
      vertex -15 37 49.5
    endloop
  endfacet
  facet normal -0 0 1
    outer loop
      vertex -19.5 37 81.5
      vertex 19.5 33 81.5
      vertex 19.5 37 81.5
    endloop
  endfacet
  facet normal 0 0 1
    outer loop
      vertex 19.5 33 81.5
      vertex -19.5 37 81.5
      vertex -19.5 33 81.5
    endloop
  endfacet
  facet normal 0 -1 0
    outer loop
      vertex -37 -32 39.5
      vertex -32 -32 76.5
      vertex -37 -32 76.5
    endloop
  endfacet
  facet normal 0 -1 -0
    outer loop
      vertex -32 -32 76.5
      vertex -37 -32 39.5
      vertex -32 -32 39.5
    endloop
  endfacet
  facet normal 1 0 0
    outer loop
      vertex -32 22.5 2.5
      vertex -32 32 2.5
      vertex -32 32 39.5
    endloop
  endfacet
  facet normal 1 0 -0
    outer loop
      vertex -32 22.5 2.5
      vertex -32 32 39.5
      vertex -32 7.5 2.5
    endloop
  endfacet
  facet normal -1 -0 0
    outer loop
      vertex -37 32 39.5
      vertex -37 32 2.5
      vertex -37 -32 39.5
    endloop
  endfacet
  facet normal -1 0 -0
    outer loop
      vertex -37 -32 39.5
      vertex -37 32 2.5
      vertex -37 -37 2.5
    endloop
  endfacet
  facet normal -0 0 1
    outer loop
      vertex -37 37 76.5
      vertex -32 32 76.5
      vertex -32 37 76.5
    endloop
  endfacet
  facet normal 0 0 1
    outer loop
      vertex -37 20 76.5
      vertex -32 32 76.5
      vertex -37 37 76.5
    endloop
  endfacet
  facet normal 0 0 1
    outer loop
      vertex -32 32 76.5
      vertex -37 20 76.5
      vertex -32 20 76.5
    endloop
  endfacet
  facet normal -0 0 1
    outer loop
      vertex -37 -20 76.5
      vertex -32 -32 76.5
      vertex -32 -20 76.5
    endloop
  endfacet
  facet normal 0 0 1
    outer loop
      vertex -32 -32 76.5
      vertex -37 -20 76.5
      vertex -37 -32 76.5
    endloop
  endfacet
  facet normal -0 0 1
    outer loop
      vertex -37 19.5 81.5
      vertex -33 -19.5 81.5
      vertex -33 19.5 81.5
    endloop
  endfacet
  facet normal 0 0 1
    outer loop
      vertex -33 -19.5 81.5
      vertex -37 19.5 81.5
      vertex -37 -19.5 81.5
    endloop
  endfacet
  facet normal 0 -1 0
    outer loop
      vertex -35 -22.5 -2.5
      vertex -32 -22.5 2.5
      vertex -35 -22.5 2.5
    endloop
  endfacet
  facet normal 0 -1 -0
    outer loop
      vertex -32 -22.5 2.5
      vertex -35 -22.5 -2.5
      vertex -32 -22.5 -2.5
    endloop
  endfacet
  facet normal -1 0 0
    outer loop
      vertex -35 7.5 -2.5
      vertex -35 22.5 2.5
      vertex -35 22.5 -2.5
    endloop
  endfacet
  facet normal -1 -0 0
    outer loop
      vertex -35 22.5 2.5
      vertex -35 7.5 -2.5
      vertex -35 7.5 2.5
    endloop
  endfacet
  facet normal 0 -1 0
    outer loop
      vertex -37 -37 2.5
      vertex -32 -37 39.5
      vertex -37 -37 39.5
    endloop
  endfacet
  facet normal 0 -1 -0
    outer loop
      vertex -32 -37 39.5
      vertex -37 -37 2.5
      vertex -32 -37 2.5
    endloop
  endfacet
  facet normal 0 1 -0
    outer loop
      vertex 37 32 39.5
      vertex 32 32 76.5
      vertex 37 32 76.5
    endloop
  endfacet
  facet normal 0 1 0
    outer loop
      vertex 32 32 76.5
      vertex 37 32 39.5
      vertex 32 32 39.5
    endloop
  endfacet
  facet normal -1 0 0
    outer loop
      vertex 32 -32 39.5
      vertex 32 -22.5 29.5
      vertex 32 -32 2.5
    endloop
  endfacet
  facet normal -1 0 -0
    outer loop
      vertex 32 -22.5 29.5
      vertex 32 -22.5 2.5
      vertex 32 -32 2.5
    endloop
  endfacet
  facet normal -1 0 0
    outer loop
      vertex 32 -22.5 29.5
      vertex 32 -7.5 2.5
      vertex 32 -22.5 2.5
    endloop
  endfacet
  facet normal 1 0 0
    outer loop
      vertex 37 -32 2.5
      vertex 37 -22.5 29.5
      vertex 37 -32 39.5
    endloop
  endfacet
  facet normal 1 -0 0
    outer loop
      vertex 37 -22.5 29.5
      vertex 37 -32 2.5
      vertex 37 22.5 29.5
    endloop
  endfacet
  facet normal 1 0 0
    outer loop
      vertex 37 37 2.5
      vertex 37 22.5 29.5
      vertex 37 -32 2.5
    endloop
  endfacet
  facet normal -0 0 1
    outer loop
      vertex 32 -20 76.5
      vertex 37 -37 76.5
      vertex 37 -20 76.5
    endloop
  endfacet
  facet normal 0 0 1
    outer loop
      vertex 37 -37 76.5
      vertex 32 -20 76.5
      vertex 32 -37 76.5
    endloop
  endfacet
  facet normal -0 0 1
    outer loop
      vertex 32 32 76.5
      vertex 37 20 76.5
      vertex 37 32 76.5
    endloop
  endfacet
  facet normal 0 0 1
    outer loop
      vertex 37 20 76.5
      vertex 32 32 76.5
      vertex 32 20 76.5
    endloop
  endfacet
  facet normal 0 -1 0
    outer loop
      vertex 32 22.5 29.5
      vertex 37 22.5 49.5
      vertex 32 22.5 49.5
    endloop
  endfacet
  facet normal 0 -1 -0
    outer loop
      vertex 37 22.5 49.5
      vertex 32 22.5 29.5
      vertex 37 22.5 29.5
    endloop
  endfacet
  facet normal 0 1 -0
    outer loop
      vertex 37 -22.5 29.5
      vertex 32 -22.5 49.5
      vertex 37 -22.5 49.5
    endloop
  endfacet
  facet normal 0 1 0
    outer loop
      vertex 32 -22.5 49.5
      vertex 37 -22.5 29.5
      vertex 32 -22.5 29.5
    endloop
  endfacet
  facet normal -0 0 1
    outer loop
      vertex 32 22.5 29.5
      vertex 37 -22.5 29.5
      vertex 37 22.5 29.5
    endloop
  endfacet
  facet normal 0 0 1
    outer loop
      vertex 37 -22.5 29.5
      vertex 32 22.5 29.5
      vertex 32 -22.5 29.5
    endloop
  endfacet
  facet normal 0 0 -1
    outer loop
      vertex 32 -22.5 49.5
      vertex 37 22.5 49.5
      vertex 37 -22.5 49.5
    endloop
  endfacet
  facet normal -0 0 -1
    outer loop
      vertex 37 22.5 49.5
      vertex 32 -22.5 49.5
      vertex 32 22.5 49.5
    endloop
  endfacet
  facet normal -0 0 1
    outer loop
      vertex 33 19.5 81.5
      vertex 37 -19.5 81.5
      vertex 37 19.5 81.5
    endloop
  endfacet
  facet normal 0 0 1
    outer loop
      vertex 37 -19.5 81.5
      vertex 33 19.5 81.5
      vertex 33 -19.5 81.5
    endloop
  endfacet
  facet normal 0 1 -0
    outer loop
      vertex 35 22.5 -2.5
      vertex 32 22.5 2.5
      vertex 35 22.5 2.5
    endloop
  endfacet
  facet normal 0 1 0
    outer loop
      vertex 32 22.5 2.5
      vertex 35 22.5 -2.5
      vertex 32 22.5 -2.5
    endloop
  endfacet
  facet normal 1 -0 0
    outer loop
      vertex 35 -22.5 2.5
      vertex 35 -7.5 -2.5
      vertex 35 -7.5 2.5
    endloop
  endfacet
  facet normal 1 0 0
    outer loop
      vertex 35 -7.5 -2.5
      vertex 35 -22.5 2.5
      vertex 35 -22.5 -2.5
    endloop
  endfacet
  facet normal 0 1 -0
    outer loop
      vertex 37 37 2.5
      vertex 32 37 39.5
      vertex 37 37 39.5
    endloop
  endfacet
  facet normal 0 1 0
    outer loop
      vertex 32 37 39.5
      vertex 37 37 2.5
      vertex 32 37 2.5
    endloop
  endfacet
  facet normal 0 0 1
    outer loop
      vertex 37 37 81.5
      vertex 33 19.5 81.5
      vertex 37 19.5 81.5
    endloop
  endfacet
  facet normal 0 0 1
    outer loop
      vertex 37 37 81.5
      vertex 19.5 33 81.5
      vertex 33 19.5 81.5
    endloop
  endfacet
  facet normal 0 0 1
    outer loop
      vertex 19.5 33 81.5
      vertex 37 37 81.5
      vertex 19.5 37 81.5
    endloop
  endfacet
  facet normal -0 0 1
    outer loop
      vertex 33 -19.5 81.5
      vertex 37 -37 81.5
      vertex 37 -19.5 81.5
    endloop
  endfacet
  facet normal 0 0 1
    outer loop
      vertex 33 19.5 81.5
      vertex 19.5 33 81.5
      vertex 33 -19.5 81.5
    endloop
  endfacet
  facet normal 0 0 1
    outer loop
      vertex 19.5 -33 81.5
      vertex 33 -19.5 81.5
      vertex 19.5 33 81.5
    endloop
  endfacet
  facet normal 0 0 1
    outer loop
      vertex 33 -19.5 81.5
      vertex 19.5 -33 81.5
      vertex 37 -37 81.5
    endloop
  endfacet
  facet normal 0 0 1
    outer loop
      vertex 37 -37 81.5
      vertex 19.5 -33 81.5
      vertex 19.5 -37 81.5
    endloop
  endfacet
  facet normal -0 0 1
    outer loop
      vertex -37 37 81.5
      vertex -19.5 33 81.5
      vertex -19.5 37 81.5
    endloop
  endfacet
  facet normal 0 0 1
    outer loop
      vertex -19.5 33 81.5
      vertex -33 19.5 81.5
      vertex -19.5 -33 81.5
    endloop
  endfacet
  facet normal -0 0 1
    outer loop
      vertex -33 -19.5 81.5
      vertex -19.5 -33 81.5
      vertex -33 19.5 81.5
    endloop
  endfacet
  facet normal 0 0 1
    outer loop
      vertex -19.5 33 81.5
      vertex -37 37 81.5
      vertex -33 19.5 81.5
    endloop
  endfacet
  facet normal 0 0 1
    outer loop
      vertex -33 19.5 81.5
      vertex -37 37 81.5
      vertex -37 19.5 81.5
    endloop
  endfacet
  facet normal -0 0 1
    outer loop
      vertex -19.5 33 81.5
      vertex 19.5 -33 81.5
      vertex 19.5 33 81.5
    endloop
  endfacet
  facet normal 0 0 1
    outer loop
      vertex 19.5 -33 81.5
      vertex -19.5 33 81.5
      vertex -19.5 -33 81.5
    endloop
  endfacet
  facet normal 0 0 1
    outer loop
      vertex -37 -37 81.5
      vertex -19.5 -33 81.5
      vertex -33 -19.5 81.5
    endloop
  endfacet
  facet normal 0 0 1
    outer loop
      vertex -37 -37 81.5
      vertex -33 -19.5 81.5
      vertex -37 -19.5 81.5
    endloop
  endfacet
  facet normal 0 0 1
    outer loop
      vertex -19.5 -33 81.5
      vertex -37 -37 81.5
      vertex -19.5 -37 81.5
    endloop
  endfacet
  facet normal 0 0 -1
    outer loop
      vertex -37 -37 76.5
      vertex -20 -32 76.5
      vertex -20 -37 76.5
    endloop
  endfacet
  facet normal -0 0 -1
    outer loop
      vertex -20 -32 76.5
      vertex -37 -37 76.5
      vertex -37 -32 76.5
    endloop
  endfacet
  facet normal 0 0 -1
    outer loop
      vertex -37 20 76.5
      vertex -32 32 76.5
      vertex -32 20 76.5
    endloop
  endfacet
  facet normal 0 0 -1
    outer loop
      vertex -37 37 76.5
      vertex -32 32 76.5
      vertex -37 20 76.5
    endloop
  endfacet
  facet normal 0 0 -1
    outer loop
      vertex -32 32 76.5
      vertex -37 37 76.5
      vertex -32 37 76.5
    endloop
  endfacet
  facet normal 0 0 -1
    outer loop
      vertex 32 -37 76.5
      vertex 37 -20 76.5
      vertex 37 -37 76.5
    endloop
  endfacet
  facet normal -0 0 -1
    outer loop
      vertex 37 -20 76.5
      vertex 32 -37 76.5
      vertex 32 -20 76.5
    endloop
  endfacet
  facet normal 0 0 -1
    outer loop
      vertex 20 32 76.5
      vertex 37 37 76.5
      vertex 37 32 76.5
    endloop
  endfacet
  facet normal -0 0 -1
    outer loop
      vertex 37 37 76.5
      vertex 20 32 76.5
      vertex 20 37 76.5
    endloop
  endfacet
  facet normal 0 0 -1
    outer loop
      vertex 20 -32 76.5
      vertex 32 -20 76.5
      vertex 32 -37 76.5
    endloop
  endfacet
  facet normal 0 0 -1
    outer loop
      vertex 20 -32 76.5
      vertex 32 -37 76.5
      vertex 20 -37 76.5
    endloop
  endfacet
  facet normal 0 0 -1
    outer loop
      vertex 32 20 76.5
      vertex 37 32 76.5
      vertex 37 20 76.5
    endloop
  endfacet
  facet normal -0 0 -1
    outer loop
      vertex 32 -20 76.5
      vertex 20 -32 76.5
      vertex 32 20 76.5
    endloop
  endfacet
  facet normal 0 0 -1
    outer loop
      vertex 32 20 76.5
      vertex 20 32 76.5
      vertex 37 32 76.5
    endloop
  endfacet
  facet normal 0 0 -1
    outer loop
      vertex 20 -32 76.5
      vertex 20 32 76.5
      vertex 32 20 76.5
    endloop
  endfacet
  facet normal 0 0 -1
    outer loop
      vertex -20 -32 76.5
      vertex 20 32 76.5
      vertex 20 -32 76.5
    endloop
  endfacet
  facet normal 0 0 -1
    outer loop
      vertex -20 -32 76.5
      vertex -20 32 76.5
      vertex 20 32 76.5
    endloop
  endfacet
  facet normal 0 0 -1
    outer loop
      vertex -20 -32 76.5
      vertex -32 -20 76.5
      vertex -20 32 76.5
    endloop
  endfacet
  facet normal 0 0 -1
    outer loop
      vertex -37 -32 76.5
      vertex -32 -20 76.5
      vertex -20 -32 76.5
    endloop
  endfacet
  facet normal -0 0 -1
    outer loop
      vertex -32 -20 76.5
      vertex -37 -32 76.5
      vertex -37 -20 76.5
    endloop
  endfacet
  facet normal 0 0 -1
    outer loop
      vertex -32 20 76.5
      vertex -20 32 76.5
      vertex -32 -20 76.5
    endloop
  endfacet
  facet normal -0 0 -1
    outer loop
      vertex -20 32 76.5
      vertex -32 20 76.5
      vertex -32 32 76.5
    endloop
  endfacet
  facet normal 0 0 -1
    outer loop
      vertex -32 32 76.5
      vertex -20 37 76.5
      vertex -20 32 76.5
    endloop
  endfacet
  facet normal -0 0 -1
    outer loop
      vertex -20 37 76.5
      vertex -32 32 76.5
      vertex -32 37 76.5
    endloop
  endfacet
endsolid OpenSCAD_Model
