solid OpenSCAD_Model
  facet normal -1 0 0
    outer loop
      vertex -36 -36 -2.5
      vertex -36 31.5 2.5
      vertex -36 31.5 -2.5
    endloop
  endfacet
  facet normal -1 -0 0
    outer loop
      vertex -36 31.5 2.5
      vertex -36 -36 -2.5
      vertex -36 -36 2.5
    endloop
  endfacet
  facet normal 0 0 1
    outer loop
      vertex 15.5 36 2.5
      vertex -15.5 36 2.5
      vertex 15.5 31.5 2.5
    endloop
  endfacet
  facet normal -0 0 1
    outer loop
      vertex 15.5 31.5 2.5
      vertex 36 -36 2.5
      vertex 36 31.5 2.5
    endloop
  endfacet
  facet normal 0 0 1
    outer loop
      vertex -15.5 31.5 2.5
      vertex 15.5 31.5 2.5
      vertex -15.5 36 2.5
    endloop
  endfacet
  facet normal 0 0 1
    outer loop
      vertex 15.5 31.5 2.5
      vertex -15.5 31.5 2.5
      vertex 36 -36 2.5
    endloop
  endfacet
  facet normal 0 0 1
    outer loop
      vertex -36 -36 2.5
      vertex -15.5 31.5 2.5
      vertex -36 31.5 2.5
    endloop
  endfacet
  facet normal 0 0 1
    outer loop
      vertex -15.5 31.5 2.5
      vertex -36 -36 2.5
      vertex 36 -36 2.5
    endloop
  endfacet
  facet normal 1 -0 0
    outer loop
      vertex 36 -36 2.5
      vertex 36 31.5 -2.5
      vertex 36 31.5 2.5
    endloop
  endfacet
  facet normal 1 0 0
    outer loop
      vertex 36 31.5 -2.5
      vertex 36 -36 2.5
      vertex 36 -36 -2.5
    endloop
  endfacet
  facet normal 0 0 -1
    outer loop
      vertex 36 -36 -2.5
      vertex 15.5 31.5 -2.5
      vertex 36 31.5 -2.5
    endloop
  endfacet
  facet normal 0 0 -1
    outer loop
      vertex 15.5 31.5 -2.5
      vertex -15.5 31.5 -2.5
      vertex 15.5 36 -2.5
    endloop
  endfacet
  facet normal 0 0 -1
    outer loop
      vertex 36 -36 -2.5
      vertex -15.5 31.5 -2.5
      vertex 15.5 31.5 -2.5
    endloop
  endfacet
  facet normal 0 0 -1
    outer loop
      vertex -36 -36 -2.5
      vertex -15.5 31.5 -2.5
      vertex 36 -36 -2.5
    endloop
  endfacet
  facet normal -0 0 -1
    outer loop
      vertex -15.5 31.5 -2.5
      vertex -36 -36 -2.5
      vertex -36 31.5 -2.5
    endloop
  endfacet
  facet normal -0 0 -1
    outer loop
      vertex 15.5 36 -2.5
      vertex -15.5 31.5 -2.5
      vertex -15.5 36 -2.5
    endloop
  endfacet
  facet normal 0 -1 0
    outer loop
      vertex -36 -36 -2.5
      vertex 36 -36 2.5
      vertex -36 -36 2.5
    endloop
  endfacet
  facet normal 0 -1 -0
    outer loop
      vertex 36 -36 2.5
      vertex -36 -36 -2.5
      vertex 36 -36 -2.5
    endloop
  endfacet
  facet normal 0 1 -0
    outer loop
      vertex 15.5 36 -2.5
      vertex -15.5 36 2.5
      vertex 15.5 36 2.5
    endloop
  endfacet
  facet normal 0 1 0
    outer loop
      vertex -15.5 36 2.5
      vertex 15.5 36 -2.5
      vertex -15.5 36 -2.5
    endloop
  endfacet
  facet normal -1 0 0
    outer loop
      vertex -15.5 31.5 -2.5
      vertex -15.5 36 2.5
      vertex -15.5 36 -2.5
    endloop
  endfacet
  facet normal -1 -0 0
    outer loop
      vertex -15.5 36 2.5
      vertex -15.5 31.5 -2.5
      vertex -15.5 31.5 2.5
    endloop
  endfacet
  facet normal 0 1 -0
    outer loop
      vertex -15.5 31.5 -2.5
      vertex -36 31.5 2.5
      vertex -15.5 31.5 2.5
    endloop
  endfacet
  facet normal 0 1 0
    outer loop
      vertex -36 31.5 2.5
      vertex -15.5 31.5 -2.5
      vertex -36 31.5 -2.5
    endloop
  endfacet
  facet normal 1 -0 0
    outer loop
      vertex 15.5 31.5 2.5
      vertex 15.5 36 -2.5
      vertex 15.5 36 2.5
    endloop
  endfacet
  facet normal 1 0 0
    outer loop
      vertex 15.5 36 -2.5
      vertex 15.5 31.5 2.5
      vertex 15.5 31.5 -2.5
    endloop
  endfacet
  facet normal 0 1 -0
    outer loop
      vertex 36 31.5 -2.5
      vertex 15.5 31.5 2.5
      vertex 36 31.5 2.5
    endloop
  endfacet
  facet normal 0 1 0
    outer loop
      vertex 15.5 31.5 2.5
      vertex 36 31.5 -2.5
      vertex 15.5 31.5 -2.5
    endloop
  endfacet
endsolid OpenSCAD_Model
