solid OpenSCAD_Model
  facet normal -1 0 0
    outer loop
      vertex -32 0 -2.5
      vertex -32 37 2.5
      vertex -32 37 -2.5
    endloop
  endfacet
  facet normal -1 -0 0
    outer loop
      vertex -32 37 2.5
      vertex -32 0 -2.5
      vertex -32 0 2.5
    endloop
  endfacet
  facet normal 0 0 1
    outer loop
      vertex -20 37 2.5
      vertex 20 37 2.5
      vertex 20 42 2.5
    endloop
  endfacet
  facet normal 0 0 1
    outer loop
      vertex 20 37 2.5
      vertex -20 37 2.5
      vertex 15 10 2.5
    endloop
  endfacet
  facet normal 0 0 1
    outer loop
      vertex 15 10 2.5
      vertex -20 37 2.5
      vertex -15 10 2.5
    endloop
  endfacet
  facet normal 0 0 1
    outer loop
      vertex -20 37 2.5
      vertex 20 42 2.5
      vertex -20 42 2.5
    endloop
  endfacet
  facet normal 0 0 1
    outer loop
      vertex 37 37 2.5
      vertex 32 0 2.5
      vertex 37 0 2.5
    endloop
  endfacet
  facet normal 0 0 1
    outer loop
      vertex 32 0 2.5
      vertex 22.5 -37 2.5
      vertex 32 -37 2.5
    endloop
  endfacet
  facet normal -0 0 1
    outer loop
      vertex 15 10 2.5
      vertex 32 0 2.5
      vertex 37 37 2.5
    endloop
  endfacet
  facet normal 0 0 1
    outer loop
      vertex 15 10 2.5
      vertex 37 37 2.5
      vertex 20 37 2.5
    endloop
  endfacet
  facet normal 0 0 1
    outer loop
      vertex 15 -37 2.5
      vertex 32 0 2.5
      vertex 15 10 2.5
    endloop
  endfacet
  facet normal 0 0 1
    outer loop
      vertex 32 0 2.5
      vertex 15 -37 2.5
      vertex 22.5 -37 2.5
    endloop
  endfacet
  facet normal 0 0 1
    outer loop
      vertex 22.5 -37 2.5
      vertex 15 -37 2.5
      vertex 22.5 -42 2.5
    endloop
  endfacet
  facet normal 0 0 1
    outer loop
      vertex 7.5 -42 2.5
      vertex 15 -37 2.5
      vertex 7.5 -37 2.5
    endloop
  endfacet
  facet normal 0 0 1
    outer loop
      vertex 15 -37 2.5
      vertex 7.5 -42 2.5
      vertex 22.5 -42 2.5
    endloop
  endfacet
  facet normal -0 0 1
    outer loop
      vertex -15 -37 2.5
      vertex -7.5 -42 2.5
      vertex -7.5 -37 2.5
    endloop
  endfacet
  facet normal -0 0 1
    outer loop
      vertex -32 37 2.5
      vertex -15 10 2.5
      vertex -20 37 2.5
    endloop
  endfacet
  facet normal 0 0 1
    outer loop
      vertex -15 10 2.5
      vertex -32 0 2.5
      vertex -15 -37 2.5
    endloop
  endfacet
  facet normal 0 0 1
    outer loop
      vertex -22.5 -42 2.5
      vertex -15 -37 2.5
      vertex -22.5 -37 2.5
    endloop
  endfacet
  facet normal 0 0 1
    outer loop
      vertex -15 -37 2.5
      vertex -22.5 -42 2.5
      vertex -7.5 -42 2.5
    endloop
  endfacet
  facet normal 0 0 1
    outer loop
      vertex -15 10 2.5
      vertex -32 37 2.5
      vertex -32 0 2.5
    endloop
  endfacet
  facet normal 0 0 1
    outer loop
      vertex -15 -37 2.5
      vertex -32 0 2.5
      vertex -22.5 -37 2.5
    endloop
  endfacet
  facet normal 0 0 1
    outer loop
      vertex -37 -37 2.5
      vertex -32 0 2.5
      vertex -37 0 2.5
    endloop
  endfacet
  facet normal 0 0 1
    outer loop
      vertex -32 0 2.5
      vertex -37 -37 2.5
      vertex -22.5 -37 2.5
    endloop
  endfacet
  facet normal 1 -0 0
    outer loop
      vertex 32 -37 2.5
      vertex 32 0 -2.5
      vertex 32 0 2.5
    endloop
  endfacet
  facet normal 1 0 0
    outer loop
      vertex 32 0 -2.5
      vertex 32 -37 2.5
      vertex 32 -37 -2.5
    endloop
  endfacet
  facet normal 0 0 -1
    outer loop
      vertex -32 0 -2.5
      vertex -15 10 -2.5
      vertex -15 -37 -2.5
    endloop
  endfacet
  facet normal 0 0 -1
    outer loop
      vertex -32 37 -2.5
      vertex -15 10 -2.5
      vertex -32 0 -2.5
    endloop
  endfacet
  facet normal 0 0 -1
    outer loop
      vertex -37 -37 -2.5
      vertex -32 0 -2.5
      vertex -15 -37 -2.5
    endloop
  endfacet
  facet normal -0 0 -1
    outer loop
      vertex -32 0 -2.5
      vertex -37 -37 -2.5
      vertex -37 0 -2.5
    endloop
  endfacet
  facet normal 0 0 -1
    outer loop
      vertex 15 -37 -2.5
      vertex 32 0 -2.5
      vertex 32 -37 -2.5
    endloop
  endfacet
  facet normal -0 0 -1
    outer loop
      vertex 32 0 -2.5
      vertex 15 -37 -2.5
      vertex 15 10 -2.5
    endloop
  endfacet
  facet normal 0 0 -1
    outer loop
      vertex 32 0 -2.5
      vertex 15 10 -2.5
      vertex 20 37 -2.5
    endloop
  endfacet
  facet normal 0 0 -1
    outer loop
      vertex -20 37 -2.5
      vertex 20 37 -2.5
      vertex 15 10 -2.5
    endloop
  endfacet
  facet normal 0 0 -1
    outer loop
      vertex -20 37 -2.5
      vertex 15 10 -2.5
      vertex -15 10 -2.5
    endloop
  endfacet
  facet normal 0 0 -1
    outer loop
      vertex 20 37 -2.5
      vertex -20 37 -2.5
      vertex 20 42 -2.5
    endloop
  endfacet
  facet normal -0 0 -1
    outer loop
      vertex 20 42 -2.5
      vertex -20 37 -2.5
      vertex -20 42 -2.5
    endloop
  endfacet
  facet normal 0 0 -1
    outer loop
      vertex 32 0 -2.5
      vertex 37 37 -2.5
      vertex 37 0 -2.5
    endloop
  endfacet
  facet normal -0 0 -1
    outer loop
      vertex 37 37 -2.5
      vertex 32 0 -2.5
      vertex 20 37 -2.5
    endloop
  endfacet
  facet normal 0 0 -1
    outer loop
      vertex -15 10 -2.5
      vertex -32 37 -2.5
      vertex -20 37 -2.5
    endloop
  endfacet
  facet normal 0 -1 0
    outer loop
      vertex -37 -37 2.5
      vertex -22.5 -37 -0.5
      vertex -22.5 -37 2.5
    endloop
  endfacet
  facet normal 0 -1 0
    outer loop
      vertex -37 -37 -2.5
      vertex -22.5 -37 -0.5
      vertex -37 -37 2.5
    endloop
  endfacet
  facet normal 0 -1 0
    outer loop
      vertex -15 -37 -2.5
      vertex -22.5 -37 -0.5
      vertex -37 -37 -2.5
    endloop
  endfacet
  facet normal 0 -1 0
    outer loop
      vertex -22.5 -37 -0.5
      vertex -15 -37 -2.5
      vertex -15 -37 -0.5
    endloop
  endfacet
  facet normal 0 -1 0
    outer loop
      vertex 15 -37 -0.5
      vertex 15 -37 -2.5
      vertex 22.5 -37 -0.5
    endloop
  endfacet
  facet normal 0 -1 0
    outer loop
      vertex 22.5 -37 -0.5
      vertex 32 -37 2.5
      vertex 22.5 -37 2.5
    endloop
  endfacet
  facet normal 0 -1 0
    outer loop
      vertex 22.5 -37 -0.5
      vertex 32 -37 -2.5
      vertex 32 -37 2.5
    endloop
  endfacet
  facet normal 0 -1 0
    outer loop
      vertex 32 -37 -2.5
      vertex 22.5 -37 -0.5
      vertex 15 -37 -2.5
    endloop
  endfacet
  facet normal 0 1 -0
    outer loop
      vertex 15 -37 -0.5
      vertex 7.5 -37 2.5
      vertex 15 -37 2.5
    endloop
  endfacet
  facet normal 0 1 0
    outer loop
      vertex 7.5 -37 2.5
      vertex 15 -37 -0.5
      vertex 7.5 -37 -0.5
    endloop
  endfacet
  facet normal 0 1 -0
    outer loop
      vertex -7.5 -37 -0.5
      vertex -15 -37 2.5
      vertex -7.5 -37 2.5
    endloop
  endfacet
  facet normal 0 1 0
    outer loop
      vertex -15 -37 2.5
      vertex -7.5 -37 -0.5
      vertex -15 -37 -0.5
    endloop
  endfacet
  facet normal 0 1 -0
    outer loop
      vertex 37 37 -2.5
      vertex 20 37 2.5
      vertex 37 37 2.5
    endloop
  endfacet
  facet normal 0 1 0
    outer loop
      vertex 20 37 2.5
      vertex 37 37 -2.5
      vertex 20 37 -2.5
    endloop
  endfacet
  facet normal 0 1 -0
    outer loop
      vertex -20 37 -2.5
      vertex -32 37 2.5
      vertex -20 37 2.5
    endloop
  endfacet
  facet normal 0 1 0
    outer loop
      vertex -32 37 2.5
      vertex -20 37 -2.5
      vertex -32 37 -2.5
    endloop
  endfacet
  facet normal 1 0 0
    outer loop
      vertex -15 -37 -0.5
      vertex -15 10 2.5
      vertex -15 -37 2.5
    endloop
  endfacet
  facet normal 1 0 0
    outer loop
      vertex -15 10 2.5
      vertex -15 -37 -0.5
      vertex -15 10 -2.5
    endloop
  endfacet
  facet normal 1 0 0
    outer loop
      vertex -15 10 -2.5
      vertex -15 -37 -0.5
      vertex -15 -37 -2.5
    endloop
  endfacet
  facet normal -1 0 0
    outer loop
      vertex 15 -37 -0.5
      vertex 15 10 -2.5
      vertex 15 -37 -2.5
    endloop
  endfacet
  facet normal -1 0 0
    outer loop
      vertex 15 10 -2.5
      vertex 15 -37 -0.5
      vertex 15 10 2.5
    endloop
  endfacet
  facet normal -1 -0 0
    outer loop
      vertex 15 10 2.5
      vertex 15 -37 -0.5
      vertex 15 -37 2.5
    endloop
  endfacet
  facet normal 0 -1 0
    outer loop
      vertex -15 10 -2.5
      vertex 15 10 2.5
      vertex -15 10 2.5
    endloop
  endfacet
  facet normal 0 -1 -0
    outer loop
      vertex 15 10 2.5
      vertex -15 10 -2.5
      vertex 15 10 -2.5
    endloop
  endfacet
  facet normal -1 0 0
    outer loop
      vertex -20 37 -2.5
      vertex -20 42 2.5
      vertex -20 42 -2.5
    endloop
  endfacet
  facet normal -1 -0 0
    outer loop
      vertex -20 42 2.5
      vertex -20 37 -2.5
      vertex -20 37 2.5
    endloop
  endfacet
  facet normal 1 -0 0
    outer loop
      vertex 20 37 2.5
      vertex 20 42 -2.5
      vertex 20 42 2.5
    endloop
  endfacet
  facet normal 1 0 0
    outer loop
      vertex 20 42 -2.5
      vertex 20 37 2.5
      vertex 20 37 -2.5
    endloop
  endfacet
  facet normal 0 1 -0
    outer loop
      vertex 20 42 -2.5
      vertex -20 42 2.5
      vertex 20 42 2.5
    endloop
  endfacet
  facet normal 0 1 0
    outer loop
      vertex -20 42 2.5
      vertex 20 42 -2.5
      vertex -20 42 -2.5
    endloop
  endfacet
  facet normal -1 0 0
    outer loop
      vertex -22.5 -42 -0.5
      vertex -22.5 -37 2.5
      vertex -22.5 -37 -0.5
    endloop
  endfacet
  facet normal -1 -0 0
    outer loop
      vertex -22.5 -37 2.5
      vertex -22.5 -42 -0.5
      vertex -22.5 -42 2.5
    endloop
  endfacet
  facet normal 1 -0 0
    outer loop
      vertex -7.5 -42 2.5
      vertex -7.5 -37 -0.5
      vertex -7.5 -37 2.5
    endloop
  endfacet
  facet normal 1 0 0
    outer loop
      vertex -7.5 -37 -0.5
      vertex -7.5 -42 2.5
      vertex -7.5 -42 -0.5
    endloop
  endfacet
  facet normal 0 0 -1
    outer loop
      vertex -7.5 -42 -0.5
      vertex -15 -37 -0.5
      vertex -7.5 -37 -0.5
    endloop
  endfacet
  facet normal 0 0 -1
    outer loop
      vertex -22.5 -42 -0.5
      vertex -15 -37 -0.5
      vertex -7.5 -42 -0.5
    endloop
  endfacet
  facet normal -0 0 -1
    outer loop
      vertex -15 -37 -0.5
      vertex -22.5 -42 -0.5
      vertex -22.5 -37 -0.5
    endloop
  endfacet
  facet normal 0 -1 0
    outer loop
      vertex -22.5 -42 -0.5
      vertex -7.5 -42 2.5
      vertex -22.5 -42 2.5
    endloop
  endfacet
  facet normal 0 -1 -0
    outer loop
      vertex -7.5 -42 2.5
      vertex -22.5 -42 -0.5
      vertex -7.5 -42 -0.5
    endloop
  endfacet
  facet normal -1 0 0
    outer loop
      vertex 7.5 -42 -0.5
      vertex 7.5 -37 2.5
      vertex 7.5 -37 -0.5
    endloop
  endfacet
  facet normal -1 -0 0
    outer loop
      vertex 7.5 -37 2.5
      vertex 7.5 -42 -0.5
      vertex 7.5 -42 2.5
    endloop
  endfacet
  facet normal 1 -0 0
    outer loop
      vertex 22.5 -42 2.5
      vertex 22.5 -37 -0.5
      vertex 22.5 -37 2.5
    endloop
  endfacet
  facet normal 1 0 0
    outer loop
      vertex 22.5 -37 -0.5
      vertex 22.5 -42 2.5
      vertex 22.5 -42 -0.5
    endloop
  endfacet
  facet normal 0 0 -1
    outer loop
      vertex 22.5 -42 -0.5
      vertex 15 -37 -0.5
      vertex 22.5 -37 -0.5
    endloop
  endfacet
  facet normal 0 0 -1
    outer loop
      vertex 7.5 -42 -0.5
      vertex 15 -37 -0.5
      vertex 22.5 -42 -0.5
    endloop
  endfacet
  facet normal -0 0 -1
    outer loop
      vertex 15 -37 -0.5
      vertex 7.5 -42 -0.5
      vertex 7.5 -37 -0.5
    endloop
  endfacet
  facet normal 0 -1 0
    outer loop
      vertex 7.5 -42 -0.5
      vertex 22.5 -42 2.5
      vertex 7.5 -42 2.5
    endloop
  endfacet
  facet normal 0 -1 -0
    outer loop
      vertex 22.5 -42 2.5
      vertex 7.5 -42 -0.5
      vertex 22.5 -42 -0.5
    endloop
  endfacet
  facet normal -1 0 0
    outer loop
      vertex -37 -37 -2.5
      vertex -37 0 2.5
      vertex -37 0 -2.5
    endloop
  endfacet
  facet normal -1 -0 0
    outer loop
      vertex -37 0 2.5
      vertex -37 -37 -2.5
      vertex -37 -37 2.5
    endloop
  endfacet
  facet normal 0 1 -0
    outer loop
      vertex -32 0 -2.5
      vertex -37 0 2.5
      vertex -32 0 2.5
    endloop
  endfacet
  facet normal 0 1 0
    outer loop
      vertex -37 0 2.5
      vertex -32 0 -2.5
      vertex -37 0 -2.5
    endloop
  endfacet
  facet normal 1 -0 0
    outer loop
      vertex 37 0 2.5
      vertex 37 37 -2.5
      vertex 37 37 2.5
    endloop
  endfacet
  facet normal 1 0 0
    outer loop
      vertex 37 37 -2.5
      vertex 37 0 2.5
      vertex 37 0 -2.5
    endloop
  endfacet
  facet normal 0 -1 0
    outer loop
      vertex 32 0 -2.5
      vertex 37 0 2.5
      vertex 32 0 2.5
    endloop
  endfacet
  facet normal 0 -1 -0
    outer loop
      vertex 37 0 2.5
      vertex 32 0 -2.5
      vertex 37 0 -2.5
    endloop
  endfacet
endsolid OpenSCAD_Model
